<svg width="300" height="300" viewBox="0 0 300 300" fill="none" xmlns="http://www.w3.org/2000/svg">
<path fill-rule="evenodd" clip-rule="evenodd" d="M56.1047 219.575C74.2127 239.286 144.237 227.964 190.345 227.964C210.237 227.964 276.989 237.933 249.424 169.467C159.043 -55.0214 -1.27063 157.12 56.1047 219.575Z" fill="#B3DDDE" fill-opacity="0.32"/>
<path fill-rule="evenodd" clip-rule="evenodd" d="M136.224 221.161C136.312 221.093 136.405 221.02 136.443 220.916C136.566 220.582 136.084 220.36 135.728 220.368C135.212 220.38 134.55 220.728 134.708 221.219C134.799 221.504 135.15 221.635 135.444 221.583C135.738 221.531 135.987 221.343 136.224 221.161ZM137.759 215.308C138.149 215.43 138.533 215.581 138.873 215.808C139.51 216.235 139.944 216.898 140.36 217.542C140.658 218.004 140.961 218.475 141.11 219.004C141.271 219.578 141.242 220.189 141.134 220.775C140.798 222.6 139.672 224.264 138.104 225.256C136.536 226.247 134.549 226.551 132.756 226.073C132.407 225.979 132.056 225.852 131.788 225.611C131.562 225.408 131.41 225.137 131.271 224.868C130.541 223.452 130.049 221.879 130.105 220.288C130.161 218.696 130.816 217.085 132.055 216.085C133.61 214.829 135.852 214.709 137.759 215.308" fill="white"/>
<path fill-rule="evenodd" clip-rule="evenodd" d="M220.078 128.712C219.224 128.701 218.422 129.418 218.337 130.268C218.303 130.616 218.45 131.048 218.796 131.096C219.056 131.132 219.283 130.931 219.457 130.736C219.826 130.323 220.142 129.863 220.397 129.372C220.483 129.207 220.558 128.995 220.446 128.847C220.364 128.739 220.214 128.713 220.078 128.712ZM219.708 124.898C220.922 125.321 222.022 126.066 222.865 127.036C223.591 127.869 224.143 128.951 223.991 130.045C223.935 130.447 223.786 130.83 223.617 131.198C222.977 132.595 221.876 133.933 220.364 134.203C219.571 134.345 218.753 134.175 217.991 133.916C217.108 133.615 216.267 133.194 215.498 132.668C215.09 132.389 214.685 132.058 214.506 131.597C214.383 131.279 214.379 130.929 214.384 130.589C214.395 129.746 214.451 128.889 214.745 128.1C215.117 127.101 215.844 126.276 216.615 125.54C216.925 125.244 217.254 124.952 217.652 124.793C218.304 124.534 219.046 124.667 219.708 124.898Z" fill="white"/>
<path fill-rule="evenodd" clip-rule="evenodd" d="M220.08 64.1151C225.101 69.2937 229.065 75.4862 231.659 82.2065C231.838 82.668 232.011 83.1807 231.841 83.6454C230.532 87.2228 228.006 90.2052 225.529 93.1052C223.946 94.9583 222.363 96.8113 220.781 98.6644C219.27 100.433 217.759 102.203 216.197 103.927C208.244 112.708 198.847 120.386 187.964 125.11C187.554 125.288 187.113 125.466 186.671 125.395C186.229 125.323 185.814 124.896 185.93 124.464C187.275 119.454 188.629 114.215 187.55 109.141C187.289 107.917 186.999 106.376 188.014 105.64C196.234 99.6769 202.152 91.154 207.823 82.7469C209.249 80.633 210.671 78.5132 211.933 76.2981C214.174 72.3653 215.899 68.1417 217.053 63.7679C217.211 63.1677 217.971 62.8975 218.574 63.0548C219.177 63.2121 219.647 63.6688 220.08 64.1151" fill="white"/>
<path fill-rule="evenodd" clip-rule="evenodd" d="M63.4774 84.2331C64.2938 91.6138 66.5661 98.8305 70.1255 105.348C72.3293 109.383 75.0099 113.134 77.6834 116.875C79.5437 119.478 81.5332 122.19 84.4359 123.535C85.2077 123.893 85.1001 125.006 84.8929 125.831C83.9975 129.397 83.5798 133.083 83.6543 136.759C83.6613 137.107 83.6704 137.467 83.534 137.786C83.0707 138.87 81.4836 138.69 80.391 138.246C73.6304 135.502 68.44 129.983 63.5914 124.53C57.2961 117.451 51.0946 110.062 47.3757 101.349C47.1229 100.757 46.8775 100.133 46.9198 99.4906C46.9629 98.8358 47.2993 98.2406 47.6406 97.6801C51.0118 92.1429 55.7019 87.4146 61.2116 83.9986C61.5997 83.758 62.0141 83.5169 62.4704 83.5011C62.9267 83.4853 63.4272 83.7793 63.4774 84.2331Z" fill="white"/>
<path fill-rule="evenodd" clip-rule="evenodd" d="M219.094 213.71C219.677 212.722 220.399 211.635 221.53 211.448C221.976 211.374 222.211 210.89 222.363 210.464C224.232 205.22 224.412 199.389 222.87 194.04C222.43 192.513 222.972 190.894 223.508 189.399C224.892 185.538 226.276 181.678 227.66 177.818C226.867 176.446 224.776 176.487 223.705 175.32C222.327 173.818 223.367 171.43 224.446 169.701C230.754 159.6 237.061 149.499 243.369 139.398C244.141 138.16 245.837 137.772 247.258 138.102C248.68 138.432 249.893 139.326 251.062 140.199C255.662 143.635 260.263 147.071 264.863 150.507C267.332 152.351 270.057 154.707 269.915 157.785C269.836 159.488 268.862 161.002 267.919 162.423C264.273 167.917 260.627 173.41 256.982 178.904C254.928 181.999 255.495 186.064 254.874 189.726C253.893 195.512 249.925 200.264 246.251 204.841C242.577 209.417 238.9 214.528 238.694 220.393C238.447 227.384 235.126 234.211 229.779 238.72C231.33 234.957 221.53 236.458 210.32 231.998C212.165 225.472 215.648 219.55 219.094 213.71Z" fill="white"/>
<path fill-rule="evenodd" clip-rule="evenodd" d="M96.0038 230.076C95.3048 229.504 95.0819 228.539 94.9585 227.642C93.5309 217.262 99.6618 207.017 98.5697 196.596C98.0069 191.226 95.5394 186.215 92.4344 181.808C90.2901 178.764 90.1698 174.687 90.9698 171.046C91.7698 167.405 93.3836 164 94.472 160.435C99.3124 144.581 93.4226 127.645 87.5996 112.129C99.2029 106.518 112.743 107.605 125.598 108.365C138.452 109.125 152.277 109.179 162.991 102C164.459 117.53 161.221 133.077 158.002 148.338C174.338 146.746 190.675 145.155 207.011 143.563C207.48 143.517 207.992 143.482 208.381 143.748C208.901 144.103 208.98 144.827 209.01 145.457C209.774 161.608 210.237 177.773 210.399 193.941C210.403 194.346 210.389 194.799 210.104 195.086C209.861 195.332 209.489 195.384 209.146 195.422C186.258 197.973 163.37 200.524 140.482 203.074C138.502 203.295 135.683 202.779 135.799 200.781C136.316 191.873 136.014 182.916 134.899 174.063C128.816 173.833 122.692 174.761 116.947 176.782C115.644 177.241 114.077 178.474 114.78 179.669C119.43 187.572 113.658 199.451 119.974 206.085C122.146 208.366 121.996 211.954 121.566 215.082C120.643 221.785 119.076 228.398 116.892 234.8C117.948 227.432 96.6487 234.027 96.0038 230.076Z" fill="white"/>
<path fill-rule="evenodd" clip-rule="evenodd" d="M30.5383 62.8105C30.5578 62.9678 30.4727 63.133 30.3332 63.2084C30.2222 63.0973 30.1111 62.9862 30 62.875C30.1665 62.8022 30.3554 62.7814 30.5337 62.8163L30.5383 62.8105Z" fill="#00160A"/>
<path fill-rule="evenodd" clip-rule="evenodd" d="M137.358 215.308C137.748 215.43 138.133 215.581 138.472 215.808C139.11 216.235 139.543 216.898 139.96 217.542C140.258 218.004 140.56 218.475 140.709 219.004C140.871 219.578 140.842 220.189 140.734 220.775C140.397 222.6 139.271 224.264 137.703 225.256C136.135 226.247 134.148 226.551 132.356 226.073C132.007 225.979 131.656 225.852 131.387 225.611C131.162 225.408 131.01 225.137 130.871 224.868C130.141 223.452 129.648 221.879 129.705 220.288C129.761 218.696 130.415 217.085 131.655 216.085C133.21 214.829 135.451 214.709 137.358 215.308M135.172 224.785C136.147 224.637 137.006 224 137.566 223.189C138.126 222.377 138.414 221.404 138.552 220.427C138.631 219.87 138.638 219.231 138.244 218.828C138.009 218.587 137.672 218.479 137.349 218.383C136.137 218.02 134.753 217.712 133.667 218.361C132.877 218.835 132.436 219.711 132.036 220.541C131.568 221.514 131.684 222.741 132.325 223.609C132.967 224.476 134.106 224.947 135.172 224.785V224.785Z" fill="#00160A"/>
<path fill-rule="evenodd" clip-rule="evenodd" d="M181.895 171.515C181.912 171.308 181.937 171.087 182.074 170.931C182.208 170.778 182.418 170.723 182.616 170.677C187.71 169.491 192.971 169.027 198.193 169.303C198.858 169.339 199.714 169.564 199.758 170.228C200.01 174.039 200.262 177.849 200.515 181.659C200.527 181.852 200.534 182.066 200.41 182.215C200.31 182.336 200.148 182.383 199.995 182.422C194.563 183.839 188.838 184.118 183.294 183.237C183.151 183.214 183.001 183.187 182.89 183.095C182.756 182.982 182.709 182.8 182.671 182.629C181.854 178.992 181.591 175.231 181.895 171.515ZM183.096 177.836C183.196 179.275 183.498 180.7 183.99 182.056C184.481 182.126 184.966 182.228 185.455 182.311C189.668 183.024 193.977 182.307 198.19 181.59C198.488 181.539 198.816 181.471 199.001 181.231C199.189 180.985 199.164 180.643 199.13 180.335C198.985 179.022 198.84 177.709 198.695 176.396C198.683 176.29 198.668 176.177 198.596 176.098C198.51 176.002 198.367 175.987 198.238 175.978C195.245 175.781 192.241 176.004 189.25 176.228C187.596 176.351 185.943 176.475 184.289 176.598C183.9 176.627 183.459 176.684 183.235 177.004C183.071 177.239 183.076 177.55 183.096 177.836ZM183.143 172.345C182.881 173.184 182.834 174.089 183.007 174.951C183.039 175.106 183.082 175.269 183.2 175.374C183.374 175.531 183.64 175.505 183.872 175.471C186.689 175.058 189.536 174.853 192.384 174.858C192.785 174.859 192.909 174.318 192.904 173.916C192.898 173.328 192.891 172.739 192.885 172.151C192.881 171.81 192.864 171.435 192.631 171.187C192.351 170.889 191.883 170.898 191.475 170.929C190.531 171.001 189.588 171.073 188.645 171.145C188.194 171.18 186.997 171.486 186.447 171.522C185.489 171.675 184.531 171.828 183.574 171.981C183.472 171.997 183.364 172.016 183.285 172.083C183.209 172.148 183.173 172.248 183.143 172.345ZM195.773 174.905C196.522 174.914 197.271 174.84 198.003 174.682C198.178 174.645 198.361 174.597 198.485 174.469C198.668 174.282 198.666 173.987 198.652 173.726C198.614 172.967 198.575 172.209 198.536 171.45C198.523 171.179 198.492 170.874 198.28 170.705C198.094 170.556 197.832 170.565 197.594 170.581C196.761 170.638 195.929 170.694 195.097 170.751C194.965 170.76 194.826 170.771 194.716 170.844C194.514 170.977 194.484 171.256 194.479 171.498C194.46 172.302 194.493 173.107 194.577 173.908C194.601 174.139 194.635 174.383 194.778 174.567C195.002 174.853 195.41 174.9 195.773 174.905Z" fill="#0E3746"/>
<path fill-rule="evenodd" clip-rule="evenodd" d="M194.932 154.864C196.044 154.382 197.41 154.543 198.38 155.271C199.35 155.999 199.886 157.264 199.735 158.467C200.417 158.099 201.282 157.736 201.918 158.178C202.637 158.678 202.472 159.754 202.364 160.623C202.176 162.14 202.42 163.709 203.062 165.097C203.327 165.671 203.554 166.541 202.967 166.772C202.867 166.811 202.759 166.82 202.653 166.829C195.761 167.384 188.869 167.939 181.977 168.495C181.788 168.51 181.577 168.518 181.434 168.394C181.288 168.267 181.269 168.051 181.262 167.857C181.196 166.236 181.13 164.615 181.063 162.994C181.046 162.559 181.037 162.09 181.283 161.731C181.689 161.136 182.541 161.138 183.252 161.024C183.963 160.91 184.79 160.31 184.517 159.644C184.212 158.901 185.252 158.359 186.045 158.238C186.839 158.117 187.892 157.644 187.652 156.878C187.389 156.041 188.541 155.521 189.41 155.406C190.024 155.325 190.665 155.246 191.247 155.456C191.829 155.667 192.321 156.266 192.19 156.871C192.04 157.563 192.883 158.208 193.548 157.964C194.213 157.719 194.483 156.81 194.146 156.187C193.871 155.678 194.401 155.093 194.932 154.864ZM198.49 165.546C198.233 165.068 198.231 164.499 198.228 163.956C198.218 161.407 198.061 158.858 197.76 156.326C197.744 156.198 197.72 156.055 197.616 155.98C197.525 155.916 197.404 155.923 197.294 155.934C196.755 155.984 196.117 156.103 195.904 156.6C195.814 156.812 195.824 157.052 195.837 157.282C195.973 159.838 196.11 162.393 196.246 164.949C196.259 165.187 196.291 165.46 196.488 165.593C196.596 165.665 196.732 165.679 196.862 165.686C197.408 165.716 197.958 165.668 198.49 165.546ZM189.221 161.617C189.154 162.043 189.06 162.466 189.035 162.896C188.994 163.615 189.145 164.329 189.296 165.034C189.392 165.485 189.976 165.707 190.404 165.533C190.831 165.359 191.09 164.903 191.161 164.447C191.232 163.99 191.148 163.526 191.076 163.07C190.79 161.279 190.666 159.461 190.707 157.648C190.717 157.189 190.269 156.774 189.813 156.819C189.356 156.865 188.998 157.359 189.098 157.807C189.377 159.054 189.419 160.354 189.221 161.617ZM193.754 159.17C193.485 158.818 192.869 159.005 192.659 159.395C192.45 159.785 192.514 160.258 192.566 160.698C192.702 161.846 192.715 163.009 192.604 164.16C192.572 164.5 192.536 164.87 192.723 165.155C193.012 165.593 193.644 165.589 194.165 165.536C194.329 165.519 194.517 165.488 194.599 165.345C194.657 165.246 194.643 165.123 194.628 165.01C194.387 163.224 194.147 161.438 193.906 159.652C193.883 159.483 193.857 159.305 193.754 159.17ZM199.723 159.937C199.521 160.213 199.478 160.573 199.461 160.915C199.4 162.087 199.556 163.258 199.711 164.422C199.772 164.88 199.981 165.469 200.443 165.438C200.91 165.406 201.033 164.781 201.022 164.312C200.993 163.071 200.964 161.83 200.935 160.589C200.928 160.263 200.893 159.885 200.623 159.703C200.338 159.512 199.926 159.661 199.723 159.937ZM185.597 159.644C185.597 159.644 185.802 161.264 185.874 162.089C185.964 163.125 186.078 164.159 186.217 165.19C186.237 165.339 186.264 165.501 186.375 165.604C186.566 165.783 187.305 165.664 187.441 165.441C187.577 165.217 187.569 164.938 187.557 164.676C187.52 163.849 187.482 163.022 187.445 162.194C187.405 161.308 187.194 159.395 187.194 159.395M182.918 165.509C182.977 165.694 183.047 165.888 183.197 166.013C183.489 166.255 183.964 166.105 184.195 165.803C184.426 165.501 184.478 165.104 184.522 164.726C184.576 164.263 184.628 163.782 184.478 163.34C184.328 162.899 183.913 162.51 183.449 162.551C183.022 162.589 182.691 162.979 182.591 163.397C182.492 163.814 182.576 164.251 182.679 164.667C182.75 164.95 182.829 165.231 182.918 165.509Z" fill="#E7EAEE"/>
<path fill-rule="evenodd" clip-rule="evenodd" d="M210.857 99.1849C210.3 100.02 209.697 100.866 208.836 101.382C207.975 101.898 206.787 101.998 206.013 101.359C205.159 100.653 205.107 99.3818 205.174 98.2766C205.2 97.8511 205.234 97.4222 205.356 97.0137C205.568 96.3052 206.029 95.7006 206.511 95.14C207.096 94.4598 207.744 93.8037 208.555 93.421C209.366 93.0382 210.374 92.971 211.135 93.4472C212.044 94.0173 212.381 95.2298 212.209 96.2896C212.036 97.3493 211.452 98.2914 210.857 99.1849M209.09 100.069C209.791 99.3212 210.393 98.4803 210.874 97.575C211.191 96.9792 211.46 96.3317 211.447 95.6572C211.434 94.9828 211.079 94.2778 210.452 94.0275C209.636 93.7015 208.741 94.223 208.059 94.7771C207.573 95.1715 207.103 95.6042 206.792 96.1467C206.595 96.4897 206.467 96.8671 206.34 97.2418C206.101 97.9506 205.857 98.6891 205.949 99.4318C206.04 100.174 206.571 100.92 207.316 100.997C208.005 101.068 208.616 100.573 209.09 100.069Z" fill="#0E3746"/>
<path fill-rule="evenodd" clip-rule="evenodd" d="M67.5196 108.625C68.3913 109.508 69.1108 110.541 69.6372 111.664C70.1662 112.794 69.6329 114.245 68.5947 114.936C67.5565 115.626 66.1529 115.617 65.0146 115.108C63.8763 114.599 62.9817 113.649 62.3229 112.59C61.8262 111.792 61.4411 110.898 61.3998 109.958C61.3585 109.019 61.7043 108.031 62.4473 107.455C63.1988 106.872 64.2554 106.789 65.1642 107.069C66.0731 107.348 66.8516 107.948 67.5196 108.625M64.1185 108.088C63.3643 108.011 62.6942 108.703 62.5649 109.45C62.4355 110.197 62.7203 110.955 63.0888 111.618C63.8879 113.055 65.3138 114.331 66.9561 114.251C67.8003 114.211 68.7256 113.626 68.7106 112.781C68.7041 112.415 68.5239 112.078 68.3438 111.76C67.8655 110.915 67.3488 110.079 66.6589 109.396C65.9689 108.713 65.0843 108.188 64.1185 108.088Z" fill="#0E3746"/>
<path fill-rule="evenodd" clip-rule="evenodd" d="M133.43 219.781C134.035 219.321 134.789 219.023 135.547 219.072C136.306 219.121 137.057 219.556 137.375 220.247C137.715 220.989 137.503 221.91 136.972 222.53C136.44 223.149 135.639 223.491 134.831 223.604C134.279 223.681 133.622 223.612 133.32 223.144C133.174 222.918 133.141 222.64 133.112 222.373C133.059 221.893 133.006 221.414 132.954 220.934C132.931 220.731 132.91 220.52 132.975 220.326C133.052 220.099 133.239 219.926 133.43 219.781M135.825 221.16C135.913 221.093 136.006 221.02 136.044 220.915C136.167 220.582 135.685 220.36 135.329 220.368C134.813 220.379 134.151 220.727 134.309 221.219C134.4 221.503 134.751 221.635 135.045 221.582C135.339 221.53 135.588 221.342 135.825 221.16H135.825Z" fill="#00160A"/>
<path fill-rule="evenodd" clip-rule="evenodd" d="M219.196 66.4521C223.914 71.3359 227.637 77.1757 230.075 83.5133C230.242 83.9486 230.404 84.4321 230.245 84.8702C229.015 88.2439 226.642 91.0566 224.315 93.7914L219.854 99.034C218.435 100.702 217.015 102.371 215.548 103.997C208.076 112.278 199.248 119.518 189.024 123.974C188.638 124.142 188.224 124.309 187.809 124.242C187.393 124.175 187.004 123.772 187.112 123.365C188.376 118.64 189.649 113.699 188.634 108.914C188.39 107.76 188.117 106.307 189.071 105.612C196.793 99.9889 202.352 91.9513 207.681 84.0229C209.02 82.0294 210.357 80.0303 211.542 77.9414C213.647 74.2325 215.268 70.2494 216.352 66.1247C216.5 65.5587 217.215 65.3038 217.781 65.4522C218.347 65.6005 218.789 66.0312 219.196 66.4521ZM215.894 72.5169C215.415 72.3186 214.973 72.8549 214.729 73.3126C214.469 73.7999 214.209 74.2881 213.949 74.7766L213.936 74.8009C209.048 83.9822 204.085 93.3044 196.636 100.536C195.932 101.219 195.146 102.045 195.275 103.017C195.691 106.134 194.027 109.425 191.271 110.938C190.02 111.625 190.034 113.397 190.218 114.813C190.291 115.38 190.505 116.09 191.075 116.138C192.745 116.279 194.348 117.101 195.437 118.376C195.78 118.778 196.431 118.526 196.879 118.245C208.148 111.161 216.806 100.697 225.26 90.4161C225.551 90.0614 225.862 89.6145 225.71 89.1813C224.43 85.5372 224.635 81.3958 226.268 77.8959C225.305 75.9786 224.157 74.1543 222.845 72.4565C220.661 73.4043 218.094 73.4266 215.894 72.5169ZM189.166 122.102C189.611 122.335 190.149 122.113 190.594 121.881C191.762 121.271 192.888 120.579 193.96 119.811C194.243 119.608 194.327 119.202 194.227 118.869C194.127 118.535 193.876 118.266 193.599 118.055C192.733 117.398 191.521 117.225 190.505 117.614C190.318 117.685 190.131 117.779 190.002 117.933C189.85 118.113 189.795 118.353 189.746 118.583C189.501 119.747 189.307 120.921 189.166 122.102ZM220.811 70.0903C220.045 68.5932 218.865 67.3112 217.435 66.4252C216.938 66.8635 216.842 67.5294 216.743 68.2083C216.675 68.6742 216.607 69.1461 216.408 69.5548C216.343 69.6878 216.263 69.8151 216.184 69.942L216.184 69.9422L216.184 69.9423C216.033 70.1842 215.883 70.425 215.834 70.7027C215.76 71.1264 216.119 71.6578 216.526 71.5177C216.856 71.4037 217.203 71.4769 217.552 71.5507C217.737 71.5897 217.922 71.6288 218.106 71.6407C219.179 71.71 220.07 70.8692 220.811 70.0903ZM226.88 79.0633C226.059 80.6948 226.189 82.6217 226.338 84.4417L226.552 87.0518C226.576 87.3389 226.732 87.7262 227.009 87.6467C227.18 87.1659 227.508 86.7693 227.836 86.3716C228.123 86.0238 228.41 85.6751 228.595 85.2686C229.221 83.892 228.526 82.3055 227.842 80.9572L226.88 79.0633ZM190.163 108.033C190.198 108.543 190.728 108.925 191.239 108.911C191.751 108.897 192.211 108.566 192.51 108.15C192.809 107.735 192.973 107.24 193.133 106.754L193.66 105.149C193.807 104.701 193.816 104.017 193.348 103.964C193.179 103.945 193.018 104.035 192.879 104.133C192.354 104.506 191.972 105.042 191.6 105.568L190.587 106.999C190.368 107.309 190.138 107.653 190.163 108.033ZM69.3257 103.748C65.7663 97.2307 63.494 90.014 62.6776 82.6333C62.6274 82.1795 62.1269 81.8855 61.6706 81.9013C61.2143 81.9171 60.7999 82.1582 60.4118 82.3988C54.9021 85.8148 50.212 90.5431 46.8408 96.0803C46.4995 96.6408 46.1631 97.236 46.12 97.8908C46.0777 98.5334 46.3231 99.1568 46.5759 99.7491C50.2948 108.462 56.4963 115.852 62.7916 122.931C67.6402 128.383 72.8306 133.902 79.5912 136.646C80.6838 137.09 82.2709 137.271 82.7342 136.186C82.8689 135.871 82.8617 135.516 82.8547 135.172L82.8545 135.159C82.78 131.483 83.1977 127.797 84.0931 124.231C84.3003 123.406 84.4079 122.293 83.6361 121.936C80.7334 120.59 78.7439 117.878 76.8836 115.275C74.2101 111.535 71.5295 107.783 69.3257 103.748ZM75.6094 132.235C75.2095 132.341 74.8102 132.089 74.4763 131.845C68.3233 127.336 63.555 121.235 58.8701 115.215L50.6024 104.592C51.998 103.704 52.1751 101.772 52.2056 100.118C52.2451 97.9679 52.274 95.754 51.4972 93.7485C51.3246 93.3028 51.5493 92.8088 51.79 92.3958C52.8223 90.6245 54.2539 89.0875 55.9475 87.9321C56.1115 87.8203 56.285 87.7091 56.4816 87.6814C57.0002 87.6081 57.3981 88.1125 57.6752 88.557C58.7698 90.3123 60.2742 92.2973 62.3378 92.1528C63.1235 92.0978 63.5593 93.0233 63.7885 93.7769C66.639 103.148 71.9909 111.6 78.2672 119.121C79.0828 120.098 79.2874 121.417 79.4902 122.724C79.7163 124.181 79.9401 125.624 81.0063 126.561C81.9166 127.361 81.7477 128.798 81.502 129.984C81.4517 130.227 81.3919 130.487 81.2074 130.653C81.0704 130.776 80.8853 130.827 80.7073 130.875L75.6094 132.235ZM61.0224 89.982C59.8937 89.1933 58.9187 88.1855 58.1678 87.0313C58.0053 86.7816 57.8476 86.5018 57.8761 86.2053C57.9071 85.8829 58.1496 85.6249 58.391 85.409C58.9869 84.8756 59.6605 84.4291 60.3838 84.0879C60.6486 83.9629 60.9906 83.8614 61.2107 84.0547C61.3402 84.1685 61.3811 84.3503 61.4149 84.5194L62.4575 89.7334C62.5191 90.0417 62.1958 90.3193 61.8816 90.3282C61.5674 90.3372 61.2801 90.162 61.0224 89.982ZM50.7055 100.067C50.6834 101.048 50.6084 102.148 49.8735 102.798C49.7196 102.816 49.6175 102.647 49.5572 102.505C49.0277 101.251 48.4908 99.9673 48.4074 98.609C48.324 97.2508 48.7792 95.7799 49.8891 94.9926C50.0393 94.886 50.2596 94.7981 50.3922 94.9259C50.4455 94.9772 50.4682 95.0518 50.4877 95.1232C50.7893 96.2318 50.7656 97.3994 50.7397 98.5481L50.7055 100.067ZM80.6576 132.689C80.8358 132.835 80.8548 133.096 80.8597 133.326L80.9127 135.847C79.8786 135.274 78.8879 134.622 77.9518 133.9C77.7743 133.763 77.5793 133.541 77.688 133.345C77.7419 133.248 77.8539 133.201 77.9582 133.162C78.6274 132.916 79.3192 132.731 80.0222 132.61C80.2395 132.573 80.487 132.549 80.6576 132.689ZM80.717 122.759C80.7076 122.645 80.7076 122.521 80.7752 122.429C80.9538 122.187 81.3414 122.406 81.5052 122.659C81.8997 123.268 81.9868 124.066 81.733 124.746C81.1536 124.25 80.7803 123.52 80.717 122.759ZM234.748 103.618C235.779 102.32 237.658 102.133 239.315 102.173C239.702 102.183 240.1 102.202 240.453 102.362C241.433 102.809 241.641 104.09 241.674 105.167C241.704 106.146 241.699 107.139 241.461 108.09C241.222 109.041 240.73 109.957 239.942 110.54C239.588 110.803 239.178 110.994 238.743 111.067C238.072 111.179 237.384 111.007 236.746 110.769C235.896 110.453 235.089 110.018 234.357 109.482C234 109.22 233.631 108.877 233.619 108.434C233.592 107.412 233.707 106.386 233.958 105.395C234.119 104.762 234.342 104.129 234.748 103.618ZM237.421 110.083C238.744 110.462 240.152 109.439 240.653 108.156C241.155 106.874 240.969 105.434 240.693 104.085C240.588 103.567 240.034 103.278 239.524 103.139C238.734 102.925 237.895 102.897 237.092 103.057C236.694 103.137 236.286 103.273 236.006 103.569C235.854 103.729 235.748 103.928 235.645 104.124L234.87 105.589C234.733 105.847 234.596 106.107 234.516 106.387C234.276 107.225 234.593 108.156 235.178 108.803C235.764 109.449 236.583 109.842 237.421 110.083ZM219.709 124.898C220.923 125.321 222.022 126.066 222.866 127.036C223.591 127.869 224.144 128.951 223.991 130.045C223.935 130.447 223.787 130.83 223.618 131.198C222.978 132.595 221.877 133.933 220.365 134.203C219.572 134.345 218.754 134.175 217.991 133.915C217.109 133.615 216.268 133.194 215.499 132.668C215.091 132.389 214.686 132.057 214.507 131.597C214.384 131.279 214.38 130.929 214.385 130.589C214.396 129.746 214.452 128.889 214.746 128.1C215.117 127.1 215.845 126.276 216.616 125.54C216.926 125.244 217.255 124.952 217.653 124.793C218.305 124.534 219.047 124.667 219.709 124.898ZM220.95 132.241C221.827 131.373 222.337 130.115 222.198 128.889C222.059 127.664 221.229 126.513 220.069 126.095C219.587 125.921 219.052 125.872 218.558 126.009C218.291 126.083 218.041 126.208 217.808 126.357C216.809 126.992 216.107 128.076 215.937 129.247C215.767 130.419 216.131 131.657 216.907 132.551C217.405 133.123 218.216 133.368 218.969 133.273C219.721 133.178 220.411 132.774 220.95 132.241ZM110.194 117.671C110.153 117.093 109.381 116.942 108.801 116.959C105.76 117.048 102.723 117.276 99.7032 117.641C99.207 117.701 99.167 118.501 99.5651 118.803C99.9632 119.105 100.518 119.049 101.013 118.979L110.194 117.671ZM100.473 121.58C100.499 121.282 100.873 121.174 101.17 121.141L119.081 119.112C119.405 119.076 119.751 119.042 120.042 119.188C120.334 119.334 120.521 119.733 120.331 119.998C120.191 120.193 119.922 120.233 119.682 120.256L101.363 122.034C100.982 122.071 100.44 121.961 100.473 121.58ZM140.627 124.597C139.625 124.817 138.596 124.455 137.635 124.096C134.528 122.935 131.432 121.741 128.35 120.516C127.105 120.021 125.739 120.762 124.62 121.497C121.381 123.625 118.263 125.937 115.284 128.416C114.519 129.053 113.342 128.607 112.571 127.977C112.408 127.844 112.247 127.702 112.086 127.56C111.485 127.029 110.877 126.491 110.099 126.381C108.905 126.211 107.853 127.117 106.988 127.958L101.405 133.38C100.654 134.109 99.8638 135.277 100.532 136.082C100.973 136.614 101.782 136.587 102.468 136.507C106.049 136.092 109.612 135.51 113.174 134.928L113.175 134.928L113.175 134.928L113.175 134.928L113.175 134.928L113.175 134.928L113.176 134.928L113.176 134.928L113.176 134.928L113.176 134.928L113.176 134.928L113.177 134.928L113.177 134.928L113.177 134.928C119.065 133.966 124.95 133.005 130.905 132.799C132.225 132.753 133.546 132.745 134.866 132.736L134.869 132.736C135.695 132.731 136.521 132.726 137.347 132.711C141.076 132.646 144.802 132.395 148.506 131.959C148.685 131.938 148.889 131.901 148.982 131.746C149.053 131.629 149.035 131.482 149.015 131.347L147.446 120.672C147.366 120.129 147.227 119.503 146.731 119.268C146.231 119.031 145.641 119.337 145.23 119.708C144.586 120.289 144.091 121.061 143.602 121.822C142.8 123.071 142.016 124.291 140.627 124.597ZM115.147 130.438C118.498 127.683 121.992 125.102 125.611 122.709C126.354 122.217 127.257 121.714 128.087 122.037L136.861 125.446C138.325 126.015 139.927 126.591 141.43 126.135C143.177 125.605 144.222 123.866 145.102 122.266C145.273 121.955 145.771 121.991 146.018 122.246C146.264 122.502 146.327 122.878 146.377 123.23L147.019 127.682C147.118 128.365 147.215 129.075 147.017 129.737C146.82 130.398 146.24 130.999 145.549 130.986C134.255 130.768 122.94 131.699 111.834 133.761C111.49 133.825 111.146 133.89 110.802 133.954L110.801 133.955C108.148 134.456 105.485 134.958 102.789 134.967C104.091 133.123 105.741 131.557 107.379 130.004C108.278 129.151 109.403 128.231 110.611 128.51C111.263 128.661 111.763 129.129 112.261 129.596C112.42 129.745 112.58 129.894 112.744 130.033C113.419 130.603 114.465 131 115.147 130.438ZM260.038 161.493C259.738 161.605 259.404 161.529 259.099 161.433C257.034 160.784 255.357 159.332 253.708 157.905L253.707 157.904L253.442 157.674C253.34 157.587 253.239 157.499 253.137 157.412L253.039 157.329C250.308 154.999 247.344 152.942 244.206 151.199C243.886 151.022 243.551 150.835 243.356 150.527C243.16 150.218 243.166 149.749 243.468 149.543C244.875 148.582 245.788 146.933 245.855 145.23C245.873 144.777 246.385 144.474 246.838 144.51C247.291 144.547 247.685 144.819 248.056 145.082L262.396 155.261C262.675 155.459 262.976 155.689 263.044 156.025C263.1 156.298 262.985 156.575 262.87 156.83C262.251 158.194 261.54 159.517 260.743 160.786C260.562 161.073 260.356 161.375 260.038 161.493ZM245.691 149.417C245.522 149.715 245.377 150.145 245.65 150.35L257.352 159.162C257.993 159.644 258.989 160.096 259.493 159.473C260.073 158.757 260.614 158.01 261.114 157.236C261.251 157.024 261.39 156.782 261.341 156.535C261.296 156.309 261.106 156.146 260.927 156.001C256.633 152.518 252.086 149.348 247.333 146.521L245.691 149.417ZM239.867 154.806C240.056 154.482 240.285 154.127 240.652 154.047C240.932 153.986 241.218 154.107 241.476 154.232C242.885 154.916 244.176 155.844 245.273 156.961C245.538 157.23 245.57 157.663 245.453 158.021C245.335 158.379 245.093 158.68 244.855 158.973C244.473 159.443 244.067 159.933 243.503 160.156C242.895 160.397 242.188 160.28 241.612 159.97C241.037 159.66 240.575 159.175 240.167 158.664C239.636 157.997 239.16 157.196 239.243 156.347C239.297 155.791 239.585 155.289 239.867 154.806ZM242.331 158.542C243.218 158.886 243.785 158.613 243.808 158.032C243.822 157.665 243.503 157.383 243.212 157.159L242.331 156.482C242.04 156.258 241.72 156.024 241.353 156.026C240.986 156.029 240.612 156.407 240.762 156.742C240.74 156.904 241.445 158.197 242.331 158.542ZM238.833 165.696C239.049 165.814 239.278 165.93 239.525 165.935C239.771 165.94 240.038 165.801 240.099 165.562C240.241 165.001 240.612 164.536 240.975 164.082L240.976 164.079C241.015 164.03 241.055 163.982 241.093 163.933C241.491 163.429 241.875 162.859 241.885 162.218C241.896 161.576 241.365 160.893 240.729 160.98C240.228 161.049 239.763 160.721 239.399 160.37C239.341 160.314 239.284 160.257 239.226 160.199L239.226 160.199C238.921 159.895 238.612 159.587 238.208 159.455C237.728 159.299 237.073 159.548 237.035 160.052C236.958 161.067 236.115 161.831 235.332 162.482C235.098 162.677 235.309 163.051 235.529 163.263C236.515 164.216 237.63 165.037 238.833 165.696ZM238.99 163.762L237.448 162.719C237.057 162.454 237.088 161.804 237.437 161.485C237.787 161.166 238.33 161.142 238.775 161.302C239.221 161.461 239.591 161.775 239.951 162.082C240.189 162.285 240.222 162.655 240.113 162.949C240.004 163.242 239.782 163.478 239.566 163.704C239.492 163.782 239.409 163.864 239.303 163.878C239.19 163.892 239.084 163.825 238.99 163.762ZM251.208 163.831L251.962 162.229C252.193 161.739 252.416 161.132 252.105 160.689C251.997 160.535 251.837 160.426 251.681 160.321L248.939 158.473C248.643 158.274 248.323 158.067 247.966 158.073C247.544 158.079 247.19 158.381 246.89 158.679C246.44 159.124 246.02 159.599 245.633 160.1C245.338 160.481 245.096 161.107 245.499 161.372L249.694 164.125C250.026 164.342 250.446 164.565 250.794 164.376C250.998 164.265 251.109 164.041 251.208 163.831ZM250.279 162.697C250.102 162.738 249.918 162.693 249.745 162.641C248.686 162.321 247.716 161.71 246.972 160.892C246.724 160.62 246.864 160.139 247.179 159.949C247.494 159.758 247.903 159.802 248.242 159.944C248.461 160.036 248.662 160.164 248.862 160.293L248.863 160.293C248.973 160.363 249.083 160.434 249.196 160.498C249.317 160.567 249.444 160.631 249.571 160.695L249.572 160.695C249.932 160.875 250.293 161.056 250.539 161.369C250.872 161.792 250.803 162.577 250.279 162.697ZM251.696 164.486C252.179 164.371 252.327 163.878 252.481 163.365C252.608 162.942 252.738 162.505 253.066 162.257C253.63 161.831 254.429 162.187 255.037 162.549L256.97 163.699C257.278 163.882 257.593 164.072 257.814 164.354C258.035 164.636 258.143 165.036 257.989 165.359C257.886 165.575 257.691 165.718 257.494 165.862C257.333 165.98 257.171 166.099 257.058 166.26C256.913 166.466 256.859 166.724 256.805 166.979C256.738 167.299 256.672 167.614 256.428 167.815C255.983 168.181 255.322 167.888 254.83 167.587L252.107 165.923C251.832 165.755 251.542 165.571 251.407 165.279C251.273 164.986 251.383 164.56 251.696 164.486ZM255.266 166.138C255.655 166.005 255.969 165.716 256.27 165.434C256.488 165.23 256.196 164.894 255.936 164.748L254.268 163.809C254.094 163.711 253.851 163.621 253.716 163.769C253.282 164.243 253.219 165.017 253.571 165.555C253.923 166.093 254.657 166.346 255.266 166.138ZM236.125 166.079C235.752 165.974 235.371 165.867 235.066 165.659C234.593 165.336 233.933 165.414 233.436 165.7C232.939 165.985 232.568 166.443 232.209 166.89C232.01 167.138 231.806 167.397 231.73 167.706C231.654 168.015 231.744 168.389 232.022 168.544L234.932 170.166C235.152 170.289 235.398 170.416 235.644 170.361C235.889 170.307 236.058 170.089 236.206 169.886L236.955 168.856C237.371 168.282 237.807 167.552 237.502 166.912C237.258 166.399 236.699 166.241 236.125 166.079ZM235.204 168.747C235.052 168.788 234.896 168.714 234.756 168.643L232.774 167.634C233.155 167.095 233.879 166.888 234.537 166.953C235.194 167.019 235.804 167.311 236.398 167.598L235.487 168.544C235.406 168.629 235.318 168.717 235.204 168.747ZM221.473 128.414C221.78 128.882 221.684 129.507 221.48 130.029C221.212 130.715 220.758 131.352 220.118 131.717C219.477 132.083 218.636 132.136 218.012 131.743C217.388 131.351 217.074 130.477 217.409 129.82C217.486 129.668 217.592 129.533 217.697 129.399C217.798 129.27 217.899 129.141 217.976 128.997C218.026 128.902 218.065 128.801 218.104 128.701C218.161 128.556 218.217 128.411 218.306 128.284C218.624 127.834 219.25 127.746 219.8 127.754C220.425 127.763 221.13 127.892 221.473 128.414ZM220.079 128.711C219.224 128.701 218.422 129.417 218.338 130.268C218.303 130.615 218.451 131.047 218.797 131.095C219.056 131.131 219.283 130.931 219.458 130.736C219.826 130.322 220.143 129.863 220.398 129.371C220.483 129.206 220.559 128.995 220.446 128.847C220.364 128.739 220.214 128.713 220.079 128.711ZM240.519 106.422C240.453 105.639 239.929 104.87 239.169 104.674C238.203 104.425 237.267 105.105 236.5 105.743C236.273 105.932 236.036 106.135 235.94 106.414C235.777 106.887 236.07 107.386 236.359 107.795C236.69 108.263 237.043 108.734 237.526 109.044C238.009 109.353 238.652 109.473 239.159 109.204C239.417 109.067 239.618 108.843 239.792 108.609C240.261 107.979 240.585 107.205 240.519 106.422ZM238.376 108.428C238.049 108.477 237.709 108.345 237.469 108.118C237.107 107.778 236.964 107.232 237.09 106.752C237.223 106.247 237.647 105.83 238.154 105.705C238.661 105.581 239.23 105.754 239.582 106.14C239.569 106.245 239.558 106.351 239.547 106.457C239.509 106.817 239.472 107.177 239.347 107.515C239.186 107.953 238.838 108.359 238.376 108.428ZM212.375 230.494C214.156 224.193 217.519 218.474 220.847 212.836C221.409 211.882 222.107 210.833 223.198 210.652C223.629 210.581 223.856 210.113 224.002 209.702C225.807 204.639 225.981 199.009 224.492 193.844C224.067 192.37 224.591 190.807 225.108 189.363L229.117 178.181C228.7 177.46 227.912 177.143 227.113 176.822C226.445 176.554 225.77 176.283 225.299 175.769C223.968 174.319 224.972 172.013 226.014 170.344L244.284 141.085C245.03 139.891 246.667 139.516 248.04 139.834C249.412 140.153 250.584 141.016 251.712 141.859L265.037 151.812C267.421 153.592 270.052 155.867 269.915 158.839C269.839 160.483 268.898 161.945 267.988 163.317L257.428 179.23C256.062 181.287 255.896 183.789 255.73 186.302C255.655 187.438 255.579 188.577 255.393 189.679C254.482 195.051 250.904 199.5 247.476 203.763L247.474 203.766C247.338 203.935 247.202 204.104 247.067 204.273C243.519 208.691 239.969 213.625 239.77 219.288C239.532 226.038 236.326 232.63 231.162 236.984L235.656 226.084C236.724 223.492 237.714 220.267 235.925 218.107C235.116 217.13 233.893 216.613 232.72 216.131L225.742 213.268C225.26 213.071 224.764 212.87 224.244 212.867C222.623 212.857 221.659 214.616 221.001 216.098C218.727 221.224 215.823 226.071 212.375 230.494ZM235.32 215.691C236.517 216.134 238.201 216.403 238.768 215.26C241.513 209.728 244.332 204.09 248.7 199.725C251.217 197.21 252.761 193.853 253.634 190.403C254.507 186.952 254.754 183.379 254.998 179.828C253.938 180.214 253.846 181.645 253.85 182.773C253.86 185.259 253.425 187.747 252.573 190.083C252.394 190.572 252.155 191.1 251.677 191.307C251.199 191.513 250.495 191.099 250.656 190.604C251.888 186.804 252.348 182.755 251.998 178.776C251.889 177.542 251.659 176.222 250.782 175.348C250.877 177.296 250.973 179.253 250.775 181.193C250.434 184.55 249.23 187.751 248.037 190.908C247.882 191.317 247.695 191.764 247.301 191.957C246.907 192.149 246.297 191.844 246.4 191.418L248.186 184.033C249.169 179.972 250.135 175.604 248.614 171.712C247.848 171.661 247.668 172.756 247.736 173.52C248.204 178.757 246.757 183.955 245.323 189.014C245.156 189.605 244.564 190.343 244.104 189.937C243.905 189.762 243.896 189.46 243.912 189.196C244.002 187.708 244.41 186.268 244.818 184.829L244.818 184.829L244.818 184.828C244.944 184.382 245.071 183.936 245.187 183.489C246.264 179.363 246.539 175.03 245.992 170.801C245.048 172.011 244.647 173.545 244.27 175.032L242.027 183.859C241.013 187.85 239.718 192.236 236.203 194.38C235.923 194.551 235.598 194.709 235.279 194.634C234.883 194.54 234.658 194.13 234.493 193.758C232.249 188.704 231.969 182.809 233.723 177.566C233.829 177.248 233.506 176.915 233.171 176.889C232.837 176.863 232.523 177.045 232.249 177.238C229.371 179.269 228.269 182.948 227.353 186.349L226.136 190.872C225.958 191.533 225.779 192.199 225.742 192.882C225.686 193.92 225.957 194.936 226.227 195.947L226.227 195.947C226.289 196.181 226.352 196.415 226.41 196.649C227.581 201.347 227.052 206.451 224.942 210.809C224.631 211.452 225.452 212.037 226.122 212.285L235.32 215.691ZM239.867 172.527C239.387 172.196 238.873 171.819 238.725 171.255C238.497 170.391 239.32 169.523 240.206 169.407C241.092 169.291 241.959 169.718 242.693 170.228C243.728 170.945 245.037 169.851 245.811 168.859C244.767 168.234 243.77 167.264 243.729 166.047C243.688 164.83 245.167 163.672 246.151 164.388C246.533 164.665 246.995 164.835 247.453 165.004C248.137 165.255 248.81 165.503 249.186 166.103C249.613 166.785 249.461 167.707 249.026 168.384C248.592 169.061 247.922 169.547 247.269 170.017C248.207 170.11 249.12 170.444 249.896 170.979L250.742 168.514C250.808 168.323 250.879 168.123 251.029 167.988C251.319 167.728 251.77 167.809 252.142 167.926C253.116 168.236 254.071 168.718 254.714 169.512C255.357 170.307 255.624 171.461 255.175 172.378C254.726 173.296 253.458 173.786 252.599 173.232C252.421 173.117 252.242 172.964 252.063 172.811C251.584 172.4 251.105 171.99 250.643 172.318C252.054 173.417 253.024 175.069 253.296 176.837C257.739 170.069 262.134 163.269 266.482 156.439C266.897 155.787 267.231 154.76 266.556 154.385C263.669 152.783 261.117 150.638 258.571 148.498C255.357 145.797 252.154 143.104 248.298 141.523C248.053 141.423 247.786 141.325 247.53 141.393C247.262 141.464 247.073 141.697 246.905 141.917C239.724 151.289 233.28 161.224 227.651 171.602C226.866 173.05 227.917 174.776 228.922 176.08C229.425 176.732 230.394 177.421 230.942 176.807C231.633 176.033 232.765 175.59 233.743 175.936C234.721 176.281 235.329 177.553 234.797 178.444C234.413 179.088 235.166 179.804 235.824 180.164C237.138 180.884 238.487 181.542 239.863 182.136C240.054 182.218 240.277 182.299 240.463 182.206C240.641 182.117 240.713 181.906 240.768 181.715L242.293 176.469C242.544 175.606 242.712 174.486 241.972 173.976L239.867 172.527ZM267.144 157.82C266.942 157.75 266.757 157.953 266.638 158.131L255.221 175.221C254.914 175.681 254.599 176.159 254.509 176.704C254.42 177.25 254.62 177.884 255.117 178.127C255.939 178.529 256.799 177.684 257.327 176.936L267.935 161.902C268.722 160.786 268.056 159.26 267.382 158.071C267.323 157.969 267.256 157.858 267.144 157.82ZM234.999 180.641C234.799 180.495 234.498 180.582 234.33 180.765C234.161 180.948 234.093 181.199 234.029 181.439C233.873 182.031 233.716 182.628 233.693 183.24C233.67 183.852 233.781 184.459 233.892 185.061L234.985 191.004C235.031 191.253 235.085 191.518 235.261 191.7C235.438 191.881 235.782 191.921 235.925 191.712C237.544 189.345 239.185 186.932 240.031 184.193C240.136 183.852 240.167 183.374 239.833 183.248C238.115 182.601 236.484 181.722 234.999 180.641ZM247.625 165.978C247.077 165.456 246.353 165.122 245.6 165.046C244.914 164.976 244.517 165.94 244.831 166.554C245.144 167.169 245.836 167.474 246.477 167.73C246.929 167.912 247.477 168.082 247.871 167.796C248.438 167.385 248.132 166.461 247.625 165.978ZM243.118 172.864C243.341 172.705 243.37 172.38 243.308 172.114C243.072 171.108 241.969 170.594 240.979 170.299C240.596 170.185 240.119 170.106 239.849 170.4C239.624 170.646 239.672 171.054 239.866 171.325C240.061 171.596 240.365 171.763 240.659 171.922L242.188 172.745C242.479 172.902 242.849 173.056 243.118 172.864ZM251.821 169.239C251.497 169.672 251.53 170.303 251.801 170.772C252.071 171.241 252.539 171.566 253.032 171.788C253.202 171.864 253.387 171.931 253.569 171.895C253.726 171.864 253.86 171.758 253.955 171.63C254.309 171.158 254.137 170.447 253.732 170.018C253.328 169.589 252.752 169.374 252.197 169.173C252.102 169.139 251.99 169.105 251.903 169.158C251.889 169.166 251.877 169.176 251.866 169.187C251.849 169.203 251.835 169.221 251.821 169.239ZM98.4183 208.545C98.6301 206.98 98.9268 205.258 100.157 204.267C101.137 203.476 102.483 203.35 103.742 203.326C107.867 203.247 112.005 203.916 115.895 205.293C117.125 205.729 118.413 206.302 119.086 207.421C119.814 208.631 119.636 210.158 119.435 211.557L116.311 233.258C118.465 226.973 120.011 220.481 120.922 213.9C121.346 210.83 121.495 207.307 119.352 205.067C116.007 201.572 116.098 196.592 116.191 191.529C116.271 187.16 116.352 182.728 114.227 179.134C113.533 177.961 115.079 176.75 116.365 176.3C122.033 174.316 128.075 173.405 134.077 173.631C135.177 182.322 135.475 191.115 134.965 199.861C134.85 201.822 137.632 202.328 139.585 202.112L207.33 194.6C207.669 194.562 208.036 194.512 208.276 194.27C208.556 193.987 208.57 193.544 208.566 193.145C208.406 177.273 207.95 161.403 207.196 145.548C207.167 144.929 207.088 144.218 206.576 143.87C206.192 143.609 205.686 143.643 205.224 143.688L156.87 148.376C160.047 133.394 163.241 118.131 161.793 102.885C151.222 109.932 137.582 109.879 124.9 109.133C124.373 109.102 123.845 109.071 123.315 109.039C111.11 108.309 98.3825 107.549 87.4102 112.828C93.1553 128.061 98.9662 144.688 94.1907 160.252C93.7682 161.628 93.2655 162.981 92.763 164.333C91.9883 166.417 91.2141 168.5 90.7353 170.669C89.946 174.244 90.0647 178.246 92.1803 181.234C95.2438 185.56 97.6782 190.48 98.2335 195.752C98.7604 200.755 97.5831 205.717 96.407 210.673C95.1782 215.851 93.9509 221.023 94.6706 226.23C94.7923 227.111 95.0123 228.059 95.7019 228.62L98.4183 208.545ZM103.211 145.677C104.492 145.722 105.002 147.331 105.165 148.602L106.463 158.67C103.93 157.357 100.367 159.585 100.44 162.437C98.3059 158.318 97.9816 153.597 97.6607 148.924C97.5909 147.908 97.5212 146.894 97.4331 145.888C96.4908 135.137 93.2508 124.739 90.0307 114.438C89.5716 112.969 91.5548 112.017 93.0774 111.793C103.069 110.329 113.182 110.531 123.299 110.733C127.885 110.825 132.472 110.917 137.049 110.853C145.181 110.74 153.787 109.971 160.384 105.213C161.866 115.098 159.851 125.071 157.861 134.918C157.592 136.25 157.323 137.58 157.064 138.907C154.886 150.044 153.403 161.914 157.57 172.469C157.746 172.913 157.147 173.249 156.679 173.346C153.252 174.061 149.708 174.215 146.231 173.8C144.74 173.622 143.264 173.341 141.788 173.06C140.677 172.848 139.565 172.636 138.447 172.468C130.026 171.205 121.236 172.516 113.551 176.183C113.243 176.33 112.876 176.261 112.554 176.149C110.997 175.61 109.887 174.172 109.333 172.621C108.779 171.07 108.7 169.396 108.626 167.751L108.316 160.849C108.305 160.601 108.369 160.265 108.618 160.257C122.08 159.836 135.528 158.929 148.925 157.536C148.359 154.367 148.303 151.106 148.76 147.919C149.048 145.907 147.156 144.072 145.141 143.803C143.126 143.533 141.134 144.446 139.461 145.601C138.835 146.033 138.234 146.502 137.633 146.971C136.628 147.756 135.624 148.539 134.506 149.147C133.775 149.544 132.895 149.865 132.127 149.544C131.186 149.151 130.871 148.032 130.59 147.034C130.572 146.971 130.554 146.909 130.537 146.847C130.17 145.561 129.565 144.281 128.5 143.473C127.435 142.664 125.828 142.462 124.777 143.289C123.878 143.996 123.594 145.22 123.443 146.353C123.43 146.454 123.417 146.555 123.404 146.657C123.27 147.699 123.133 148.776 122.511 149.611C121.828 150.529 120.305 150.922 119.556 150.058C118.076 148.349 115.478 147.99 113.298 148.59C111.117 149.19 109.252 150.575 107.443 151.932C106.352 150.224 106.262 147.925 107.216 146.137L107.232 146.107C107.411 145.772 107.617 145.386 107.459 145.044C107.36 144.832 107.144 144.703 106.929 144.611C105.646 144.061 104.008 144.531 103.211 145.677ZM141.76 174.536C142.477 174.679 143.359 174.999 143.403 175.729C143.826 182.691 149.359 188.948 156.162 190.489C162.965 192.03 170.504 188.913 174.471 183.176C178.437 177.438 178.748 169.468 175.495 163.297C172.007 156.68 163.53 153.166 156.383 155.374C156.051 153.912 156.089 152.367 156.491 150.923C156.565 150.655 156.663 150.374 156.879 150.199C157.091 150.028 157.376 149.989 157.647 149.957L177.78 147.532C179.55 147.318 181.324 147.105 183.107 147.09C190.773 147.027 198.433 146.263 205.961 144.81C207.131 160.516 207.681 176.268 207.611 192.018C207.607 192.765 207.38 193.758 206.633 193.78C193.962 194.149 181.391 195.816 168.816 197.483C160.366 198.603 151.915 199.724 143.43 200.451C141.538 200.613 139.634 200.756 137.744 200.576C137.402 200.543 137.015 200.473 136.829 200.184C136.717 200.009 136.704 199.791 136.695 199.584L135.565 174.392C135.551 174.067 135.57 173.675 135.852 173.511C136.039 173.403 136.273 173.442 136.485 173.484L141.76 174.536ZM107.094 168.704C106.894 170.012 106.669 171.484 107.526 172.474C110.723 176.166 114.045 180.111 114.894 184.921C115.291 187.167 115.121 189.479 114.951 191.781C114.737 194.681 114.524 197.566 115.448 200.286C115.472 200.357 115.497 200.428 115.522 200.5C115.691 200.985 115.864 201.479 115.809 201.985C115.746 202.566 115.242 203.15 114.666 203.051L107.983 201.898C105.769 201.517 103.431 201.145 101.328 201.935C100.922 202.088 100.454 201.82 100.236 201.444C100.018 201.069 99.9894 200.616 99.9705 200.183C99.9477 199.659 99.9305 199.131 99.9134 198.602C99.8054 195.275 99.6954 191.885 98.1553 188.97L93.2413 179.668C92.5159 178.294 91.7736 176.86 91.7235 175.308C91.6901 174.271 91.9699 173.253 92.2473 172.254L94.6987 163.423C95.2149 161.564 95.7609 159.646 96.9831 158.153C99.9523 163.191 100.245 169.708 97.7401 174.991C97.5083 175.48 98.2163 175.983 98.7209 175.788C99.2256 175.594 99.4818 175.041 99.6597 174.53C100.372 172.484 100.622 170.327 100.872 168.166C101.075 166.419 101.278 164.669 101.726 162.974C102 161.936 102.397 160.876 103.198 160.161C104 159.447 105.307 159.202 106.148 159.871C106.791 160.383 107 161.258 107.122 162.071C107.444 164.215 107.443 166.408 107.117 168.552C107.11 168.602 107.102 168.653 107.094 168.704ZM118.627 151.271C119.612 152.025 120.577 152.763 121.759 152.626C123.262 152.453 124.198 150.906 124.634 149.458C124.73 149.141 124.815 148.816 124.9 148.491C125.204 147.331 125.51 146.161 126.306 145.288C126.538 145.035 126.871 144.798 127.199 144.898C127.466 144.978 127.621 145.248 127.744 145.497C127.92 145.85 128.085 146.209 128.251 146.569C128.719 147.581 129.187 148.595 129.866 149.475C130.786 150.667 132.217 151.605 133.714 151.441C135.052 151.294 136.098 150.346 137.118 149.422C137.327 149.233 137.534 149.045 137.743 148.864C140.199 146.747 143.396 145.508 146.637 145.419C146.2 146.512 146.491 147.703 146.777 148.873C146.846 149.154 146.915 149.434 146.973 149.712C147.43 151.899 147.199 154.225 146.32 156.279L124.674 157.946C119.621 158.335 114.555 158.724 109.49 158.546C109.17 158.535 108.842 158.519 108.548 158.393C107.992 158.155 107.662 157.562 107.542 156.969C107.274 155.64 107.887 154.256 108.815 153.268C109.743 152.279 110.955 151.614 112.145 150.965C113.384 150.289 114.759 149.591 116.14 149.879C117.059 150.071 117.849 150.676 118.627 151.271ZM159.615 182.802C156.336 182.734 153.495 180.059 152.521 176.927C152.323 176.287 152.736 175.586 153.306 175.235C153.876 174.884 154.566 174.801 155.232 174.726L160.037 174.186C158.576 171.346 157.535 168.29 156.959 165.149C156.907 164.864 156.859 164.564 156.949 164.289C157.107 163.805 157.628 163.551 158.111 163.389C162.014 162.077 166.702 163.67 168.997 167.089C171.293 170.508 170.992 175.45 168.298 178.565C167.131 179.914 165.603 180.909 163.992 181.675C162.619 182.328 161.136 182.833 159.615 182.802ZM175.176 165.921C175.76 167.848 175.928 169.875 176.008 171.886C174.698 171.688 173.375 171.575 172.05 171.549C171.791 168.166 169.539 165.109 166.578 163.45C163.618 161.792 160.044 161.434 156.699 162.002C156.67 161.525 156.583 161.027 156.496 160.529C156.267 159.216 156.038 157.903 156.887 156.97C157.4 156.407 158.181 156.182 158.93 156.043C162.341 155.407 165.977 156.073 168.942 157.875C171.906 159.678 174.171 162.601 175.176 165.921ZM151.126 176.585C151.121 176.648 151.115 176.709 151.113 176.768C151.091 177.235 151.308 177.664 151.524 178.089C151.582 178.203 151.64 178.316 151.692 178.43C151.942 178.968 152.063 179.677 151.646 180.099C150.635 181.119 149.742 182.256 148.989 183.479C148.803 183.782 148.345 183.807 148.039 183.626C147.733 183.446 147.544 183.124 147.367 182.816C146.248 180.866 145.102 178.826 144.963 176.583C144.945 176.304 144.976 175.966 145.223 175.836C145.332 175.779 145.461 175.777 145.584 175.777L150.586 175.762C150.705 175.761 150.831 175.762 150.935 175.821C151.18 175.961 151.152 176.285 151.126 176.585Z" fill="#00160A"/>
</svg>
