<svg width="104" height="28" viewBox="0 0 104 28" fill="none" xmlns="http://www.w3.org/2000/svg">
<g clip-path="url(#clip0_3851_7541)">
<path d="M29.9199 0.761963H46.7142C48.1375 0.761963 49.35 1.1627 50.3546 1.96417C51.3593 2.76565 51.8617 3.7341 51.8617 4.86952V12.9389C51.8617 14.0743 51.3593 15.0428 50.3546 15.8443C49.35 16.6457 48.1375 17.0465 46.7142 17.0465H29.9199V0.761963ZM34.8162 4.24413V13.5643H45.1762C45.6785 13.5643 46.1033 13.4277 46.4475 13.1514C46.7917 12.8752 46.9654 12.5382 46.9654 12.1374V5.67403C46.9654 5.27329 46.7917 4.93631 46.4475 4.66004C46.1033 4.38378 45.6785 4.24716 45.1762 4.24716H34.8162V4.24413Z" fill="#0F3746"/>
<path d="M64.3549 0.761963H69.2512L80.4887 17.0495H75.1831L73.0156 13.7677H60.5843L58.4198 17.0495H53.1143L64.3549 0.761963ZM66.8046 4.42021L62.5347 10.8836H71.0745L66.8046 4.42021Z" fill="#0F3746"/>
<path d="M87.2051 0.761963H98.8519C100.275 0.761963 101.488 1.1627 102.492 1.96417C103.497 2.76565 103.999 3.7341 103.999 4.86952V12.9389C103.999 14.0743 103.497 15.0428 102.492 15.8443C101.488 16.6457 100.275 17.0465 98.8519 17.0465H87.2051C85.7818 17.0465 84.5693 16.6457 83.5646 15.8443C82.56 15.0428 82.0576 14.0743 82.0576 12.9389V4.86952C82.0576 3.7341 82.56 2.76565 83.5646 1.96417C84.5693 1.1627 85.7818 0.761963 87.2051 0.761963ZM88.7431 4.24413C88.2407 4.24413 87.8159 4.38074 87.4717 4.65701C87.1275 4.93327 86.9539 5.27026 86.9539 5.67099V12.1344C86.9539 12.5351 87.1275 12.8721 87.4717 13.1484C87.8159 13.4247 88.2407 13.5613 88.7431 13.5613H97.3139C97.8162 13.5613 98.241 13.4247 98.5852 13.1484C98.9294 12.8721 99.1031 12.5351 99.1031 12.1344V5.67099C99.1031 5.27026 98.9294 4.93327 98.5852 4.65701C98.241 4.38074 97.8162 4.24413 97.3139 4.24413H88.7431Z" fill="#0F3746"/>
<mask id="mask0_3851_7541" style="mask-type:luminance" maskUnits="userSpaceOnUse" x="29" y="18" width="38" height="4">
<path d="M29.6787 18.3033V21.7066C40.3054 21.7035 50.9321 21.7005 61.5587 21.6944C63.289 20.5651 65.0193 19.4327 66.7496 18.3033H29.6787Z" fill="white"/>
</mask>
<g mask="url(#mask0_3851_7541)">
<path d="M29.8958 18.3033H29.6787V21.7066H29.8958V18.3033Z" fill="#B7E2E2"/>
<path d="M30.1126 18.3033H29.8955V21.7066H30.1126V18.3033Z" fill="#B5DFE0"/>
<path d="M30.3264 18.3033H30.1094V21.7066H30.3264V18.3033Z" fill="#B3DDDE"/>
<path d="M30.5442 18.3033H30.3271V21.7066H30.5442V18.3033Z" fill="#B2DADC"/>
<path d="M30.7581 18.3033H30.541V21.7066H30.7581V18.3033Z" fill="#B0D8DA"/>
<path d="M30.9749 18.3033H30.7578V21.7066H30.9749V18.3033Z" fill="#AFD7D9"/>
<path d="M31.1887 18.3033H30.9717V21.7066H31.1887V18.3033Z" fill="#AED5D7"/>
<path d="M31.4055 18.3033H31.1885V21.7066H31.4055V18.3033Z" fill="#ACD3D6"/>
<path d="M31.6194 18.3033H31.4023V21.7066H31.6194V18.3033Z" fill="#ABD2D4"/>
<path d="M31.8372 18.3033H31.6201V21.7066H31.8372V18.3033Z" fill="#AAD0D3"/>
<path d="M32.051 18.3033H31.834V21.7066H32.051V18.3033Z" fill="#A8CFD2"/>
<path d="M32.2678 18.3033H32.0508V21.7066H32.2678V18.3033Z" fill="#A7CDD0"/>
<path d="M32.4817 18.3033H32.2646V21.7066H32.4817V18.3033Z" fill="#A6CCCF"/>
<path d="M32.6985 18.3033H32.4814V21.7066H32.6985V18.3033Z" fill="#A5CACE"/>
<path d="M32.9133 18.3033H32.6963V21.7066H32.9133V18.3033Z" fill="#A4C9CD"/>
<path d="M33.1301 18.3033H32.9131V21.7066H33.1301V18.3033Z" fill="#A2C8CB"/>
<path d="M33.344 18.3033H33.127V21.7066H33.344V18.3033Z" fill="#A1C6CA"/>
<path d="M33.5608 18.3033H33.3438V21.7066H33.5608V18.3033Z" fill="#A0C5C9"/>
<path d="M33.7747 18.3033H33.5576V21.7066H33.7747V18.3033Z" fill="#9FC3C8"/>
<path d="M33.9925 18.3033H33.7754V21.7066H33.9925V18.3033Z" fill="#9EC2C7"/>
<path d="M34.2063 18.3033H33.9893V21.7066H34.2063V18.3033Z" fill="#9CC1C5"/>
<path d="M34.4231 18.3033H34.2061V21.7066H34.4231V18.3033Z" fill="#9BC0C4"/>
<path d="M34.637 18.3033H34.4199V21.7066H34.637V18.3033Z" fill="#9ABEC3"/>
<path d="M34.8538 18.3033H34.6367V21.7066H34.8538V18.3033Z" fill="#99BDC2"/>
<path d="M35.0676 18.3033H34.8506V21.7066H35.0676V18.3033Z" fill="#98BCC1"/>
<path d="M35.2854 18.3033H35.0684V21.7066H35.2854V18.3033Z" fill="#97BAC0"/>
<path d="M35.4993 18.3033H35.2822V21.7066H35.4993V18.3033Z" fill="#95B9BE"/>
<path d="M35.7161 18.3033H35.499V21.7066H35.7161V18.3033Z" fill="#94B8BD"/>
<path d="M35.93 18.3033H35.7129V21.7066H35.93V18.3033Z" fill="#93B7BC"/>
<path d="M36.1467 18.3033H35.9297V21.7066H36.1467V18.3033Z" fill="#92B5BB"/>
<path d="M36.3606 18.3033H36.1436V21.7066H36.3606V18.3033Z" fill="#91B4BA"/>
<path d="M36.5784 18.3033H36.3613V21.7066H36.5784V18.3033Z" fill="#90B3B9"/>
<path d="M36.7923 18.3033H36.5752V21.7066H36.7923V18.3033Z" fill="#8FB2B8"/>
<path d="M37.0091 18.3033H36.792V21.7066H37.0091V18.3033Z" fill="#8EB0B7"/>
<path d="M37.2229 18.3033H37.0059V21.7066H37.2229V18.3033Z" fill="#8DAFB6"/>
<path d="M37.4397 18.3033H37.2227V21.7066H37.4397V18.3033Z" fill="#8CAEB4"/>
<path d="M37.6546 18.3033H37.4375V21.7066H37.6546V18.3033Z" fill="#8BADB3"/>
<path d="M37.8714 18.3033H37.6543V21.7066H37.8714V18.3033Z" fill="#8AABB2"/>
<path d="M38.0852 18.3033H37.8682V21.7066H38.0852V18.3033Z" fill="#88AAB1"/>
<path d="M38.302 18.3033H38.085V21.7066H38.302V18.3033Z" fill="#87A9B0"/>
<path d="M38.5159 18.3033H38.2988V21.7066H38.5159V18.3033Z" fill="#86A8AF"/>
<path d="M38.7337 18.3033H38.5166V21.7066H38.7337V18.3033Z" fill="#85A7AE"/>
<path d="M38.9475 18.3033H38.7305V21.7066H38.9475V18.3033Z" fill="#84A6AD"/>
<path d="M39.1643 18.3033H38.9473V21.7066H39.1643V18.3033Z" fill="#83A4AC"/>
<path d="M39.3782 18.3033H39.1611V21.7066H39.3782V18.3033Z" fill="#82A3AB"/>
<path d="M39.595 18.3033H39.3779V21.7066H39.595V18.3033Z" fill="#81A2AA"/>
<path d="M39.8089 18.3033H39.5918V21.7066H39.8089V18.3033Z" fill="#80A1A9"/>
<path d="M40.0266 18.3033H39.8096V21.7066H40.0266V18.3033Z" fill="#7FA0A8"/>
<path d="M40.2405 18.3033H40.0234V21.7066H40.2405V18.3033Z" fill="#7E9FA7"/>
<path d="M40.4573 18.3033H40.2402V21.7066H40.4573V18.3033Z" fill="#7D9EA6"/>
<path d="M40.6712 18.3033H40.4541V21.7066H40.6712V18.3033Z" fill="#7C9CA5"/>
<path d="M40.888 18.3033H40.6709V21.7066H40.888V18.3033Z" fill="#7B9BA4"/>
<path d="M41.1018 18.3033H40.8848V21.7066H41.1018V18.3033Z" fill="#7A9AA3"/>
<path d="M41.3196 18.3033H41.1025V21.7066H41.3196V18.3033Z" fill="#7999A2"/>
<path d="M41.5335 18.3033H41.3164V21.7066H41.5335V18.3033Z" fill="#7898A1"/>
<path d="M41.7503 18.3033H41.5332V21.7066H41.7503V18.3033Z" fill="#7797A0"/>
<path d="M41.9641 18.3033H41.7471V21.7066H41.9641V18.3033Z" fill="#76969F"/>
<path d="M42.1809 18.3033H41.9639V21.7066H42.1809V18.3033Z" fill="#75959E"/>
<path d="M42.3958 18.3033H42.1787V21.7066H42.3958V18.3033Z" fill="#74949D"/>
<path d="M42.6126 18.3033H42.3955V21.7066H42.6126V18.3033Z" fill="#73939C"/>
<path d="M42.8264 18.3033H42.6094V21.7066H42.8264V18.3033Z" fill="#72929B"/>
<path d="M43.0432 18.3033H42.8262V21.7066H43.0432V18.3033Z" fill="#71919A"/>
<path d="M43.2571 18.3033H43.04V21.7066H43.2571V18.3033Z" fill="#709099"/>
<path d="M43.4749 18.3033H43.2578V21.7066H43.4749V18.3033Z" fill="#6F8E98"/>
<path d="M43.6887 18.3033H43.4717V21.7066H43.6887V18.3033Z" fill="#6F8D97"/>
<path d="M43.9055 18.3033H43.6885V21.7066H43.9055V18.3033Z" fill="#6E8C96"/>
<path d="M44.1194 18.3033H43.9023V21.7066H44.1194V18.3033Z" fill="#6D8B95"/>
<path d="M44.3362 18.3033H44.1191V21.7066H44.3362V18.3033Z" fill="#6C8A94"/>
<path d="M44.5501 18.3033H44.333V21.7066H44.5501V18.3033Z" fill="#6B8993"/>
<path d="M44.7678 18.3033H44.5508V21.7066H44.7678V18.3033Z" fill="#6A8892"/>
<path d="M44.9817 18.3033H44.7646V21.7066H44.9817V18.3033Z" fill="#698791"/>
<path d="M45.1985 18.3033H44.9814V21.7066H45.1985V18.3033Z" fill="#688690"/>
<path d="M45.4124 18.3033H45.1953V21.7066H45.4124V18.3033Z" fill="#67858F"/>
<path d="M45.6292 18.3033H45.4121V21.7066H45.6292V18.3033Z" fill="#66848E"/>
<path d="M45.844 18.3033H45.627V21.7066H45.844V18.3033Z" fill="#65838D"/>
<path d="M46.0608 18.3033H45.8438V21.7066H46.0608V18.3033Z" fill="#65828C"/>
<path d="M46.2747 18.3033H46.0576V21.7066H46.2747V18.3033Z" fill="#64818B"/>
<path d="M46.4915 18.3033H46.2744V21.7066H46.4915V18.3033Z" fill="#63808A"/>
<path d="M46.7053 18.3033H46.4883V21.7066H46.7053V18.3033Z" fill="#627F8A"/>
<path d="M46.9231 18.3033H46.7061V21.7066H46.9231V18.3033Z" fill="#617E89"/>
<path d="M47.137 18.3033H46.9199V21.7066H47.137V18.3033Z" fill="#607D88"/>
<path d="M47.3538 18.3033H47.1367V21.7066H47.3538V18.3033Z" fill="#5F7C87"/>
<path d="M47.5676 18.3033H47.3506V21.7066H47.5676V18.3033Z" fill="#5E7B86"/>
<path d="M47.7844 18.3033H47.5674V21.7066H47.7844V18.3033Z" fill="#5D7A85"/>
<path d="M47.9983 18.3033H47.7812V21.7066H47.9983V18.3033Z" fill="#5D7984"/>
<path d="M48.2161 18.3033H47.999V21.7066H48.2161V18.3033Z" fill="#5C7983"/>
<path d="M48.43 18.3033H48.2129V21.7066H48.43V18.3033Z" fill="#5B7882"/>
<path d="M48.6468 18.3033H48.4297V21.7066H48.6468V18.3033Z" fill="#5A7781"/>
<path d="M48.8606 18.3033H48.6436V21.7066H48.8606V18.3033Z" fill="#597681"/>
<path d="M49.0774 18.3033H48.8604V21.7066H49.0774V18.3033Z" fill="#587580"/>
<path d="M49.2952 18.3033H49.0781V21.7066H49.2952V18.3033Z" fill="#57747F"/>
<path d="M49.5091 18.3033H49.292V21.7066H49.5091V18.3033Z" fill="#56737E"/>
<path d="M49.7258 18.3033H49.5088V21.7066H49.7258V18.3033Z" fill="#55727D"/>
<path d="M49.9397 18.3033H49.7227V21.7066H49.9397V18.3033Z" fill="#55717C"/>
<path d="M50.1565 18.3033H49.9395V21.7066H50.1565V18.3033Z" fill="#54707B"/>
<path d="M50.3704 18.3033H50.1533V21.7066H50.3704V18.3033Z" fill="#536F7B"/>
<path d="M50.5882 18.3033H50.3711V21.7066H50.5882V18.3033Z" fill="#526E7A"/>
<path d="M50.802 18.3033H50.585V21.7066H50.802V18.3033Z" fill="#516E79"/>
<path d="M51.0188 18.3033H50.8018V21.7066H51.0188V18.3033Z" fill="#506D78"/>
<path d="M51.2327 18.3033H51.0156V21.7066H51.2327V18.3033Z" fill="#4F6C77"/>
<path d="M51.4495 18.3033H51.2324V21.7066H51.4495V18.3033Z" fill="#4F6B76"/>
<path d="M51.6643 18.3033H51.4473V21.7066H51.6643V18.3033Z" fill="#4E6A76"/>
<path d="M51.8811 18.3033H51.6641V21.7066H51.8811V18.3033Z" fill="#4D6975"/>
<path d="M52.095 18.3033H51.8779V21.7066H52.095V18.3033Z" fill="#4C6874"/>
<path d="M52.3118 18.3033H52.0947V21.7066H52.3118V18.3033Z" fill="#4B6773"/>
<path d="M52.5257 18.3033H52.3086V21.7066H52.5257V18.3033Z" fill="#4A6772"/>
<path d="M52.7434 18.3033H52.5264V21.7066H52.7434V18.3033Z" fill="#496672"/>
<path d="M52.9573 18.3033H52.7402V21.7066H52.9573V18.3033Z" fill="#496571"/>
<path d="M53.1741 18.3033H52.957V21.7066H53.1741V18.3033Z" fill="#486470"/>
<path d="M53.388 18.3033H53.1709V21.7066H53.388V18.3033Z" fill="#47636F"/>
<path d="M53.6048 18.3033H53.3877V21.7066H53.6048V18.3033Z" fill="#46626E"/>
<path d="M53.8186 18.3033H53.6016V21.7066H53.8186V18.3033Z" fill="#45616E"/>
<path d="M54.0364 18.3033H53.8193V21.7066H54.0364V18.3033Z" fill="#44616D"/>
<path d="M54.2503 18.3033H54.0332V21.7066H54.2503V18.3033Z" fill="#44606C"/>
<path d="M54.4671 18.3033H54.25V21.7066H54.4671V18.3033Z" fill="#435F6B"/>
<path d="M54.6809 18.3033H54.4639V21.7066H54.6809V18.3033Z" fill="#425E6B"/>
<path d="M54.8977 18.3033H54.6807V21.7066H54.8977V18.3033Z" fill="#415D6A"/>
<path d="M55.1116 18.3033H54.8945V21.7066H55.1116V18.3033Z" fill="#405D69"/>
<path d="M55.3294 18.3033H55.1123V21.7066H55.3294V18.3033Z" fill="#3F5C68"/>
<path d="M55.5432 18.3033H55.3262V21.7066H55.5432V18.3033Z" fill="#3E5B67"/>
<path d="M55.76 18.3033H55.543V21.7066H55.76V18.3033Z" fill="#3E5A67"/>
<path d="M55.9739 18.3033H55.7568V21.7066H55.9739V18.3033Z" fill="#3D5966"/>
<path d="M56.1907 18.3033H55.9736V21.7066H56.1907V18.3033Z" fill="#3C5965"/>
<path d="M56.4055 18.3033H56.1885V21.7066H56.4055V18.3033Z" fill="#3B5865"/>
<path d="M56.6223 18.3033H56.4053V21.7066H56.6223V18.3033Z" fill="#3A5764"/>
<path d="M56.8362 18.3033H56.6191V21.7066H56.8362V18.3033Z" fill="#395663"/>
<path d="M57.053 18.3033H56.8359V21.7066H57.053V18.3033Z" fill="#385662"/>
<path d="M57.2669 18.3033H57.0498V21.7066H57.2669V18.3033Z" fill="#385562"/>
<path d="M57.4846 18.3033H57.2676V21.7066H57.4846V18.3033Z" fill="#375461"/>
<path d="M57.6985 18.3033H57.4814V21.7066H57.6985V18.3033Z" fill="#365360"/>
<path d="M57.9153 18.3033H57.6982V21.7066H57.9153V18.3033Z" fill="#355360"/>
<path d="M58.1292 18.3033H57.9121V21.7066H58.1292V18.3033Z" fill="#34525F"/>
<path d="M58.346 18.3033H58.1289V21.7066H58.346V18.3033Z" fill="#33515E"/>
<path d="M58.5598 18.3033H58.3428V21.7066H58.5598V18.3033Z" fill="#33505E"/>
<path d="M58.7776 18.3033H58.5605V21.7066H58.7776V18.3033Z" fill="#32505D"/>
<path d="M58.9915 18.3033H58.7744V21.7066H58.9915V18.3033Z" fill="#314F5C"/>
<path d="M59.2083 18.3033H58.9912V21.7066H59.2083V18.3033Z" fill="#304E5C"/>
<path d="M59.4221 18.3033H59.2051V21.7066H59.4221V18.3033Z" fill="#2F4E5B"/>
<path d="M59.6389 18.3033H59.4219V21.7066H59.6389V18.3033Z" fill="#2E4D5A"/>
<path d="M59.8528 18.3033H59.6357V21.7066H59.8528V18.3033Z" fill="#2E4C5A"/>
<path d="M60.0706 18.3033H59.8535V21.7066H60.0706V18.3033Z" fill="#2D4B59"/>
<path d="M60.2844 18.3033H60.0674V21.7066H60.2844V18.3033Z" fill="#2C4B58"/>
<path d="M60.5012 18.3033H60.2842V21.7066H60.5012V18.3033Z" fill="#2B4A58"/>
<path d="M60.7151 18.3033H60.498V21.7066H60.7151V18.3033Z" fill="#2A4957"/>
<path d="M60.9319 18.3033H60.7148V21.7066H60.9319V18.3033Z" fill="#294956"/>
<path d="M61.1467 18.3033H60.9297V21.7066H61.1467V18.3033Z" fill="#284856"/>
<path d="M61.3635 18.3033H61.1465V21.7066H61.3635V18.3033Z" fill="#284755"/>
<path d="M61.5774 18.3033H61.3604V21.7066H61.5774V18.3033Z" fill="#274754"/>
<path d="M61.7942 18.3033H61.5771V21.7066H61.7942V18.3033Z" fill="#264654"/>
<path d="M62.0081 18.3033H61.791V21.7066H62.0081V18.3033Z" fill="#254553"/>
<path d="M62.2258 18.3033H62.0088V21.7066H62.2258V18.3033Z" fill="#244552"/>
<path d="M62.4397 18.3033H62.2227V21.7066H62.4397V18.3033Z" fill="#234452"/>
<path d="M62.6565 18.3033H62.4395V21.7066H62.6565V18.3033Z" fill="#224351"/>
<path d="M62.8704 18.3033H62.6533V21.7066H62.8704V18.3033Z" fill="#214350"/>
<path d="M63.0872 18.3033H62.8701V21.7066H63.0872V18.3033Z" fill="#204250"/>
<path d="M63.301 18.3033H63.084V21.7066H63.301V18.3033Z" fill="#1F414F"/>
<path d="M63.5188 18.3033H63.3018V21.7066H63.5188V18.3033Z" fill="#1E414F"/>
<path d="M63.7327 18.3033H63.5156V21.7066H63.7327V18.3033Z" fill="#1D404E"/>
<path d="M63.9495 18.3033H63.7324V21.7066H63.9495V18.3033Z" fill="#1C3F4D"/>
<path d="M64.1633 18.3033H63.9463V21.7066H64.1633V18.3033Z" fill="#1B3F4D"/>
<path d="M64.3801 18.3033H64.1631V21.7066H64.3801V18.3033Z" fill="#1B3E4C"/>
<path d="M64.594 18.3033H64.377V21.7066H64.594V18.3033Z" fill="#1A3D4C"/>
<path d="M64.8118 18.3033H64.5947V21.7066H64.8118V18.3033Z" fill="#193D4B"/>
<path d="M65.0257 18.3033H64.8086V21.7066H65.0257V18.3033Z" fill="#183C4A"/>
<path d="M65.2425 18.3033H65.0254V21.7066H65.2425V18.3033Z" fill="#173B4A"/>
<path d="M65.4563 18.3033H65.2393V21.7066H65.4563V18.3033Z" fill="#163B49"/>
<path d="M65.6731 18.3033H65.4561V21.7066H65.6731V18.3033Z" fill="#153A49"/>
<path d="M65.888 18.3033H65.6709V21.7066H65.888V18.3033Z" fill="#133A48"/>
<path d="M66.1048 18.3033H65.8877V21.7066H66.1048V18.3033Z" fill="#123947"/>
<path d="M66.3186 18.3033H66.1016V21.7066H66.3186V18.3033Z" fill="#113847"/>
<path d="M66.5354 18.3033H66.3184V21.7066H66.5354V18.3033Z" fill="#103846"/>
<path d="M66.7493 18.3033H66.5322V21.7066H66.7493V18.3033Z" fill="#0F3746"/>
</g>
<mask id="mask1_3851_7541" style="mask-type:luminance" maskUnits="userSpaceOnUse" x="66" y="18" width="38" height="4">
<path d="M103.82 18.3033V21.7066C93.1932 21.7035 82.5666 21.7005 71.9399 21.6944C70.2096 20.5651 68.4793 19.4327 66.749 18.3033H103.82Z" fill="white"/>
</mask>
<g mask="url(#mask1_3851_7541)">
<path d="M66.9661 18.3033H66.749V21.7066H66.9661V18.3033Z" fill="#0F3746"/>
<path d="M67.18 18.3033H66.9629V21.7066H67.18V18.3033Z" fill="#103846"/>
<path d="M67.3968 18.3033H67.1797V21.7066H67.3968V18.3033Z" fill="#113847"/>
<path d="M67.6106 18.3033H67.3936V21.7066H67.6106V18.3033Z" fill="#123947"/>
<path d="M67.8284 18.3033H67.6113V21.7066H67.8284V18.3033Z" fill="#133A48"/>
<path d="M68.0423 18.3033H67.8252V21.7066H68.0423V18.3033Z" fill="#153A49"/>
<path d="M68.2591 18.3033H68.042V21.7066H68.2591V18.3033Z" fill="#163B49"/>
<path d="M68.4729 18.3033H68.2559V21.7066H68.4729V18.3033Z" fill="#173B4A"/>
<path d="M68.6897 18.3033H68.4727V21.7066H68.6897V18.3033Z" fill="#183C4A"/>
<path d="M68.9046 18.3033H68.6875V21.7066H68.9046V18.3033Z" fill="#193D4B"/>
<path d="M69.1214 18.3033H68.9043V21.7066H69.1214V18.3033Z" fill="#1A3D4C"/>
<path d="M69.3352 18.3033H69.1182V21.7066H69.3352V18.3033Z" fill="#1B3E4C"/>
<path d="M69.552 18.3033H69.335V21.7066H69.552V18.3033Z" fill="#1B3F4D"/>
<path d="M69.7659 18.3033H69.5488V21.7066H69.7659V18.3033Z" fill="#1C3F4D"/>
<path d="M69.9837 18.3033H69.7666V21.7066H69.9837V18.3033Z" fill="#1D404E"/>
<path d="M70.1975 18.3033H69.9805V21.7066H70.1975V18.3033Z" fill="#1E414F"/>
<path d="M70.4143 18.3033H70.1973V21.7066H70.4143V18.3033Z" fill="#1F414F"/>
<path d="M70.6282 18.3033H70.4111V21.7066H70.6282V18.3033Z" fill="#204250"/>
<path d="M70.845 18.3033H70.6279V21.7066H70.845V18.3033Z" fill="#214350"/>
<path d="M71.0589 18.3033H70.8418V21.7066H71.0589V18.3033Z" fill="#224351"/>
<path d="M71.2766 18.3033H71.0596V21.7066H71.2766V18.3033Z" fill="#234452"/>
<path d="M71.4905 18.3033H71.2734V21.7066H71.4905V18.3033Z" fill="#244552"/>
<path d="M71.7073 18.3033H71.4902V21.7066H71.7073V18.3033Z" fill="#254553"/>
<path d="M71.9241 18.3033H71.707V21.7066H71.9241V18.3033Z" fill="#264654"/>
<path d="M72.138 18.3033H71.9209V21.7066H72.138V18.3033Z" fill="#274754"/>
<path d="M72.3557 18.3033H72.1387V21.7066H72.3557V18.3033Z" fill="#284755"/>
<path d="M72.5696 18.3033H72.3525V21.7066H72.5696V18.3033Z" fill="#284856"/>
<path d="M72.7864 18.3033H72.5693V21.7066H72.7864V18.3033Z" fill="#294956"/>
<path d="M73.0003 18.3033H72.7832V21.7066H73.0003V18.3033Z" fill="#2A4957"/>
<path d="M73.2171 18.3033H73V21.7066H73.2171V18.3033Z" fill="#2B4A58"/>
<path d="M73.4309 18.3033H73.2139V21.7066H73.4309V18.3033Z" fill="#2C4B58"/>
<path d="M73.6487 18.3033H73.4316V21.7066H73.6487V18.3033Z" fill="#2D4B59"/>
<path d="M73.8626 18.3033H73.6455V21.7066H73.8626V18.3033Z" fill="#2E4C5A"/>
<path d="M74.0794 18.3033H73.8623V21.7066H74.0794V18.3033Z" fill="#2E4D5A"/>
<path d="M74.2932 18.3033H74.0762V21.7066H74.2932V18.3033Z" fill="#2F4E5B"/>
<path d="M74.51 18.3033H74.293V21.7066H74.51V18.3033Z" fill="#304E5C"/>
<path d="M74.7249 18.3033H74.5078V21.7066H74.7249V18.3033Z" fill="#314F5C"/>
<path d="M74.9417 18.3033H74.7246V21.7066H74.9417V18.3033Z" fill="#32505D"/>
<path d="M75.1555 18.3033H74.9385V21.7066H75.1555V18.3033Z" fill="#33505E"/>
<path d="M75.3723 18.3033H75.1553V21.7066H75.3723V18.3033Z" fill="#33515E"/>
<path d="M75.5862 18.3033H75.3691V21.7066H75.5862V18.3033Z" fill="#34525F"/>
<path d="M75.804 18.3033H75.5869V21.7066H75.804V18.3033Z" fill="#355360"/>
<path d="M76.0178 18.3033H75.8008V21.7066H76.0178V18.3033Z" fill="#365360"/>
<path d="M76.2346 18.3033H76.0176V21.7066H76.2346V18.3033Z" fill="#375461"/>
<path d="M76.4485 18.3033H76.2314V21.7066H76.4485V18.3033Z" fill="#385562"/>
<path d="M76.6653 18.3033H76.4482V21.7066H76.6653V18.3033Z" fill="#385662"/>
<path d="M76.8792 18.3033H76.6621V21.7066H76.8792V18.3033Z" fill="#395663"/>
<path d="M77.0969 18.3033H76.8799V21.7066H77.0969V18.3033Z" fill="#3A5764"/>
<path d="M77.3108 18.3033H77.0938V21.7066H77.3108V18.3033Z" fill="#3B5865"/>
<path d="M77.5276 18.3033H77.3105V21.7066H77.5276V18.3033Z" fill="#3C5965"/>
<path d="M77.7415 18.3033H77.5244V21.7066H77.7415V18.3033Z" fill="#3D5966"/>
<path d="M77.9583 18.3033H77.7412V21.7066H77.9583V18.3033Z" fill="#3E5A67"/>
<path d="M78.1721 18.3033H77.9551V21.7066H78.1721V18.3033Z" fill="#3E5B67"/>
<path d="M78.3899 18.3033H78.1729V21.7066H78.3899V18.3033Z" fill="#3F5C68"/>
<path d="M78.6038 18.3033H78.3867V21.7066H78.6038V18.3033Z" fill="#405D69"/>
<path d="M78.8206 18.3033H78.6035V21.7066H78.8206V18.3033Z" fill="#415D6A"/>
<path d="M79.0344 18.3033H78.8174V21.7066H79.0344V18.3033Z" fill="#425E6B"/>
<path d="M79.2512 18.3033H79.0342V21.7066H79.2512V18.3033Z" fill="#435F6B"/>
<path d="M79.4661 18.3033H79.249V21.7066H79.4661V18.3033Z" fill="#44606C"/>
<path d="M79.6829 18.3033H79.4658V21.7066H79.6829V18.3033Z" fill="#44616D"/>
<path d="M79.8968 18.3033H79.6797V21.7066H79.8968V18.3033Z" fill="#45616E"/>
<path d="M80.1135 18.3033H79.8965V21.7066H80.1135V18.3033Z" fill="#46626E"/>
<path d="M80.3274 18.3033H80.1104V21.7066H80.3274V18.3033Z" fill="#47636F"/>
<path d="M80.5452 18.3033H80.3281V21.7066H80.5452V18.3033Z" fill="#486470"/>
<path d="M80.7591 18.3033H80.542V21.7066H80.7591V18.3033Z" fill="#496571"/>
<path d="M80.9759 18.3033H80.7588V21.7066H80.9759V18.3033Z" fill="#496672"/>
<path d="M81.1897 18.3033H80.9727V21.7066H81.1897V18.3033Z" fill="#4A6772"/>
<path d="M81.4065 18.3033H81.1895V21.7066H81.4065V18.3033Z" fill="#4B6773"/>
<path d="M81.6204 18.3033H81.4033V21.7066H81.6204V18.3033Z" fill="#4C6874"/>
<path d="M81.8382 18.3033H81.6211V21.7066H81.8382V18.3033Z" fill="#4D6975"/>
<path d="M82.052 18.3033H81.835V21.7066H82.052V18.3033Z" fill="#4E6A76"/>
<path d="M82.2688 18.3033H82.0518V21.7066H82.2688V18.3033Z" fill="#4F6B76"/>
<path d="M82.4827 18.3033H82.2656V21.7066H82.4827V18.3033Z" fill="#4F6C77"/>
<path d="M82.6995 18.3033H82.4824V21.7066H82.6995V18.3033Z" fill="#506D78"/>
<path d="M82.9143 18.3033H82.6973V21.7066H82.9143V18.3033Z" fill="#516E79"/>
<path d="M83.1311 18.3033H82.9141V21.7066H83.1311V18.3033Z" fill="#526E7A"/>
<path d="M83.345 18.3033H83.1279V21.7066H83.345V18.3033Z" fill="#536F7B"/>
<path d="M83.5618 18.3033H83.3447V21.7066H83.5618V18.3033Z" fill="#54707B"/>
<path d="M83.7757 18.3033H83.5586V21.7066H83.7757V18.3033Z" fill="#55717C"/>
<path d="M83.9934 18.3033H83.7764V21.7066H83.9934V18.3033Z" fill="#55727D"/>
<path d="M84.2073 18.3033H83.9902V21.7066H84.2073V18.3033Z" fill="#56737E"/>
<path d="M84.4241 18.3033H84.207V21.7066H84.4241V18.3033Z" fill="#57747F"/>
<path d="M84.638 18.3033H84.4209V21.7066H84.638V18.3033Z" fill="#587580"/>
<path d="M84.8548 18.3033H84.6377V21.7066H84.8548V18.3033Z" fill="#597681"/>
<path d="M85.0686 18.3033H84.8516V21.7066H85.0686V18.3033Z" fill="#5A7781"/>
<path d="M85.2864 18.3033H85.0693V21.7066H85.2864V18.3033Z" fill="#5B7882"/>
<path d="M85.5003 18.3033H85.2832V21.7066H85.5003V18.3033Z" fill="#5C7983"/>
<path d="M85.7171 18.3033H85.5V21.7066H85.7171V18.3033Z" fill="#5D7984"/>
<path d="M85.9309 18.3033H85.7139V21.7066H85.9309V18.3033Z" fill="#5D7A85"/>
<path d="M86.1477 18.3033H85.9307V21.7066H86.1477V18.3033Z" fill="#5E7B86"/>
<path d="M86.3616 18.3033H86.1445V21.7066H86.3616V18.3033Z" fill="#5F7C87"/>
<path d="M86.5794 18.3033H86.3623V21.7066H86.5794V18.3033Z" fill="#607D88"/>
<path d="M86.7932 18.3033H86.5762V21.7066H86.7932V18.3033Z" fill="#617E89"/>
<path d="M87.01 18.3033H86.793V21.7066H87.01V18.3033Z" fill="#627F8A"/>
<path d="M87.2239 18.3033H87.0068V21.7066H87.2239V18.3033Z" fill="#63808A"/>
<path d="M87.4407 18.3033H87.2236V21.7066H87.4407V18.3033Z" fill="#64818B"/>
<path d="M87.6555 18.3033H87.4385V21.7066H87.6555V18.3033Z" fill="#65828C"/>
<path d="M87.8723 18.3033H87.6553V21.7066H87.8723V18.3033Z" fill="#65838D"/>
<path d="M88.0862 18.3033H87.8691V21.7066H88.0862V18.3033Z" fill="#66848E"/>
<path d="M88.303 18.3033H88.0859V21.7066H88.303V18.3033Z" fill="#67858F"/>
<path d="M88.5169 18.3033H88.2998V21.7066H88.5169V18.3033Z" fill="#688690"/>
<path d="M88.7346 18.3033H88.5176V21.7066H88.7346V18.3033Z" fill="#698791"/>
<path d="M88.9485 18.3033H88.7314V21.7066H88.9485V18.3033Z" fill="#6A8892"/>
<path d="M89.1653 18.3033H88.9482V21.7066H89.1653V18.3033Z" fill="#6B8993"/>
<path d="M89.3792 18.3033H89.1621V21.7066H89.3792V18.3033Z" fill="#6C8A94"/>
<path d="M89.596 18.3033H89.3789V21.7066H89.596V18.3033Z" fill="#6D8B95"/>
<path d="M89.8098 18.3033H89.5928V21.7066H89.8098V18.3033Z" fill="#6E8C96"/>
<path d="M90.0276 18.3033H89.8105V21.7066H90.0276V18.3033Z" fill="#6F8D97"/>
<path d="M90.2415 18.3033H90.0244V21.7066H90.2415V18.3033Z" fill="#6F8E98"/>
<path d="M90.4583 18.3033H90.2412V21.7066H90.4583V18.3033Z" fill="#709099"/>
<path d="M90.6721 18.3033H90.4551V21.7066H90.6721V18.3033Z" fill="#71919A"/>
<path d="M90.8889 18.3033H90.6719V21.7066H90.8889V18.3033Z" fill="#72929B"/>
<path d="M91.1028 18.3033H90.8857V21.7066H91.1028V18.3033Z" fill="#73939C"/>
<path d="M91.3206 18.3033H91.1035V21.7066H91.3206V18.3033Z" fill="#74949D"/>
<path d="M91.5344 18.3033H91.3174V21.7066H91.5344V18.3033Z" fill="#75959E"/>
<path d="M91.7512 18.3033H91.5342V21.7066H91.7512V18.3033Z" fill="#76969F"/>
<path d="M91.9651 18.3033H91.748V21.7066H91.9651V18.3033Z" fill="#7797A0"/>
<path d="M92.1819 18.3033H91.9648V21.7066H92.1819V18.3033Z" fill="#7898A1"/>
<path d="M92.3968 18.3033H92.1797V21.7066H92.3968V18.3033Z" fill="#7999A2"/>
<path d="M92.6135 18.3033H92.3965V21.7066H92.6135V18.3033Z" fill="#7A9AA3"/>
<path d="M92.8274 18.3033H92.6104V21.7066H92.8274V18.3033Z" fill="#7B9BA4"/>
<path d="M93.0442 18.3033H92.8271V21.7066H93.0442V18.3033Z" fill="#7C9CA5"/>
<path d="M93.2581 18.3033H93.041V21.7066H93.2581V18.3033Z" fill="#7D9EA6"/>
<path d="M93.4759 18.3033H93.2588V21.7066H93.4759V18.3033Z" fill="#7E9FA7"/>
<path d="M93.6897 18.3033H93.4727V21.7066H93.6897V18.3033Z" fill="#7FA0A8"/>
<path d="M93.9065 18.3033H93.6895V21.7066H93.9065V18.3033Z" fill="#80A1A9"/>
<path d="M94.1204 18.3033H93.9033V21.7066H94.1204V18.3033Z" fill="#81A2AA"/>
<path d="M94.3372 18.3033H94.1201V21.7066H94.3372V18.3033Z" fill="#82A3AB"/>
<path d="M94.5549 18.3033H94.3379V21.7066H94.5549V18.3033Z" fill="#83A4AC"/>
<path d="M94.7688 18.3033H94.5518V21.7066H94.7688V18.3033Z" fill="#84A6AD"/>
<path d="M94.9856 18.3033H94.7686V21.7066H94.9856V18.3033Z" fill="#85A7AE"/>
<path d="M95.1995 18.3033H94.9824V21.7066H95.1995V18.3033Z" fill="#86A8AF"/>
<path d="M95.4163 18.3033H95.1992V21.7066H95.4163V18.3033Z" fill="#87A9B0"/>
<path d="M95.6301 18.3033H95.4131V21.7066H95.6301V18.3033Z" fill="#88AAB1"/>
<path d="M95.8479 18.3033H95.6309V21.7066H95.8479V18.3033Z" fill="#8AABB2"/>
<path d="M96.0618 18.3033H95.8447V21.7066H96.0618V18.3033Z" fill="#8BADB3"/>
<path d="M96.2786 18.3033H96.0615V21.7066H96.2786V18.3033Z" fill="#8CAEB4"/>
<path d="M96.4924 18.3033H96.2754V21.7066H96.4924V18.3033Z" fill="#8DAFB6"/>
<path d="M96.7093 18.3033H96.4922V21.7066H96.7093V18.3033Z" fill="#8EB0B7"/>
<path d="M96.9231 18.3033H96.7061V21.7066H96.9231V18.3033Z" fill="#8FB2B8"/>
<path d="M97.1409 18.3033H96.9238V21.7066H97.1409V18.3033Z" fill="#90B3B9"/>
<path d="M97.3548 18.3033H97.1377V21.7066H97.3548V18.3033Z" fill="#91B4BA"/>
<path d="M97.5716 18.3033H97.3545V21.7066H97.5716V18.3033Z" fill="#92B5BB"/>
<path d="M97.7854 18.3033H97.5684V21.7066H97.7854V18.3033Z" fill="#93B7BC"/>
<path d="M98.0022 18.3033H97.7852V21.7066H98.0022V18.3033Z" fill="#94B8BD"/>
<path d="M98.2171 18.3033H98V21.7066H98.2171V18.3033Z" fill="#95B9BE"/>
<path d="M98.4339 18.3033H98.2168V21.7066H98.4339V18.3033Z" fill="#97BAC0"/>
<path d="M98.6477 18.3033H98.4307V21.7066H98.6477V18.3033Z" fill="#98BCC1"/>
<path d="M98.8645 18.3033H98.6475V21.7066H98.8645V18.3033Z" fill="#99BDC2"/>
<path d="M99.0784 18.3033H98.8613V21.7066H99.0784V18.3033Z" fill="#9ABEC3"/>
<path d="M99.2962 18.3033H99.0791V21.7066H99.2962V18.3033Z" fill="#9BC0C4"/>
<path d="M99.51 18.3033H99.293V21.7066H99.51V18.3033Z" fill="#9CC1C5"/>
<path d="M99.7268 18.3033H99.5098V21.7066H99.7268V18.3033Z" fill="#9EC2C7"/>
<path d="M99.9407 18.3033H99.7236V21.7066H99.9407V18.3033Z" fill="#9FC3C8"/>
<path d="M100.157 18.3033H99.9404V21.7066H100.157V18.3033Z" fill="#A0C5C9"/>
<path d="M100.371 18.3033H100.154V21.7066H100.371V18.3033Z" fill="#A1C6CA"/>
<path d="M100.589 18.3033H100.372V21.7066H100.589V18.3033Z" fill="#A2C8CB"/>
<path d="M100.803 18.3033H100.586V21.7066H100.803V18.3033Z" fill="#A4C9CD"/>
<path d="M101.02 18.3033H100.803V21.7066H101.02V18.3033Z" fill="#A5CACE"/>
<path d="M101.234 18.3033H101.017V21.7066H101.234V18.3033Z" fill="#A6CCCF"/>
<path d="M101.45 18.3033H101.233V21.7066H101.45V18.3033Z" fill="#A7CDD0"/>
<path d="M101.664 18.3033H101.447V21.7066H101.664V18.3033Z" fill="#A8CFD2"/>
<path d="M101.882 18.3033H101.665V21.7066H101.882V18.3033Z" fill="#AAD0D3"/>
<path d="M102.096 18.3033H101.879V21.7066H102.096V18.3033Z" fill="#ABD2D4"/>
<path d="M102.313 18.3033H102.096V21.7066H102.313V18.3033Z" fill="#ACD3D6"/>
<path d="M102.527 18.3033H102.31V21.7066H102.527V18.3033Z" fill="#AED5D7"/>
<path d="M102.743 18.3033H102.526V21.7066H102.743V18.3033Z" fill="#AFD7D9"/>
<path d="M102.958 18.3033H102.741V21.7066H102.958V18.3033Z" fill="#B0D8DA"/>
<path d="M103.175 18.3033H102.958V21.7066H103.175V18.3033Z" fill="#B2DADC"/>
<path d="M103.389 18.3033H103.172V21.7066H103.389V18.3033Z" fill="#B3DDDE"/>
<path d="M103.606 18.3033H103.389V21.7066H103.606V18.3033Z" fill="#B5DFE0"/>
<path d="M103.82 18.3033H103.603V21.7066H103.82V18.3033Z" fill="#B7E2E2"/>
</g>
<path d="M32.2115 25.1524V27.7268H31.4766V22.074H32.2115V24.5179H35.1821V22.074H35.917V27.7268H35.1821V25.1524H32.2115Z" fill="#0F3746"/>
<path d="M49.6539 28C47.9918 28 46.8662 26.8069 46.8662 25.037C46.8662 23.2671 47.9918 22.074 49.6477 22.074C51.3036 22.074 52.4416 23.261 52.4416 25.0825C52.4416 26.7098 51.3811 27.997 49.6539 27.997V28ZM47.6042 25.037C47.6042 26.4335 48.4291 27.3625 49.6539 27.3625C50.8787 27.3625 51.7067 26.4335 51.7067 25.0674C51.7067 23.7012 50.9004 22.7115 49.6477 22.7115C48.3949 22.7115 47.6042 23.6405 47.6042 25.037Z" fill="#0F3746"/>
<path d="M68.9666 21.7065V25.6775C68.9666 26.8099 68.0953 27.5385 66.7402 27.5385C65.3851 27.5385 64.5293 26.8251 64.5293 25.6775V21.7065H65.2642V25.6775C65.2642 26.5306 65.8906 26.9009 66.7371 26.9009C67.6643 26.9009 68.2255 26.4365 68.2255 25.6775V21.7065H68.9635H68.9666Z" fill="#09212B"/>
<path d="M86.0456 26.2028C86.0456 25.7596 85.7138 25.4742 84.9851 25.289L83.5525 24.9156C82.7928 24.7213 82.4207 24.2872 82.4207 23.598C82.4207 22.5749 83.2052 21.9374 84.4735 21.9374C85.8038 21.9374 86.579 22.581 86.5883 23.6891H85.8906C85.8813 22.9514 85.3696 22.5415 84.4487 22.5415C83.6735 22.5415 83.1587 22.921 83.1587 23.4948C83.1587 23.9289 83.413 24.1475 84.1076 24.3327L85.5557 24.7122C86.3402 24.9217 86.7836 25.4317 86.7836 26.1299C86.7836 26.8282 86.3309 27.8604 84.5262 27.8604C83.5277 27.8604 82.2688 27.487 82.2471 25.884H82.9448V25.9235C82.9448 26.4973 83.2704 27.2259 84.5758 27.2259C85.8813 27.2259 86.0487 26.6066 86.0487 26.2028H86.0456Z" fill="#0F3746"/>
<path d="M98.7253 27.0923H102.13V27.7268H97.9873V22.074H101.987V22.7085H98.7253V24.5148H101.87V25.1493H98.7253V27.0893V27.0923Z" fill="#0F3746"/>
<path d="M25.3277 27.162L1.25879 27.1226L1.26809 10.3098L13.2871 0.130493L25.306 10.3129L25.3277 27.162ZM3.25885 24.7971L23.3308 24.8305L23.3153 11.4969L13.2871 3.00548L3.26505 11.4969L3.25575 24.7971H3.25885Z" fill="#0F3746"/>
<mask id="mask2_3851_7541" style="mask-type:luminance" maskUnits="userSpaceOnUse" x="10" y="0" width="6" height="5">
<path d="M13.2062 4.33525C14.429 4.33525 15.4202 3.36477 15.4202 2.16762C15.4202 0.970478 14.429 0 13.2062 0C11.9834 0 10.9922 0.970478 10.9922 2.16762C10.9922 3.36477 11.9834 4.33525 13.2062 4.33525Z" fill="white"/>
</mask>
<g mask="url(#mask2_3851_7541)">
<path d="M11.017 0H10.9922V4.33525H11.017V0Z" fill="#B7E2E2"/>
<path d="M11.0453 0H11.0205V4.33525H11.0453V0Z" fill="#B5DFE0"/>
<path d="M11.0697 0H11.0449V4.33525H11.0697V0Z" fill="#B3DDDE"/>
<path d="M11.0941 0H11.0693V4.33525H11.0941V0Z" fill="#B2DADC"/>
<path d="M11.1225 0H11.0977V4.33525H11.1225V0Z" fill="#B0D8DA"/>
<path d="M11.1469 0H11.1221V4.33525H11.1469V0Z" fill="#AFD7D9"/>
<path d="M11.1723 0H11.1475V4.33525H11.1723V0Z" fill="#AED5D7"/>
<path d="M11.1967 0H11.1719V4.33525H11.1967V0Z" fill="#ACD3D6"/>
<path d="M11.225 0H11.2002V4.33525H11.225V0Z" fill="#ABD2D4"/>
<path d="M11.2494 0H11.2246V4.33525H11.2494V0Z" fill="#AAD0D3"/>
<path d="M11.2748 0H11.25V4.33525H11.2748V0Z" fill="#A8CFD2"/>
<path d="M11.3022 0H11.2773V4.33525H11.3022V0Z" fill="#A7CDD0"/>
<path d="M11.3275 0H11.3027V4.33525H11.3275V0Z" fill="#A6CCCF"/>
<path d="M11.352 0H11.3271V4.33525H11.352V0Z" fill="#A5CACE"/>
<path d="M11.3803 0H11.3555V4.33525H11.3803V0Z" fill="#A4C9CD"/>
<path d="M11.4047 0H11.3799V4.33525H11.4047V0Z" fill="#A2C8CB"/>
<path d="M11.4291 0H11.4043V4.33525H11.4291V0Z" fill="#A1C6CA"/>
<path d="M11.4545 0H11.4297V4.33525H11.4545V0Z" fill="#A0C5C9"/>
<path d="M11.4818 0H11.457V4.33525H11.4818V0Z" fill="#9FC3C8"/>
<path d="M11.5072 0H11.4824V4.33525H11.5072V0Z" fill="#9EC2C7"/>
<path d="M11.5316 0H11.5068V4.33525H11.5316V0Z" fill="#9CC1C5"/>
<path d="M11.56 0H11.5352V4.33525H11.56V0Z" fill="#9BC0C4"/>
<path d="M11.5844 0H11.5596V4.33525H11.5844V0Z" fill="#9ABEC3"/>
<path d="M11.6088 0H11.584V4.33525H11.6088V0Z" fill="#99BDC2"/>
<path d="M11.6371 0H11.6123V4.33525H11.6371V0Z" fill="#98BCC1"/>
<path d="M11.6615 0H11.6367V4.33525H11.6615V0Z" fill="#97BAC0"/>
<path d="M11.6869 0H11.6621V4.33525H11.6869V0Z" fill="#95B9BE"/>
<path d="M11.7113 0H11.6865V4.33525H11.7113V0Z" fill="#94B8BD"/>
<path d="M11.7397 0H11.7148V4.33525H11.7397V0Z" fill="#93B7BC"/>
<path d="M11.7641 0H11.7393V4.33525H11.7641V0Z" fill="#92B5BB"/>
<path d="M11.7895 0H11.7646V4.33525H11.7895V0Z" fill="#91B4BA"/>
<path d="M11.8168 0H11.792V4.33525H11.8168V0Z" fill="#90B3B9"/>
<path d="M11.8422 0H11.8174V4.33525H11.8422V0Z" fill="#8FB2B8"/>
<path d="M11.8666 0H11.8418V4.33525H11.8666V0Z" fill="#8EB0B7"/>
<path d="M11.8949 0H11.8701V4.33525H11.8949V0Z" fill="#8DAFB6"/>
<path d="M11.9193 0H11.8945V4.33525H11.9193V0Z" fill="#8CAEB4"/>
<path d="M11.9438 0H11.9189V4.33525H11.9438V0Z" fill="#8BADB3"/>
<path d="M11.9721 0H11.9473V4.33525H11.9721V0Z" fill="#8AABB2"/>
<path d="M11.9965 0H11.9717V4.33525H11.9965V0Z" fill="#88AAB1"/>
<path d="M12.0219 0H11.9971V4.33525H12.0219V0Z" fill="#87A9B0"/>
<path d="M12.0463 0H12.0215V4.33525H12.0463V0Z" fill="#86A8AF"/>
<path d="M12.0746 0H12.0498V4.33525H12.0746V0Z" fill="#85A7AE"/>
<path d="M12.099 0H12.0742V4.33525H12.099V0Z" fill="#84A6AD"/>
<path d="M12.1244 0H12.0996V4.33525H12.1244V0Z" fill="#83A4AC"/>
<path d="M12.1518 0H12.127V4.33525H12.1518V0Z" fill="#82A3AB"/>
<path d="M12.1772 0H12.1523V4.33525H12.1772V0Z" fill="#81A2AA"/>
<path d="M12.2016 0H12.1768V4.33525H12.2016V0Z" fill="#80A1A9"/>
<path d="M12.2299 0H12.2051V4.33525H12.2299V0Z" fill="#7FA0A8"/>
<path d="M12.2543 0H12.2295V4.33525H12.2543V0Z" fill="#7E9FA7"/>
<path d="M12.2787 0H12.2539V4.33525H12.2787V0Z" fill="#7D9EA6"/>
<path d="M12.3041 0H12.2793V4.33525H12.3041V0Z" fill="#7C9CA5"/>
<path d="M12.3314 0H12.3066V4.33525H12.3314V0Z" fill="#7B9BA4"/>
<path d="M12.3568 0H12.332V4.33525H12.3568V0Z" fill="#7A9AA3"/>
<path d="M12.3813 0H12.3564V4.33525H12.3813V0Z" fill="#7999A2"/>
<path d="M12.4096 0H12.3848V4.33525H12.4096V0Z" fill="#7898A1"/>
<path d="M12.434 0H12.4092V4.33525H12.434V0Z" fill="#7797A0"/>
<path d="M12.4594 0H12.4346V4.33525H12.4594V0Z" fill="#76969F"/>
<path d="M12.4867 0H12.4619V4.33525H12.4867V0Z" fill="#75959E"/>
<path d="M12.5111 0H12.4863V4.33525H12.5111V0Z" fill="#74949D"/>
<path d="M12.5365 0H12.5117V4.33525H12.5365V0Z" fill="#73939C"/>
<path d="M12.5609 0H12.5361V4.33525H12.5609V0Z" fill="#72929B"/>
<path d="M12.5893 0H12.5645V4.33525H12.5893V0Z" fill="#71919A"/>
<path d="M12.6137 0H12.5889V4.33525H12.6137V0Z" fill="#709099"/>
<path d="M12.6391 0H12.6143V4.33525H12.6391V0Z" fill="#6F8E98"/>
<path d="M12.6664 0H12.6416V4.33525H12.6664V0Z" fill="#6F8D97"/>
<path d="M12.6918 0H12.667V4.33525H12.6918V0Z" fill="#6E8C96"/>
<path d="M12.7162 0H12.6914V4.33525H12.7162V0Z" fill="#6D8B95"/>
<path d="M12.7445 0H12.7197V4.33525H12.7445V0Z" fill="#6C8A94"/>
<path d="M12.7689 0H12.7441V4.33525H12.7689V0Z" fill="#6B8993"/>
<path d="M12.7934 0H12.7686V4.33525H12.7934V0Z" fill="#6A8892"/>
<path d="M12.8188 0H12.7939V4.33525H12.8188V0Z" fill="#698791"/>
<path d="M12.8461 0H12.8213V4.33525H12.8461V0Z" fill="#688690"/>
<path d="M12.8715 0H12.8467V4.33525H12.8715V0Z" fill="#67858F"/>
<path d="M12.8959 0H12.8711V4.33525H12.8959V0Z" fill="#66848E"/>
<path d="M12.9242 0H12.8994V4.33525H12.9242V0Z" fill="#65838D"/>
<path d="M12.9486 0H12.9238V4.33525H12.9486V0Z" fill="#65828C"/>
<path d="M12.974 0H12.9492V4.33525H12.974V0Z" fill="#64818B"/>
<path d="M13.0014 0H12.9766V4.33525H13.0014V0Z" fill="#63808A"/>
<path d="M13.0268 0H13.002V4.33525H13.0268V0Z" fill="#627F8A"/>
<path d="M13.0512 0H13.0264V4.33525H13.0512V0Z" fill="#617E89"/>
<path d="M13.0756 0H13.0508V4.33525H13.0756V0Z" fill="#607D88"/>
<path d="M13.1039 0H13.0791V4.33525H13.1039V0Z" fill="#5F7C87"/>
<path d="M13.1283 0H13.1035V4.33525H13.1283V0Z" fill="#5E7B86"/>
<path d="M13.1537 0H13.1289V4.33525H13.1537V0Z" fill="#5D7A85"/>
<path d="M13.1811 0H13.1562V4.33525H13.1811V0Z" fill="#5D7984"/>
<path d="M13.2064 0H13.1816V4.33525H13.2064V0Z" fill="#5C7983"/>
<path d="M13.2309 0H13.2061V4.33525H13.2309V0Z" fill="#5B7882"/>
<path d="M13.2592 0H13.2344V4.33525H13.2592V0Z" fill="#5A7781"/>
<path d="M13.2836 0H13.2588V4.33525H13.2836V0Z" fill="#597681"/>
<path d="M13.309 0H13.2842V4.33525H13.309V0Z" fill="#587580"/>
<path d="M13.3334 0H13.3086V4.33525H13.3334V0Z" fill="#57747F"/>
<path d="M13.3617 0H13.3369V4.33525H13.3617V0Z" fill="#56737E"/>
<path d="M13.3861 0H13.3613V4.33525H13.3861V0Z" fill="#55727D"/>
<path d="M13.4105 0H13.3857V4.33525H13.4105V0Z" fill="#55717C"/>
<path d="M13.4389 0H13.4141V4.33525H13.4389V0Z" fill="#54707B"/>
<path d="M13.4633 0H13.4385V4.33525H13.4633V0Z" fill="#536F7B"/>
<path d="M13.4887 0H13.4639V4.33525H13.4887V0Z" fill="#526E7A"/>
<path d="M13.516 0H13.4912V4.33525H13.516V0Z" fill="#516E79"/>
<path d="M13.5414 0H13.5166V4.33525H13.5414V0Z" fill="#506D78"/>
<path d="M13.5658 0H13.541V4.33525H13.5658V0Z" fill="#4F6C77"/>
<path d="M13.5941 0H13.5693V4.33525H13.5941V0Z" fill="#4F6B76"/>
<path d="M13.6186 0H13.5938V4.33525H13.6186V0Z" fill="#4E6A76"/>
<path d="M13.643 0H13.6182V4.33525H13.643V0Z" fill="#4D6975"/>
<path d="M13.6684 0H13.6436V4.33525H13.6684V0Z" fill="#4C6874"/>
<path d="M13.6957 0H13.6709V4.33525H13.6957V0Z" fill="#4B6773"/>
<path d="M13.7211 0H13.6963V4.33525H13.7211V0Z" fill="#4A6772"/>
<path d="M13.7455 0H13.7207V4.33525H13.7455V0Z" fill="#496672"/>
<path d="M13.7738 0H13.749V4.33525H13.7738V0Z" fill="#496571"/>
<path d="M13.7982 0H13.7734V4.33525H13.7982V0Z" fill="#486470"/>
<path d="M13.8236 0H13.7988V4.33525H13.8236V0Z" fill="#47636F"/>
<path d="M13.851 0H13.8262V4.33525H13.851V0Z" fill="#46626E"/>
<path d="M13.8764 0H13.8516V4.33525H13.8764V0Z" fill="#45616E"/>
<path d="M13.9008 0H13.876V4.33525H13.9008V0Z" fill="#44616D"/>
<path d="M13.9252 0H13.9004V4.33525H13.9252V0Z" fill="#44606C"/>
<path d="M13.9535 0H13.9287V4.33525H13.9535V0Z" fill="#435F6B"/>
<path d="M13.9779 0H13.9531V4.33525H13.9779V0Z" fill="#425E6B"/>
<path d="M14.0033 0H13.9785V4.33525H14.0033V0Z" fill="#415D6A"/>
<path d="M14.0307 0H14.0059V4.33525H14.0307V0Z" fill="#405D69"/>
<path d="M14.0561 0H14.0312V4.33525H14.0561V0Z" fill="#3F5C68"/>
<path d="M14.0805 0H14.0557V4.33525H14.0805V0Z" fill="#3E5B67"/>
<path d="M14.1088 0H14.084V4.33525H14.1088V0Z" fill="#3E5A67"/>
<path d="M14.1332 0H14.1084V4.33525H14.1332V0Z" fill="#3D5966"/>
<path d="M14.1586 0H14.1338V4.33525H14.1586V0Z" fill="#3C5965"/>
<path d="M14.183 0H14.1582V4.33525H14.183V0Z" fill="#3B5865"/>
<path d="M14.2113 0H14.1865V4.33525H14.2113V0Z" fill="#3A5764"/>
<path d="M14.2357 0H14.2109V4.33525H14.2357V0Z" fill="#395663"/>
<path d="M14.2602 0H14.2354V4.33525H14.2602V0Z" fill="#385662"/>
<path d="M14.2885 0H14.2637V4.33525H14.2885V0Z" fill="#385562"/>
<path d="M14.3129 0H14.2881V4.33525H14.3129V0Z" fill="#375461"/>
<path d="M14.3383 0H14.3135V4.33525H14.3383V0Z" fill="#365360"/>
<path d="M14.3656 0H14.3408V4.33525H14.3656V0Z" fill="#355360"/>
<path d="M14.391 0H14.3662V4.33525H14.391V0Z" fill="#34525F"/>
<path d="M14.4154 0H14.3906V4.33525H14.4154V0Z" fill="#33515E"/>
<path d="M14.4408 0H14.416V4.33525H14.4408V0Z" fill="#33505E"/>
<path d="M14.4682 0H14.4434V4.33525H14.4682V0Z" fill="#32505D"/>
<path d="M14.4926 0H14.4678V4.33525H14.4926V0Z" fill="#314F5C"/>
<path d="M14.518 0H14.4932V4.33525H14.518V0Z" fill="#304E5C"/>
<path d="M14.5453 0H14.5205V4.33525H14.5453V0Z" fill="#2F4E5B"/>
<path d="M14.5707 0H14.5459V4.33525H14.5707V0Z" fill="#2E4D5A"/>
<path d="M14.5951 0H14.5703V4.33525H14.5951V0Z" fill="#2E4C5A"/>
<path d="M14.6234 0H14.5986V4.33525H14.6234V0Z" fill="#2D4B59"/>
<path d="M14.6479 0H14.623V4.33525H14.6479V0Z" fill="#2C4B58"/>
<path d="M14.6732 0H14.6484V4.33525H14.6732V0Z" fill="#2B4A58"/>
<path d="M14.6977 0H14.6729V4.33525H14.6977V0Z" fill="#2A4957"/>
<path d="M14.726 0H14.7012V4.33525H14.726V0Z" fill="#294956"/>
<path d="M14.7504 0H14.7256V4.33525H14.7504V0Z" fill="#284856"/>
<path d="M14.7748 0H14.75V4.33525H14.7748V0Z" fill="#284755"/>
<path d="M14.8031 0H14.7783V4.33525H14.8031V0Z" fill="#274754"/>
<path d="M14.8275 0H14.8027V4.33525H14.8275V0Z" fill="#264654"/>
<path d="M14.8529 0H14.8281V4.33525H14.8529V0Z" fill="#254553"/>
<path d="M14.8803 0H14.8555V4.33525H14.8803V0Z" fill="#244552"/>
<path d="M14.9057 0H14.8809V4.33525H14.9057V0Z" fill="#234452"/>
<path d="M14.9301 0H14.9053V4.33525H14.9301V0Z" fill="#224351"/>
<path d="M14.9555 0H14.9307V4.33525H14.9555V0Z" fill="#214350"/>
<path d="M14.9828 0H14.958V4.33525H14.9828V0Z" fill="#204250"/>
<path d="M15.0082 0H14.9834V4.33525H15.0082V0Z" fill="#1F414F"/>
<path d="M15.0326 0H15.0078V4.33525H15.0326V0Z" fill="#1E414F"/>
<path d="M15.0609 0H15.0361V4.33525H15.0609V0Z" fill="#1D404E"/>
<path d="M15.0854 0H15.0605V4.33525H15.0854V0Z" fill="#1C3F4D"/>
<path d="M15.1098 0H15.085V4.33525H15.1098V0Z" fill="#1B3F4D"/>
<path d="M15.1381 0H15.1133V4.33525H15.1381V0Z" fill="#1B3E4C"/>
<path d="M15.1625 0H15.1377V4.33525H15.1625V0Z" fill="#1A3D4C"/>
<path d="M15.1879 0H15.1631V4.33525H15.1879V0Z" fill="#193D4B"/>
<path d="M15.2152 0H15.1904V4.33525H15.2152V0Z" fill="#183C4A"/>
<path d="M15.2406 0H15.2158V4.33525H15.2406V0Z" fill="#173B4A"/>
<path d="M15.265 0H15.2402V4.33525H15.265V0Z" fill="#163B49"/>
<path d="M15.2904 0H15.2656V4.33525H15.2904V0Z" fill="#153A49"/>
<path d="M15.3178 0H15.293V4.33525H15.3178V0Z" fill="#133A48"/>
<path d="M15.3432 0H15.3184V4.33525H15.3432V0Z" fill="#123947"/>
<path d="M15.3676 0H15.3428V4.33525H15.3676V0Z" fill="#113847"/>
<path d="M15.3959 0H15.3711V4.33525H15.3959V0Z" fill="#103846"/>
<path d="M15.4203 0H15.3955V4.33525H15.4203V0Z" fill="#0F3746"/>
</g>
<mask id="mask3_3851_7541" style="mask-type:luminance" maskUnits="userSpaceOnUse" x="21" y="9" width="6" height="5">
<path d="M24.2023 13.4672C25.4251 13.4672 26.4163 12.4967 26.4163 11.2996C26.4163 10.1024 25.4251 9.13196 24.2023 9.13196C22.9795 9.13196 21.9883 10.1024 21.9883 11.2996C21.9883 12.4967 22.9795 13.4672 24.2023 13.4672Z" fill="white"/>
</mask>
<g mask="url(#mask3_3851_7541)">
<path d="M22.0131 9.13196H21.9883V13.4672H22.0131V9.13196Z" fill="#B7E2E2"/>
<path d="M22.0385 9.13196H22.0137V13.4672H22.0385V9.13196Z" fill="#B5DFE0"/>
<path d="M22.0629 9.13196H22.0381V13.4672H22.0629V9.13196Z" fill="#B3DDDE"/>
<path d="M22.0902 9.13196H22.0654V13.4672H22.0902V9.13196Z" fill="#B2DADC"/>
<path d="M22.1156 9.13196H22.0908V13.4672H22.1156V9.13196Z" fill="#B0D8DA"/>
<path d="M22.14 9.13196H22.1152V13.4672H22.14V9.13196Z" fill="#AFD7D9"/>
<path d="M22.1654 9.13196H22.1406V13.4672H22.1654V9.13196Z" fill="#AED5D7"/>
<path d="M22.1928 9.13196H22.168V13.4672H22.1928V9.13196Z" fill="#ACD3D6"/>
<path d="M22.2182 9.13196H22.1934V13.4672H22.2182V9.13196Z" fill="#ABD2D4"/>
<path d="M22.2426 9.13196H22.2178V13.4672H22.2426V9.13196Z" fill="#AAD0D3"/>
<path d="M22.2709 9.13196H22.2461V13.4672H22.2709V9.13196Z" fill="#A8CFD2"/>
<path d="M22.2953 9.13196H22.2705V13.4672H22.2953V9.13196Z" fill="#A7CDD0"/>
<path d="M22.3197 9.13196H22.2949V13.4672H22.3197V9.13196Z" fill="#A6CCCF"/>
<path d="M22.348 9.13196H22.3232V13.4672H22.348V9.13196Z" fill="#A5CACE"/>
<path d="M22.3725 9.13196H22.3477V13.4672H22.3725V9.13196Z" fill="#A4C9CD"/>
<path d="M22.3979 9.13196H22.373V13.4672H22.3979V9.13196Z" fill="#A2C8CB"/>
<path d="M22.4252 9.13196H22.4004V13.4672H22.4252V9.13196Z" fill="#A1C6CA"/>
<path d="M22.4506 9.13196H22.4258V13.4672H22.4506V9.13196Z" fill="#A0C5C9"/>
<path d="M22.475 9.13196H22.4502V13.4672H22.475V9.13196Z" fill="#9FC3C8"/>
<path d="M22.5004 9.13196H22.4756V13.4672H22.5004V9.13196Z" fill="#9EC2C7"/>
<path d="M22.5277 9.13196H22.5029V13.4672H22.5277V9.13196Z" fill="#9CC1C5"/>
<path d="M22.5522 9.13196H22.5273V13.4672H22.5522V9.13196Z" fill="#9BC0C4"/>
<path d="M22.5775 9.13196H22.5527V13.4672H22.5775V9.13196Z" fill="#9ABEC3"/>
<path d="M22.6049 9.13196H22.5801V13.4672H22.6049V9.13196Z" fill="#99BDC2"/>
<path d="M22.6303 9.13196H22.6055V13.4672H22.6303V9.13196Z" fill="#98BCC1"/>
<path d="M22.6547 9.13196H22.6299V13.4672H22.6547V9.13196Z" fill="#97BAC0"/>
<path d="M22.683 9.13196H22.6582V13.4672H22.683V9.13196Z" fill="#95B9BE"/>
<path d="M22.7074 9.13196H22.6826V13.4672H22.7074V9.13196Z" fill="#94B8BD"/>
<path d="M22.7328 9.13196H22.708V13.4672H22.7328V9.13196Z" fill="#93B7BC"/>
<path d="M22.7572 9.13196H22.7324V13.4672H22.7572V9.13196Z" fill="#92B5BB"/>
<path d="M22.7855 9.13196H22.7607V13.4672H22.7855V9.13196Z" fill="#91B4BA"/>
<path d="M22.81 9.13196H22.7852V13.4672H22.81V9.13196Z" fill="#90B3B9"/>
<path d="M22.8344 9.13196H22.8096V13.4672H22.8344V9.13196Z" fill="#8FB2B8"/>
<path d="M22.8627 9.13196H22.8379V13.4672H22.8627V9.13196Z" fill="#8EB0B7"/>
<path d="M22.8871 9.13196H22.8623V13.4672H22.8871V9.13196Z" fill="#8DAFB6"/>
<path d="M22.9125 9.13196H22.8877V13.4672H22.9125V9.13196Z" fill="#8CAEB4"/>
<path d="M22.9398 9.13196H22.915V13.4672H22.9398V9.13196Z" fill="#8BADB3"/>
<path d="M22.9652 9.13196H22.9404V13.4672H22.9652V9.13196Z" fill="#8AABB2"/>
<path d="M22.9897 9.13196H22.9648V13.4672H22.9897V9.13196Z" fill="#88AAB1"/>
<path d="M23.015 9.13196H22.9902V13.4672H23.015V9.13196Z" fill="#87A9B0"/>
<path d="M23.0424 9.13196H23.0176V13.4672H23.0424V9.13196Z" fill="#86A8AF"/>
<path d="M23.0678 9.13196H23.043V13.4672H23.0678V9.13196Z" fill="#85A7AE"/>
<path d="M23.0922 9.13196H23.0674V13.4672H23.0922V9.13196Z" fill="#84A6AD"/>
<path d="M23.1205 9.13196H23.0957V13.4672H23.1205V9.13196Z" fill="#83A4AC"/>
<path d="M23.1449 9.13196H23.1201V13.4672H23.1449V9.13196Z" fill="#82A3AB"/>
<path d="M23.1693 9.13196H23.1445V13.4672H23.1693V9.13196Z" fill="#81A2AA"/>
<path d="M23.1977 9.13196H23.1729V13.4672H23.1977V9.13196Z" fill="#80A1A9"/>
<path d="M23.2221 9.13196H23.1973V13.4672H23.2221V9.13196Z" fill="#7FA0A8"/>
<path d="M23.2475 9.13196H23.2227V13.4672H23.2475V9.13196Z" fill="#7E9FA7"/>
<path d="M23.2719 9.13196H23.2471V13.4672H23.2719V9.13196Z" fill="#7D9EA6"/>
<path d="M23.3002 9.13196H23.2754V13.4672H23.3002V9.13196Z" fill="#7C9CA5"/>
<path d="M23.3246 9.13196H23.2998V13.4672H23.3246V9.13196Z" fill="#7B9BA4"/>
<path d="M23.35 9.13196H23.3252V13.4672H23.35V9.13196Z" fill="#7A9AA3"/>
<path d="M23.3773 9.13196H23.3525V13.4672H23.3773V9.13196Z" fill="#7999A2"/>
<path d="M23.4027 9.13196H23.3779V13.4672H23.4027V9.13196Z" fill="#7898A1"/>
<path d="M23.4272 9.13196H23.4023V13.4672H23.4272V9.13196Z" fill="#7797A0"/>
<path d="M23.4555 9.13196H23.4307V13.4672H23.4555V9.13196Z" fill="#76969F"/>
<path d="M23.4799 9.13196H23.4551V13.4672H23.4799V9.13196Z" fill="#75959E"/>
<path d="M23.5043 9.13196H23.4795V13.4672H23.5043V9.13196Z" fill="#74949D"/>
<path d="M23.5297 9.13196H23.5049V13.4672H23.5297V9.13196Z" fill="#73939C"/>
<path d="M23.557 9.13196H23.5322V13.4672H23.557V9.13196Z" fill="#72929B"/>
<path d="M23.5824 9.13196H23.5576V13.4672H23.5824V9.13196Z" fill="#71919A"/>
<path d="M23.6068 9.13196H23.582V13.4672H23.6068V9.13196Z" fill="#709099"/>
<path d="M23.6352 9.13196H23.6104V13.4672H23.6352V9.13196Z" fill="#6F8E98"/>
<path d="M23.6596 9.13196H23.6348V13.4672H23.6596V9.13196Z" fill="#6F8D97"/>
<path d="M23.684 9.13196H23.6592V13.4672H23.684V9.13196Z" fill="#6E8C96"/>
<path d="M23.7123 9.13196H23.6875V13.4672H23.7123V9.13196Z" fill="#6D8B95"/>
<path d="M23.7367 9.13196H23.7119V13.4672H23.7367V9.13196Z" fill="#6C8A94"/>
<path d="M23.7621 9.13196H23.7373V13.4672H23.7621V9.13196Z" fill="#6B8993"/>
<path d="M23.7895 9.13196H23.7646V13.4672H23.7895V9.13196Z" fill="#6A8892"/>
<path d="M23.8148 9.13196H23.79V13.4672H23.8148V9.13196Z" fill="#698791"/>
<path d="M23.8393 9.13196H23.8145V13.4672H23.8393V9.13196Z" fill="#688690"/>
<path d="M23.8647 9.13196H23.8398V13.4672H23.8647V9.13196Z" fill="#67858F"/>
<path d="M23.892 9.13196H23.8672V13.4672H23.892V9.13196Z" fill="#66848E"/>
<path d="M23.9174 9.13196H23.8926V13.4672H23.9174V9.13196Z" fill="#65838D"/>
<path d="M23.9418 9.13196H23.917V13.4672H23.9418V9.13196Z" fill="#65828C"/>
<path d="M23.9701 9.13196H23.9453V13.4672H23.9701V9.13196Z" fill="#64818B"/>
<path d="M23.9945 9.13196H23.9697V13.4672H23.9945V9.13196Z" fill="#63808A"/>
<path d="M24.0189 9.13196H23.9941V13.4672H24.0189V9.13196Z" fill="#627F8A"/>
<path d="M24.0473 9.13196H24.0225V13.4672H24.0473V9.13196Z" fill="#617E89"/>
<path d="M24.0717 9.13196H24.0469V13.4672H24.0717V9.13196Z" fill="#607D88"/>
<path d="M24.0971 9.13196H24.0723V13.4672H24.0971V9.13196Z" fill="#5F7C87"/>
<path d="M24.1215 9.13196H24.0967V13.4672H24.1215V9.13196Z" fill="#5E7B86"/>
<path d="M24.1498 9.13196H24.125V13.4672H24.1498V9.13196Z" fill="#5D7A85"/>
<path d="M24.1742 9.13196H24.1494V13.4672H24.1742V9.13196Z" fill="#5D7984"/>
<path d="M24.1996 9.13196H24.1748V13.4672H24.1996V9.13196Z" fill="#5C7983"/>
<path d="M24.227 9.13196H24.2021V13.4672H24.227V9.13196Z" fill="#5B7882"/>
<path d="M24.2523 9.13196H24.2275V13.4672H24.2523V9.13196Z" fill="#5A7781"/>
<path d="M24.2768 9.13196H24.252V13.4672H24.2768V9.13196Z" fill="#597681"/>
<path d="M24.3051 9.13196H24.2803V13.4672H24.3051V9.13196Z" fill="#587580"/>
<path d="M24.3295 9.13196H24.3047V13.4672H24.3295V9.13196Z" fill="#57747F"/>
<path d="M24.3539 9.13196H24.3291V13.4672H24.3539V9.13196Z" fill="#56737E"/>
<path d="M24.3793 9.13196H24.3545V13.4672H24.3793V9.13196Z" fill="#55727D"/>
<path d="M24.4066 9.13196H24.3818V13.4672H24.4066V9.13196Z" fill="#55717C"/>
<path d="M24.432 9.13196H24.4072V13.4672H24.432V9.13196Z" fill="#54707B"/>
<path d="M24.4564 9.13196H24.4316V13.4672H24.4564V9.13196Z" fill="#536F7B"/>
<path d="M24.4848 9.13196H24.46V13.4672H24.4848V9.13196Z" fill="#526E7A"/>
<path d="M24.5092 9.13196H24.4844V13.4672H24.5092V9.13196Z" fill="#516E79"/>
<path d="M24.5346 9.13196H24.5098V13.4672H24.5346V9.13196Z" fill="#506D78"/>
<path d="M24.5619 9.13196H24.5371V13.4672H24.5619V9.13196Z" fill="#4F6C77"/>
<path d="M24.5863 9.13196H24.5615V13.4672H24.5863V9.13196Z" fill="#4F6B76"/>
<path d="M24.6117 9.13196H24.5869V13.4672H24.6117V9.13196Z" fill="#4E6A76"/>
<path d="M24.6361 9.13196H24.6113V13.4672H24.6361V9.13196Z" fill="#4D6975"/>
<path d="M24.6645 9.13196H24.6396V13.4672H24.6645V9.13196Z" fill="#4C6874"/>
<path d="M24.6889 9.13196H24.6641V13.4672H24.6889V9.13196Z" fill="#4B6773"/>
<path d="M24.7143 9.13196H24.6895V13.4672H24.7143V9.13196Z" fill="#4A6772"/>
<path d="M24.7416 9.13196H24.7168V13.4672H24.7416V9.13196Z" fill="#496672"/>
<path d="M24.767 9.13196H24.7422V13.4672H24.767V9.13196Z" fill="#496571"/>
<path d="M24.7914 9.13196H24.7666V13.4672H24.7914V9.13196Z" fill="#486470"/>
<path d="M24.8197 9.13196H24.7949V13.4672H24.8197V9.13196Z" fill="#47636F"/>
<path d="M24.8441 9.13196H24.8193V13.4672H24.8441V9.13196Z" fill="#46626E"/>
<path d="M24.8686 9.13196H24.8438V13.4672H24.8686V9.13196Z" fill="#45616E"/>
<path d="M24.8939 9.13196H24.8691V13.4672H24.8939V9.13196Z" fill="#44616D"/>
<path d="M24.9213 9.13196H24.8965V13.4672H24.9213V9.13196Z" fill="#44606C"/>
<path d="M24.9467 9.13196H24.9219V13.4672H24.9467V9.13196Z" fill="#435F6B"/>
<path d="M24.9711 9.13196H24.9463V13.4672H24.9711V9.13196Z" fill="#425E6B"/>
<path d="M24.9994 9.13196H24.9746V13.4672H24.9994V9.13196Z" fill="#415D6A"/>
<path d="M25.0238 9.13196H24.999V13.4672H25.0238V9.13196Z" fill="#405D69"/>
<path d="M25.0492 9.13196H25.0244V13.4672H25.0492V9.13196Z" fill="#3F5C68"/>
<path d="M25.0766 9.13196H25.0518V13.4672H25.0766V9.13196Z" fill="#3E5B67"/>
<path d="M25.102 9.13196H25.0771V13.4672H25.102V9.13196Z" fill="#3E5A67"/>
<path d="M25.1264 9.13196H25.1016V13.4672H25.1264V9.13196Z" fill="#3D5966"/>
<path d="M25.1508 9.13196H25.126V13.4672H25.1508V9.13196Z" fill="#3C5965"/>
<path d="M25.1791 9.13196H25.1543V13.4672H25.1791V9.13196Z" fill="#3B5865"/>
<path d="M25.2035 9.13196H25.1787V13.4672H25.2035V9.13196Z" fill="#3A5764"/>
<path d="M25.2289 9.13196H25.2041V13.4672H25.2289V9.13196Z" fill="#395663"/>
<path d="M25.2563 9.13196H25.2314V13.4672H25.2563V9.13196Z" fill="#385662"/>
<path d="M25.2816 9.13196H25.2568V13.4672H25.2816V9.13196Z" fill="#385562"/>
<path d="M25.3061 9.13196H25.2812V13.4672H25.3061V9.13196Z" fill="#375461"/>
<path d="M25.3344 9.13196H25.3096V13.4672H25.3344V9.13196Z" fill="#365360"/>
<path d="M25.3588 9.13196H25.334V13.4672H25.3588V9.13196Z" fill="#355360"/>
<path d="M25.3842 9.13196H25.3594V13.4672H25.3842V9.13196Z" fill="#34525F"/>
<path d="M25.4115 9.13196H25.3867V13.4672H25.4115V9.13196Z" fill="#33515E"/>
<path d="M25.4369 9.13196H25.4121V13.4672H25.4369V9.13196Z" fill="#33505E"/>
<path d="M25.4613 9.13196H25.4365V13.4672H25.4613V9.13196Z" fill="#32505D"/>
<path d="M25.4857 9.13196H25.4609V13.4672H25.4857V9.13196Z" fill="#314F5C"/>
<path d="M25.5141 9.13196H25.4893V13.4672H25.5141V9.13196Z" fill="#304E5C"/>
<path d="M25.5385 9.13196H25.5137V13.4672H25.5385V9.13196Z" fill="#2F4E5B"/>
<path d="M25.5639 9.13196H25.5391V13.4672H25.5639V9.13196Z" fill="#2E4D5A"/>
<path d="M25.5912 9.13196H25.5664V13.4672H25.5912V9.13196Z" fill="#2E4C5A"/>
<path d="M25.6166 9.13196H25.5918V13.4672H25.6166V9.13196Z" fill="#2D4B59"/>
<path d="M25.641 9.13196H25.6162V13.4672H25.641V9.13196Z" fill="#2C4B58"/>
<path d="M25.6693 9.13196H25.6445V13.4672H25.6693V9.13196Z" fill="#2B4A58"/>
<path d="M25.6938 9.13196H25.6689V13.4672H25.6938V9.13196Z" fill="#2A4957"/>
<path d="M25.7182 9.13196H25.6934V13.4672H25.7182V9.13196Z" fill="#294956"/>
<path d="M25.7436 9.13196H25.7188V13.4672H25.7436V9.13196Z" fill="#284856"/>
<path d="M25.7709 9.13196H25.7461V13.4672H25.7709V9.13196Z" fill="#284755"/>
<path d="M25.7963 9.13196H25.7715V13.4672H25.7963V9.13196Z" fill="#274754"/>
<path d="M25.8207 9.13196H25.7959V13.4672H25.8207V9.13196Z" fill="#264654"/>
<path d="M25.849 9.13196H25.8242V13.4672H25.849V9.13196Z" fill="#254553"/>
<path d="M25.8734 9.13196H25.8486V13.4672H25.8734V9.13196Z" fill="#244552"/>
<path d="M25.8988 9.13196H25.874V13.4672H25.8988V9.13196Z" fill="#234452"/>
<path d="M25.9262 9.13196H25.9014V13.4672H25.9262V9.13196Z" fill="#224351"/>
<path d="M25.9516 9.13196H25.9268V13.4672H25.9516V9.13196Z" fill="#214350"/>
<path d="M25.976 9.13196H25.9512V13.4672H25.976V9.13196Z" fill="#204250"/>
<path d="M26.0004 9.13196H25.9756V13.4672H26.0004V9.13196Z" fill="#1F414F"/>
<path d="M26.0287 9.13196H26.0039V13.4672H26.0287V9.13196Z" fill="#1E414F"/>
<path d="M26.0531 9.13196H26.0283V13.4672H26.0531V9.13196Z" fill="#1D404E"/>
<path d="M26.0785 9.13196H26.0537V13.4672H26.0785V9.13196Z" fill="#1C3F4D"/>
<path d="M26.1059 9.13196H26.0811V13.4672H26.1059V9.13196Z" fill="#1B3F4D"/>
<path d="M26.1313 9.13196H26.1064V13.4672H26.1313V9.13196Z" fill="#1B3E4C"/>
<path d="M26.1557 9.13196H26.1309V13.4672H26.1557V9.13196Z" fill="#1A3D4C"/>
<path d="M26.184 9.13196H26.1592V13.4672H26.184V9.13196Z" fill="#193D4B"/>
<path d="M26.2084 9.13196H26.1836V13.4672H26.2084V9.13196Z" fill="#183C4A"/>
<path d="M26.2338 9.13196H26.209V13.4672H26.2338V9.13196Z" fill="#173B4A"/>
<path d="M26.2582 9.13196H26.2334V13.4672H26.2582V9.13196Z" fill="#163B49"/>
<path d="M26.2865 9.13196H26.2617V13.4672H26.2865V9.13196Z" fill="#153A49"/>
<path d="M26.3109 9.13196H26.2861V13.4672H26.3109V9.13196Z" fill="#133A48"/>
<path d="M26.3354 9.13196H26.3105V13.4672H26.3354V9.13196Z" fill="#123947"/>
<path d="M26.3637 9.13196H26.3389V13.4672H26.3637V9.13196Z" fill="#113847"/>
<path d="M26.3881 9.13196H26.3633V13.4672H26.3881V9.13196Z" fill="#103846"/>
<path d="M26.4135 9.13196H26.3887V13.4672H26.4135V9.13196Z" fill="#0F3746"/>
</g>
<mask id="mask4_3851_7541" style="mask-type:luminance" maskUnits="userSpaceOnUse" x="22" y="23" width="5" height="5">
<path d="M24.2863 28C25.5091 28 26.5003 27.0296 26.5003 25.8324C26.5003 24.6353 25.5091 23.6648 24.2863 23.6648C23.0635 23.6648 22.0723 24.6353 22.0723 25.8324C22.0723 27.0296 23.0635 28 24.2863 28Z" fill="white"/>
</mask>
<g mask="url(#mask4_3851_7541)">
<path d="M22.0971 23.6648H22.0723V28H22.0971V23.6648Z" fill="#B7E2E2"/>
<path d="M22.1225 23.6648H22.0977V28H22.1225V23.6648Z" fill="#B5DFE0"/>
<path d="M22.1498 23.6648H22.125V28H22.1498V23.6648Z" fill="#B3DDDE"/>
<path d="M22.1742 23.6648H22.1494V28H22.1742V23.6648Z" fill="#B2DADC"/>
<path d="M22.1996 23.6648H22.1748V28H22.1996V23.6648Z" fill="#B0D8DA"/>
<path d="M22.227 23.6648H22.2021V28H22.227V23.6648Z" fill="#AFD7D9"/>
<path d="M22.2523 23.6648H22.2275V28H22.2523V23.6648Z" fill="#AED5D7"/>
<path d="M22.2768 23.6648H22.252V28H22.2768V23.6648Z" fill="#ACD3D6"/>
<path d="M22.3022 23.6648H22.2773V28H22.3022V23.6648Z" fill="#ABD2D4"/>
<path d="M22.3295 23.6648H22.3047V28H22.3295V23.6648Z" fill="#AAD0D3"/>
<path d="M22.3549 23.6648H22.3301V28H22.3549V23.6648Z" fill="#A8CFD2"/>
<path d="M22.3793 23.6648H22.3545V28H22.3793V23.6648Z" fill="#A7CDD0"/>
<path d="M22.4076 23.6648H22.3828V28H22.4076V23.6648Z" fill="#A6CCCF"/>
<path d="M22.432 23.6648H22.4072V28H22.432V23.6648Z" fill="#A5CACE"/>
<path d="M22.4564 23.6648H22.4316V28H22.4564V23.6648Z" fill="#A4C9CD"/>
<path d="M22.4848 23.6648H22.46V28H22.4848V23.6648Z" fill="#A2C8CB"/>
<path d="M22.5092 23.6648H22.4844V28H22.5092V23.6648Z" fill="#A1C6CA"/>
<path d="M22.5346 23.6648H22.5098V28H22.5346V23.6648Z" fill="#A0C5C9"/>
<path d="M22.559 23.6648H22.5342V28H22.559V23.6648Z" fill="#9FC3C8"/>
<path d="M22.5873 23.6648H22.5625V28H22.5873V23.6648Z" fill="#9EC2C7"/>
<path d="M22.6117 23.6648H22.5869V28H22.6117V23.6648Z" fill="#9CC1C5"/>
<path d="M22.6361 23.6648H22.6113V28H22.6361V23.6648Z" fill="#9BC0C4"/>
<path d="M22.6645 23.6648H22.6396V28H22.6645V23.6648Z" fill="#9ABEC3"/>
<path d="M22.6889 23.6648H22.6641V28H22.6889V23.6648Z" fill="#99BDC2"/>
<path d="M22.7143 23.6648H22.6895V28H22.7143V23.6648Z" fill="#98BCC1"/>
<path d="M22.7416 23.6648H22.7168V28H22.7416V23.6648Z" fill="#97BAC0"/>
<path d="M22.767 23.6648H22.7422V28H22.767V23.6648Z" fill="#95B9BE"/>
<path d="M22.7914 23.6648H22.7666V28H22.7914V23.6648Z" fill="#94B8BD"/>
<path d="M22.8168 23.6648H22.792V28H22.8168V23.6648Z" fill="#93B7BC"/>
<path d="M22.8441 23.6648H22.8193V28H22.8441V23.6648Z" fill="#92B5BB"/>
<path d="M22.8695 23.6648H22.8447V28H22.8695V23.6648Z" fill="#91B4BA"/>
<path d="M22.8939 23.6648H22.8691V28H22.8939V23.6648Z" fill="#90B3B9"/>
<path d="M22.9223 23.6648H22.8975V28H22.9223V23.6648Z" fill="#8FB2B8"/>
<path d="M22.9467 23.6648H22.9219V28H22.9467V23.6648Z" fill="#8EB0B7"/>
<path d="M22.9711 23.6648H22.9463V28H22.9711V23.6648Z" fill="#8DAFB6"/>
<path d="M22.9994 23.6648H22.9746V28H22.9994V23.6648Z" fill="#8CAEB4"/>
<path d="M23.0238 23.6648H22.999V28H23.0238V23.6648Z" fill="#8BADB3"/>
<path d="M23.0492 23.6648H23.0244V28H23.0492V23.6648Z" fill="#8AABB2"/>
<path d="M23.0736 23.6648H23.0488V28H23.0736V23.6648Z" fill="#88AAB1"/>
<path d="M23.102 23.6648H23.0771V28H23.102V23.6648Z" fill="#87A9B0"/>
<path d="M23.1264 23.6648H23.1016V28H23.1264V23.6648Z" fill="#86A8AF"/>
<path d="M23.1518 23.6648H23.127V28H23.1518V23.6648Z" fill="#85A7AE"/>
<path d="M23.1791 23.6648H23.1543V28H23.1791V23.6648Z" fill="#84A6AD"/>
<path d="M23.2045 23.6648H23.1797V28H23.2045V23.6648Z" fill="#83A4AC"/>
<path d="M23.2289 23.6648H23.2041V28H23.2289V23.6648Z" fill="#82A3AB"/>
<path d="M23.2572 23.6648H23.2324V28H23.2572V23.6648Z" fill="#81A2AA"/>
<path d="M23.2816 23.6648H23.2568V28H23.2816V23.6648Z" fill="#80A1A9"/>
<path d="M23.3061 23.6648H23.2812V28H23.3061V23.6648Z" fill="#7FA0A8"/>
<path d="M23.3344 23.6648H23.3096V28H23.3344V23.6648Z" fill="#7E9FA7"/>
<path d="M23.3588 23.6648H23.334V28H23.3588V23.6648Z" fill="#7D9EA6"/>
<path d="M23.3842 23.6648H23.3594V28H23.3842V23.6648Z" fill="#7C9CA5"/>
<path d="M23.4086 23.6648H23.3838V28H23.4086V23.6648Z" fill="#7B9BA4"/>
<path d="M23.4369 23.6648H23.4121V28H23.4369V23.6648Z" fill="#7A9AA3"/>
<path d="M23.4613 23.6648H23.4365V28H23.4613V23.6648Z" fill="#7999A2"/>
<path d="M23.4867 23.6648H23.4619V28H23.4867V23.6648Z" fill="#7898A1"/>
<path d="M23.5141 23.6648H23.4893V28H23.5141V23.6648Z" fill="#7797A0"/>
<path d="M23.5395 23.6648H23.5146V28H23.5395V23.6648Z" fill="#76969F"/>
<path d="M23.5639 23.6648H23.5391V28H23.5639V23.6648Z" fill="#75959E"/>
<path d="M23.5912 23.6648H23.5664V28H23.5912V23.6648Z" fill="#74949D"/>
<path d="M23.6166 23.6648H23.5918V28H23.6166V23.6648Z" fill="#73939C"/>
<path d="M23.641 23.6648H23.6162V28H23.641V23.6648Z" fill="#72929B"/>
<path d="M23.6664 23.6648H23.6416V28H23.6664V23.6648Z" fill="#71919A"/>
<path d="M23.6938 23.6648H23.6689V28H23.6938V23.6648Z" fill="#709099"/>
<path d="M23.7191 23.6648H23.6943V28H23.7191V23.6648Z" fill="#6F8E98"/>
<path d="M23.7436 23.6648H23.7188V28H23.7436V23.6648Z" fill="#6F8D97"/>
<path d="M23.7719 23.6648H23.7471V28H23.7719V23.6648Z" fill="#6E8C96"/>
<path d="M23.7963 23.6648H23.7715V28H23.7963V23.6648Z" fill="#6D8B95"/>
<path d="M23.8207 23.6648H23.7959V28H23.8207V23.6648Z" fill="#6C8A94"/>
<path d="M23.849 23.6648H23.8242V28H23.849V23.6648Z" fill="#6B8993"/>
<path d="M23.8734 23.6648H23.8486V28H23.8734V23.6648Z" fill="#6A8892"/>
<path d="M23.8988 23.6648H23.874V28H23.8988V23.6648Z" fill="#698791"/>
<path d="M23.9232 23.6648H23.8984V28H23.9232V23.6648Z" fill="#688690"/>
<path d="M23.9516 23.6648H23.9268V28H23.9516V23.6648Z" fill="#67858F"/>
<path d="M23.976 23.6648H23.9512V28H23.976V23.6648Z" fill="#66848E"/>
<path d="M24.0014 23.6648H23.9766V28H24.0014V23.6648Z" fill="#65838D"/>
<path d="M24.0287 23.6648H24.0039V28H24.0287V23.6648Z" fill="#65828C"/>
<path d="M24.0541 23.6648H24.0293V28H24.0541V23.6648Z" fill="#64818B"/>
<path d="M24.0785 23.6648H24.0537V28H24.0785V23.6648Z" fill="#63808A"/>
<path d="M24.1068 23.6648H24.082V28H24.1068V23.6648Z" fill="#627F8A"/>
<path d="M24.1313 23.6648H24.1064V28H24.1313V23.6648Z" fill="#617E89"/>
<path d="M24.1557 23.6648H24.1309V28H24.1557V23.6648Z" fill="#607D88"/>
<path d="M24.1811 23.6648H24.1562V28H24.1811V23.6648Z" fill="#5F7C87"/>
<path d="M24.2084 23.6648H24.1836V28H24.2084V23.6648Z" fill="#5E7B86"/>
<path d="M24.2338 23.6648H24.209V28H24.2338V23.6648Z" fill="#5D7A85"/>
<path d="M24.2582 23.6648H24.2334V28H24.2582V23.6648Z" fill="#5D7984"/>
<path d="M24.2865 23.6648H24.2617V28H24.2865V23.6648Z" fill="#5C7983"/>
<path d="M24.3109 23.6648H24.2861V28H24.3109V23.6648Z" fill="#5B7882"/>
<path d="M24.3363 23.6648H24.3115V28H24.3363V23.6648Z" fill="#5A7781"/>
<path d="M24.3637 23.6648H24.3389V28H24.3637V23.6648Z" fill="#597681"/>
<path d="M24.3891 23.6648H24.3643V28H24.3891V23.6648Z" fill="#587580"/>
<path d="M24.4135 23.6648H24.3887V28H24.4135V23.6648Z" fill="#57747F"/>
<path d="M24.4379 23.6648H24.4131V28H24.4379V23.6648Z" fill="#56737E"/>
<path d="M24.4662 23.6648H24.4414V28H24.4662V23.6648Z" fill="#55727D"/>
<path d="M24.4906 23.6648H24.4658V28H24.4906V23.6648Z" fill="#55717C"/>
<path d="M24.516 23.6648H24.4912V28H24.516V23.6648Z" fill="#54707B"/>
<path d="M24.5434 23.6648H24.5186V28H24.5434V23.6648Z" fill="#536F7B"/>
<path d="M24.5688 23.6648H24.5439V28H24.5688V23.6648Z" fill="#526E7A"/>
<path d="M24.5932 23.6648H24.5684V28H24.5932V23.6648Z" fill="#516E79"/>
<path d="M24.6215 23.6648H24.5967V28H24.6215V23.6648Z" fill="#506D78"/>
<path d="M24.6459 23.6648H24.6211V28H24.6459V23.6648Z" fill="#4F6C77"/>
<path d="M24.6703 23.6648H24.6455V28H24.6703V23.6648Z" fill="#4F6B76"/>
<path d="M24.6957 23.6648H24.6709V28H24.6957V23.6648Z" fill="#4E6A76"/>
<path d="M24.723 23.6648H24.6982V28H24.723V23.6648Z" fill="#4D6975"/>
<path d="M24.7484 23.6648H24.7236V28H24.7484V23.6648Z" fill="#4C6874"/>
<path d="M24.7729 23.6648H24.748V28H24.7729V23.6648Z" fill="#4B6773"/>
<path d="M24.8012 23.6648H24.7764V28H24.8012V23.6648Z" fill="#4A6772"/>
<path d="M24.8256 23.6648H24.8008V28H24.8256V23.6648Z" fill="#496672"/>
<path d="M24.851 23.6648H24.8262V28H24.851V23.6648Z" fill="#496571"/>
<path d="M24.8783 23.6648H24.8535V28H24.8783V23.6648Z" fill="#486470"/>
<path d="M24.9037 23.6648H24.8789V28H24.9037V23.6648Z" fill="#47636F"/>
<path d="M24.9281 23.6648H24.9033V28H24.9281V23.6648Z" fill="#46626E"/>
<path d="M24.9564 23.6648H24.9316V28H24.9564V23.6648Z" fill="#45616E"/>
<path d="M24.9809 23.6648H24.9561V28H24.9809V23.6648Z" fill="#44616D"/>
<path d="M25.0053 23.6648H24.9805V28H25.0053V23.6648Z" fill="#44606C"/>
<path d="M25.0307 23.6648H25.0059V28H25.0307V23.6648Z" fill="#435F6B"/>
<path d="M25.058 23.6648H25.0332V28H25.058V23.6648Z" fill="#425E6B"/>
<path d="M25.0834 23.6648H25.0586V28H25.0834V23.6648Z" fill="#415D6A"/>
<path d="M25.1078 23.6648H25.083V28H25.1078V23.6648Z" fill="#405D69"/>
<path d="M25.1361 23.6648H25.1113V28H25.1361V23.6648Z" fill="#3F5C68"/>
<path d="M25.1605 23.6648H25.1357V28H25.1605V23.6648Z" fill="#3E5B67"/>
<path d="M25.1859 23.6648H25.1611V28H25.1859V23.6648Z" fill="#3E5A67"/>
<path d="M25.2133 23.6648H25.1885V28H25.2133V23.6648Z" fill="#3D5966"/>
<path d="M25.2387 23.6648H25.2139V28H25.2387V23.6648Z" fill="#3C5965"/>
<path d="M25.2631 23.6648H25.2383V28H25.2631V23.6648Z" fill="#3B5865"/>
<path d="M25.2875 23.6648H25.2627V28H25.2875V23.6648Z" fill="#3A5764"/>
<path d="M25.3158 23.6648H25.291V28H25.3158V23.6648Z" fill="#395663"/>
<path d="M25.3402 23.6648H25.3154V28H25.3402V23.6648Z" fill="#385662"/>
<path d="M25.3656 23.6648H25.3408V28H25.3656V23.6648Z" fill="#385562"/>
<path d="M25.393 23.6648H25.3682V28H25.393V23.6648Z" fill="#375461"/>
<path d="M25.4184 23.6648H25.3936V28H25.4184V23.6648Z" fill="#365360"/>
<path d="M25.4428 23.6648H25.418V28H25.4428V23.6648Z" fill="#355360"/>
<path d="M25.4711 23.6648H25.4463V28H25.4711V23.6648Z" fill="#34525F"/>
<path d="M25.4955 23.6648H25.4707V28H25.4955V23.6648Z" fill="#33515E"/>
<path d="M25.5209 23.6648H25.4961V28H25.5209V23.6648Z" fill="#33505E"/>
<path d="M25.5453 23.6648H25.5205V28H25.5453V23.6648Z" fill="#32505D"/>
<path d="M25.5727 23.6648H25.5479V28H25.5727V23.6648Z" fill="#314F5C"/>
<path d="M25.598 23.6648H25.5732V28H25.598V23.6648Z" fill="#304E5C"/>
<path d="M25.6225 23.6648H25.5977V28H25.6225V23.6648Z" fill="#2F4E5B"/>
<path d="M25.6508 23.6648H25.626V28H25.6508V23.6648Z" fill="#2E4D5A"/>
<path d="M25.6752 23.6648H25.6504V28H25.6752V23.6648Z" fill="#2E4C5A"/>
<path d="M25.7006 23.6648H25.6758V28H25.7006V23.6648Z" fill="#2D4B59"/>
<path d="M25.7279 23.6648H25.7031V28H25.7279V23.6648Z" fill="#2C4B58"/>
<path d="M25.7533 23.6648H25.7285V28H25.7533V23.6648Z" fill="#2B4A58"/>
<path d="M25.7777 23.6648H25.7529V28H25.7777V23.6648Z" fill="#2A4957"/>
<path d="M25.8022 23.6648H25.7773V28H25.8022V23.6648Z" fill="#294956"/>
<path d="M25.8305 23.6648H25.8057V28H25.8305V23.6648Z" fill="#284856"/>
<path d="M25.8549 23.6648H25.8301V28H25.8549V23.6648Z" fill="#284755"/>
<path d="M25.8803 23.6648H25.8555V28H25.8803V23.6648Z" fill="#274754"/>
<path d="M25.9076 23.6648H25.8828V28H25.9076V23.6648Z" fill="#264654"/>
<path d="M25.933 23.6648H25.9082V28H25.933V23.6648Z" fill="#254553"/>
<path d="M25.9574 23.6648H25.9326V28H25.9574V23.6648Z" fill="#244552"/>
<path d="M25.9857 23.6648H25.9609V28H25.9857V23.6648Z" fill="#234452"/>
<path d="M26.0102 23.6648H25.9854V28H26.0102V23.6648Z" fill="#224351"/>
<path d="M26.0355 23.6648H26.0107V28H26.0355V23.6648Z" fill="#214350"/>
<path d="M26.06 23.6648H26.0352V28H26.06V23.6648Z" fill="#204250"/>
<path d="M26.0883 23.6648H26.0635V28H26.0883V23.6648Z" fill="#1F414F"/>
<path d="M26.1127 23.6648H26.0879V28H26.1127V23.6648Z" fill="#1E414F"/>
<path d="M26.1371 23.6648H26.1123V28H26.1371V23.6648Z" fill="#1D404E"/>
<path d="M26.1654 23.6648H26.1406V28H26.1654V23.6648Z" fill="#1C3F4D"/>
<path d="M26.1898 23.6648H26.165V28H26.1898V23.6648Z" fill="#1B3F4D"/>
<path d="M26.2152 23.6648H26.1904V28H26.2152V23.6648Z" fill="#1B3E4C"/>
<path d="M26.2426 23.6648H26.2178V28H26.2426V23.6648Z" fill="#1A3D4C"/>
<path d="M26.268 23.6648H26.2432V28H26.268V23.6648Z" fill="#193D4B"/>
<path d="M26.2924 23.6648H26.2676V28H26.2924V23.6648Z" fill="#183C4A"/>
<path d="M26.3207 23.6648H26.2959V28H26.3207V23.6648Z" fill="#173B4A"/>
<path d="M26.3451 23.6648H26.3203V28H26.3451V23.6648Z" fill="#163B49"/>
<path d="M26.3705 23.6648H26.3457V28H26.3705V23.6648Z" fill="#153A49"/>
<path d="M26.3949 23.6648H26.3701V28H26.3949V23.6648Z" fill="#133A48"/>
<path d="M26.4232 23.6648H26.3984V28H26.4232V23.6648Z" fill="#123947"/>
<path d="M26.4477 23.6648H26.4229V28H26.4477V23.6648Z" fill="#113847"/>
<path d="M26.4721 23.6648H26.4473V28H26.4721V23.6648Z" fill="#103846"/>
<path d="M26.5004 23.6648H26.4756V28H26.5004V23.6648Z" fill="#0F3746"/>
</g>
<mask id="mask5_3851_7541" style="mask-type:luminance" maskUnits="userSpaceOnUse" x="0" y="23" width="5" height="5">
<path d="M2.298 28C3.52077 28 4.51202 27.0296 4.51202 25.8324C4.51202 24.6353 3.52077 23.6648 2.298 23.6648C1.07523 23.6648 0.0839844 24.6353 0.0839844 25.8324C0.0839844 27.0296 1.07523 28 2.298 28Z" fill="white"/>
</mask>
<g mask="url(#mask5_3851_7541)">
<path d="M0.108791 23.6648H0.0839844V28H0.108791V23.6648Z" fill="#B7E2E2"/>
<path d="M0.137112 23.6648H0.112305V28H0.137112V23.6648Z" fill="#B5DFE0"/>
<path d="M0.161526 23.6648H0.136719V28H0.161526V23.6648Z" fill="#B3DDDE"/>
<path d="M0.18594 23.6648H0.161133V28H0.18594V23.6648Z" fill="#B2DADC"/>
<path d="M0.21426 23.6648H0.189453V28H0.21426V23.6648Z" fill="#B0D8DA"/>
<path d="M0.238674 23.6648H0.213867V28H0.238674V23.6648Z" fill="#AFD7D9"/>
<path d="M0.264065 23.6648H0.239258V28H0.264065V23.6648Z" fill="#AED5D7"/>
<path d="M0.288479 23.6648H0.263672V28H0.288479V23.6648Z" fill="#ACD3D6"/>
<path d="M0.316799 23.6648H0.291992V28H0.316799V23.6648Z" fill="#ABD2D4"/>
<path d="M0.341213 23.6648H0.316406V28H0.341213V23.6648Z" fill="#AAD0D3"/>
<path d="M0.366604 23.6648H0.341797V28H0.366604V23.6648Z" fill="#A8CFD2"/>
<path d="M0.393948 23.6648H0.369141V28H0.393948V23.6648Z" fill="#A7CDD0"/>
<path d="M0.419338 23.6648H0.394531V28H0.419338V23.6648Z" fill="#A6CCCF"/>
<path d="M0.443752 23.6648H0.418945V28H0.443752V23.6648Z" fill="#A5CACE"/>
<path d="M0.472073 23.6648H0.447266V28H0.472073V23.6648Z" fill="#A4C9CD"/>
<path d="M0.496487 23.6648H0.47168V28H0.496487V23.6648Z" fill="#A2C8CB"/>
<path d="M0.520901 23.6648H0.496094V28H0.520901V23.6648Z" fill="#A1C6CA"/>
<path d="M0.546291 23.6648H0.521484V28H0.546291V23.6648Z" fill="#A0C5C9"/>
<path d="M0.573635 23.6648H0.548828V28H0.573635V23.6648Z" fill="#9FC3C8"/>
<path d="M0.599026 23.6648H0.574219V28H0.599026V23.6648Z" fill="#9EC2C7"/>
<path d="M0.62344 23.6648H0.598633V28H0.62344V23.6648Z" fill="#9CC1C5"/>
<path d="M0.65176 23.6648H0.626953V28H0.65176V23.6648Z" fill="#9BC0C4"/>
<path d="M0.676174 23.6648H0.651367V28H0.676174V23.6648Z" fill="#9ABEC3"/>
<path d="M0.700588 23.6648H0.675781V28H0.700588V23.6648Z" fill="#99BDC2"/>
<path d="M0.728908 23.6648H0.704102V28H0.728908V23.6648Z" fill="#98BCC1"/>
<path d="M0.753323 23.6648H0.728516V28H0.753323V23.6648Z" fill="#97BAC0"/>
<path d="M0.778713 23.6648H0.753906V28H0.778713V23.6648Z" fill="#95B9BE"/>
<path d="M0.803127 23.6648H0.77832V28H0.803127V23.6648Z" fill="#94B8BD"/>
<path d="M0.831448 23.6648H0.806641V28H0.831448V23.6648Z" fill="#93B7BC"/>
<path d="M0.855862 23.6648H0.831055V28H0.855862V23.6648Z" fill="#92B5BB"/>
<path d="M0.881252 23.6648H0.856445V28H0.881252V23.6648Z" fill="#91B4BA"/>
<path d="M0.908596 23.6648H0.883789V28H0.908596V23.6648Z" fill="#90B3B9"/>
<path d="M0.933987 23.6648H0.90918V28H0.933987V23.6648Z" fill="#8FB2B8"/>
<path d="M0.958401 23.6648H0.933594V28H0.958401V23.6648Z" fill="#8EB0B7"/>
<path d="M0.986721 23.6648H0.961914V28H0.986721V23.6648Z" fill="#8DAFB6"/>
<path d="M1.01114 23.6648H0.986328V28H1.01114V23.6648Z" fill="#8CAEB4"/>
<path d="M1.03555 23.6648H1.01074V28H1.03555V23.6648Z" fill="#8BADB3"/>
<path d="M1.06387 23.6648H1.03906V28H1.06387V23.6648Z" fill="#8AABB2"/>
<path d="M1.08828 23.6648H1.06348V28H1.08828V23.6648Z" fill="#88AAB1"/>
<path d="M1.11367 23.6648H1.08887V28H1.11367V23.6648Z" fill="#87A9B0"/>
<path d="M1.13809 23.6648H1.11328V28H1.13809V23.6648Z" fill="#86A8AF"/>
<path d="M1.16641 23.6648H1.1416V28H1.16641V23.6648Z" fill="#85A7AE"/>
<path d="M1.19082 23.6648H1.16602V28H1.19082V23.6648Z" fill="#84A6AD"/>
<path d="M1.21621 23.6648H1.19141V28H1.21621V23.6648Z" fill="#83A4AC"/>
<path d="M1.24356 23.6648H1.21875V28H1.24356V23.6648Z" fill="#82A3AB"/>
<path d="M1.26895 23.6648H1.24414V28H1.26895V23.6648Z" fill="#81A2AA"/>
<path d="M1.29336 23.6648H1.26855V28H1.29336V23.6648Z" fill="#80A1A9"/>
<path d="M1.32168 23.6648H1.29688V28H1.32168V23.6648Z" fill="#7FA0A8"/>
<path d="M1.3461 23.6648H1.32129V28H1.3461V23.6648Z" fill="#7E9FA7"/>
<path d="M1.37051 23.6648H1.3457V28H1.37051V23.6648Z" fill="#7D9EA6"/>
<path d="M1.3959 23.6648H1.37109V28H1.3959V23.6648Z" fill="#7C9CA5"/>
<path d="M1.42324 23.6648H1.39844V28H1.42324V23.6648Z" fill="#7B9BA4"/>
<path d="M1.44864 23.6648H1.42383V28H1.44864V23.6648Z" fill="#7A9AA3"/>
<path d="M1.47305 23.6648H1.44824V28H1.47305V23.6648Z" fill="#7999A2"/>
<path d="M1.50137 23.6648H1.47656V28H1.50137V23.6648Z" fill="#7898A1"/>
<path d="M1.52578 23.6648H1.50098V28H1.52578V23.6648Z" fill="#7797A0"/>
<path d="M1.55117 23.6648H1.52637V28H1.55117V23.6648Z" fill="#76969F"/>
<path d="M1.57852 23.6648H1.55371V28H1.57852V23.6648Z" fill="#75959E"/>
<path d="M1.60293 23.6648H1.57812V28H1.60293V23.6648Z" fill="#74949D"/>
<path d="M1.62832 23.6648H1.60352V28H1.62832V23.6648Z" fill="#73939C"/>
<path d="M1.65274 23.6648H1.62793V28H1.65274V23.6648Z" fill="#72929B"/>
<path d="M1.68106 23.6648H1.65625V28H1.68106V23.6648Z" fill="#71919A"/>
<path d="M1.70547 23.6648H1.68066V28H1.70547V23.6648Z" fill="#709099"/>
<path d="M1.73086 23.6648H1.70605V28H1.73086V23.6648Z" fill="#6F8E98"/>
<path d="M1.75821 23.6648H1.7334V28H1.75821V23.6648Z" fill="#6F8D97"/>
<path d="M1.7836 23.6648H1.75879V28H1.7836V23.6648Z" fill="#6E8C96"/>
<path d="M1.80801 23.6648H1.7832V28H1.80801V23.6648Z" fill="#6D8B95"/>
<path d="M1.83633 23.6648H1.81152V28H1.83633V23.6648Z" fill="#6C8A94"/>
<path d="M1.86074 23.6648H1.83594V28H1.86074V23.6648Z" fill="#6B8993"/>
<path d="M1.88516 23.6648H1.86035V28H1.88516V23.6648Z" fill="#6A8892"/>
<path d="M1.91055 23.6648H1.88574V28H1.91055V23.6648Z" fill="#698791"/>
<path d="M1.93789 23.6648H1.91309V28H1.93789V23.6648Z" fill="#688690"/>
<path d="M1.96328 23.6648H1.93848V28H1.96328V23.6648Z" fill="#67858F"/>
<path d="M1.9877 23.6648H1.96289V28H1.9877V23.6648Z" fill="#66848E"/>
<path d="M2.01602 23.6648H1.99121V28H2.01602V23.6648Z" fill="#65838D"/>
<path d="M2.04043 23.6648H2.01562V28H2.04043V23.6648Z" fill="#65828C"/>
<path d="M2.06582 23.6648H2.04102V28H2.06582V23.6648Z" fill="#64818B"/>
<path d="M2.09317 23.6648H2.06836V28H2.09317V23.6648Z" fill="#63808A"/>
<path d="M2.11856 23.6648H2.09375V28H2.11856V23.6648Z" fill="#627F8A"/>
<path d="M2.14297 23.6648H2.11816V28H2.14297V23.6648Z" fill="#617E89"/>
<path d="M2.16739 23.6648H2.14258V28H2.16739V23.6648Z" fill="#607D88"/>
<path d="M2.19571 23.6648H2.1709V28H2.19571V23.6648Z" fill="#5F7C87"/>
<path d="M2.22012 23.6648H2.19531V28H2.22012V23.6648Z" fill="#5E7B86"/>
<path d="M2.24551 23.6648H2.2207V28H2.24551V23.6648Z" fill="#5D7A85"/>
<path d="M2.27285 23.6648H2.24805V28H2.27285V23.6648Z" fill="#5D7984"/>
<path d="M2.29824 23.6648H2.27344V28H2.29824V23.6648Z" fill="#5C7983"/>
<path d="M2.32266 23.6648H2.29785V28H2.32266V23.6648Z" fill="#5B7882"/>
<path d="M2.35098 23.6648H2.32617V28H2.35098V23.6648Z" fill="#5A7781"/>
<path d="M2.37539 23.6648H2.35059V28H2.37539V23.6648Z" fill="#597681"/>
<path d="M2.40078 23.6648H2.37598V28H2.40078V23.6648Z" fill="#587580"/>
<path d="M2.4252 23.6648H2.40039V28H2.4252V23.6648Z" fill="#57747F"/>
<path d="M2.45352 23.6648H2.42871V28H2.45352V23.6648Z" fill="#56737E"/>
<path d="M2.47793 23.6648H2.45312V28H2.47793V23.6648Z" fill="#55727D"/>
<path d="M2.50235 23.6648H2.47754V28H2.50235V23.6648Z" fill="#55717C"/>
<path d="M2.53067 23.6648H2.50586V28H2.53067V23.6648Z" fill="#54707B"/>
<path d="M2.55508 23.6648H2.53027V28H2.55508V23.6648Z" fill="#536F7B"/>
<path d="M2.58047 23.6648H2.55566V28H2.58047V23.6648Z" fill="#526E7A"/>
<path d="M2.60781 23.6648H2.58301V28H2.60781V23.6648Z" fill="#516E79"/>
<path d="M2.63321 23.6648H2.6084V28H2.63321V23.6648Z" fill="#506D78"/>
<path d="M2.65762 23.6648H2.63281V28H2.65762V23.6648Z" fill="#4F6C77"/>
<path d="M2.68594 23.6648H2.66113V28H2.68594V23.6648Z" fill="#4F6B76"/>
<path d="M2.71035 23.6648H2.68555V28H2.71035V23.6648Z" fill="#4E6A76"/>
<path d="M2.73477 23.6648H2.70996V28H2.73477V23.6648Z" fill="#4D6975"/>
<path d="M2.76016 23.6648H2.73535V28H2.76016V23.6648Z" fill="#4C6874"/>
<path d="M2.7875 23.6648H2.7627V28H2.7875V23.6648Z" fill="#4B6773"/>
<path d="M2.81289 23.6648H2.78809V28H2.81289V23.6648Z" fill="#4A6772"/>
<path d="M2.83731 23.6648H2.8125V28H2.83731V23.6648Z" fill="#496672"/>
<path d="M2.86563 23.6648H2.84082V28H2.86563V23.6648Z" fill="#496571"/>
<path d="M2.89004 23.6648H2.86523V28H2.89004V23.6648Z" fill="#486470"/>
<path d="M2.91543 23.6648H2.89062V28H2.91543V23.6648Z" fill="#47636F"/>
<path d="M2.94278 23.6648H2.91797V28H2.94278V23.6648Z" fill="#46626E"/>
<path d="M2.96817 23.6648H2.94336V28H2.96817V23.6648Z" fill="#45616E"/>
<path d="M2.99258 23.6648H2.96777V28H2.99258V23.6648Z" fill="#44616D"/>
<path d="M3.01699 23.6648H2.99219V28H3.01699V23.6648Z" fill="#44606C"/>
<path d="M3.04531 23.6648H3.02051V28H3.04531V23.6648Z" fill="#435F6B"/>
<path d="M3.06973 23.6648H3.04492V28H3.06973V23.6648Z" fill="#425E6B"/>
<path d="M3.09512 23.6648H3.07031V28H3.09512V23.6648Z" fill="#415D6A"/>
<path d="M3.12246 23.6648H3.09766V28H3.12246V23.6648Z" fill="#405D69"/>
<path d="M3.14785 23.6648H3.12305V28H3.14785V23.6648Z" fill="#3F5C68"/>
<path d="M3.17227 23.6648H3.14746V28H3.17227V23.6648Z" fill="#3E5B67"/>
<path d="M3.20059 23.6648H3.17578V28H3.20059V23.6648Z" fill="#3E5A67"/>
<path d="M3.225 23.6648H3.2002V28H3.225V23.6648Z" fill="#3D5966"/>
<path d="M3.25039 23.6648H3.22559V28H3.25039V23.6648Z" fill="#3C5965"/>
<path d="M3.27481 23.6648H3.25V28H3.27481V23.6648Z" fill="#3B5865"/>
<path d="M3.30313 23.6648H3.27832V28H3.30313V23.6648Z" fill="#3A5764"/>
<path d="M3.32754 23.6648H3.30273V28H3.32754V23.6648Z" fill="#395663"/>
<path d="M3.35196 23.6648H3.32715V28H3.35196V23.6648Z" fill="#385662"/>
<path d="M3.38028 23.6648H3.35547V28H3.38028V23.6648Z" fill="#385562"/>
<path d="M3.40469 23.6648H3.37988V28H3.40469V23.6648Z" fill="#375461"/>
<path d="M3.43008 23.6648H3.40527V28H3.43008V23.6648Z" fill="#365360"/>
<path d="M3.45742 23.6648H3.43262V28H3.45742V23.6648Z" fill="#355360"/>
<path d="M3.48281 23.6648H3.45801V28H3.48281V23.6648Z" fill="#34525F"/>
<path d="M3.50723 23.6648H3.48242V28H3.50723V23.6648Z" fill="#33515E"/>
<path d="M3.53262 23.6648H3.50781V28H3.53262V23.6648Z" fill="#33505E"/>
<path d="M3.55996 23.6648H3.53516V28H3.55996V23.6648Z" fill="#32505D"/>
<path d="M3.58438 23.6648H3.55957V28H3.58438V23.6648Z" fill="#314F5C"/>
<path d="M3.60977 23.6648H3.58496V28H3.60977V23.6648Z" fill="#304E5C"/>
<path d="M3.63711 23.6648H3.6123V28H3.63711V23.6648Z" fill="#2F4E5B"/>
<path d="M3.6625 23.6648H3.6377V28H3.6625V23.6648Z" fill="#2E4D5A"/>
<path d="M3.68692 23.6648H3.66211V28H3.68692V23.6648Z" fill="#2E4C5A"/>
<path d="M3.71524 23.6648H3.69043V28H3.71524V23.6648Z" fill="#2D4B59"/>
<path d="M3.73965 23.6648H3.71484V28H3.73965V23.6648Z" fill="#2C4B58"/>
<path d="M3.76504 23.6648H3.74023V28H3.76504V23.6648Z" fill="#2B4A58"/>
<path d="M3.78946 23.6648H3.76465V28H3.78946V23.6648Z" fill="#2A4957"/>
<path d="M3.81778 23.6648H3.79297V28H3.81778V23.6648Z" fill="#294956"/>
<path d="M3.84219 23.6648H3.81738V28H3.84219V23.6648Z" fill="#284856"/>
<path d="M3.8666 23.6648H3.8418V28H3.8666V23.6648Z" fill="#284755"/>
<path d="M3.89492 23.6648H3.87012V28H3.89492V23.6648Z" fill="#274754"/>
<path d="M3.91934 23.6648H3.89453V28H3.91934V23.6648Z" fill="#264654"/>
<path d="M3.94473 23.6648H3.91992V28H3.94473V23.6648Z" fill="#254553"/>
<path d="M3.97207 23.6648H3.94727V28H3.97207V23.6648Z" fill="#244552"/>
<path d="M3.99746 23.6648H3.97266V28H3.99746V23.6648Z" fill="#234452"/>
<path d="M4.02188 23.6648H3.99707V28H4.02188V23.6648Z" fill="#224351"/>
<path d="M4.04727 23.6648H4.02246V28H4.04727V23.6648Z" fill="#214350"/>
<path d="M4.07461 23.6648H4.0498V28H4.07461V23.6648Z" fill="#204250"/>
<path d="M4.1 23.6648H4.0752V28H4.1V23.6648Z" fill="#1F414F"/>
<path d="M4.12442 23.6648H4.09961V28H4.12442V23.6648Z" fill="#1E414F"/>
<path d="M4.15274 23.6648H4.12793V28H4.15274V23.6648Z" fill="#1D404E"/>
<path d="M4.17715 23.6648H4.15234V28H4.17715V23.6648Z" fill="#1C3F4D"/>
<path d="M4.20156 23.6648H4.17676V28H4.20156V23.6648Z" fill="#1B3F4D"/>
<path d="M4.22989 23.6648H4.20508V28H4.22989V23.6648Z" fill="#1B3E4C"/>
<path d="M4.2543 23.6648H4.22949V28H4.2543V23.6648Z" fill="#1A3D4C"/>
<path d="M4.27969 23.6648H4.25488V28H4.27969V23.6648Z" fill="#193D4B"/>
<path d="M4.30703 23.6648H4.28223V28H4.30703V23.6648Z" fill="#183C4A"/>
<path d="M4.33242 23.6648H4.30762V28H4.33242V23.6648Z" fill="#173B4A"/>
<path d="M4.35684 23.6648H4.33203V28H4.35684V23.6648Z" fill="#163B49"/>
<path d="M4.38223 23.6648H4.35742V28H4.38223V23.6648Z" fill="#153A49"/>
<path d="M4.40957 23.6648H4.38477V28H4.40957V23.6648Z" fill="#133A48"/>
<path d="M4.43496 23.6648H4.41016V28H4.43496V23.6648Z" fill="#123947"/>
<path d="M4.45938 23.6648H4.43457V28H4.45938V23.6648Z" fill="#113847"/>
<path d="M4.4877 23.6648H4.46289V28H4.4877V23.6648Z" fill="#103846"/>
<path d="M4.51211 23.6648H4.4873V28H4.51211V23.6648Z" fill="#0F3746"/>
</g>
<mask id="mask6_3851_7541" style="mask-type:luminance" maskUnits="userSpaceOnUse" x="0" y="9" width="5" height="5">
<path d="M2.21402 13.4672C3.43679 13.4672 4.42804 12.4967 4.42804 11.2996C4.42804 10.1024 3.43679 9.13196 2.21402 9.13196C0.99125 9.13196 0 10.1024 0 11.2996C0 12.4967 0.99125 13.4672 2.21402 13.4672Z" fill="white"/>
</mask>
<g mask="url(#mask6_3851_7541)">
<path d="M0.0248069 9.13196H0V13.4672H0.0248069V9.13196Z" fill="#B7E2E2"/>
<path d="M0.0501976 9.13196H0.0253906V13.4672H0.0501976V9.13196Z" fill="#B5DFE0"/>
<path d="M0.0775413 9.13196H0.0527344V13.4672H0.0775413V9.13196Z" fill="#B3DDDE"/>
<path d="M0.101955 9.13196H0.0771484V13.4672H0.101955V9.13196Z" fill="#B2DADC"/>
<path d="M0.127346 9.13196H0.102539V13.4672H0.127346V9.13196Z" fill="#B0D8DA"/>
<path d="M0.15469 9.13196H0.129883V13.4672H0.15469V9.13196Z" fill="#AFD7D9"/>
<path d="M0.18008 9.13196H0.155273V13.4672H0.18008V9.13196Z" fill="#AED5D7"/>
<path d="M0.204494 9.13196H0.179688V13.4672H0.204494V9.13196Z" fill="#ACD3D6"/>
<path d="M0.229885 9.13196H0.205078V13.4672H0.229885V9.13196Z" fill="#ABD2D4"/>
<path d="M0.257229 9.13196H0.232422V13.4672H0.257229V9.13196Z" fill="#AAD0D3"/>
<path d="M0.282619 9.13196H0.257812V13.4672H0.282619V9.13196Z" fill="#A8CFD2"/>
<path d="M0.307033 9.13196H0.282227V13.4672H0.307033V9.13196Z" fill="#A7CDD0"/>
<path d="M0.335354 9.13196H0.310547V13.4672H0.335354V9.13196Z" fill="#A6CCCF"/>
<path d="M0.359768 9.13196H0.334961V13.4672H0.359768V9.13196Z" fill="#A5CACE"/>
<path d="M0.384182 9.13196H0.359375V13.4672H0.384182V9.13196Z" fill="#A4C9CD"/>
<path d="M0.412502 9.13196H0.387695V13.4672H0.412502V9.13196Z" fill="#A2C8CB"/>
<path d="M0.436916 9.13196H0.412109V13.4672H0.436916V9.13196Z" fill="#A1C6CA"/>
<path d="M0.462307 9.13196H0.4375V13.4672H0.462307V9.13196Z" fill="#A0C5C9"/>
<path d="M0.486721 9.13196H0.461914V13.4672H0.486721V9.13196Z" fill="#9FC3C8"/>
<path d="M0.515041 9.13196H0.490234V13.4672H0.515041V9.13196Z" fill="#9EC2C7"/>
<path d="M0.539455 9.13196H0.514648V13.4672H0.539455V9.13196Z" fill="#9CC1C5"/>
<path d="M0.564846 9.13196H0.540039V13.4672H0.564846V9.13196Z" fill="#9BC0C4"/>
<path d="M0.59219 9.13196H0.567383V13.4672H0.59219V9.13196Z" fill="#9ABEC3"/>
<path d="M0.616604 9.13196H0.591797V13.4672H0.616604V9.13196Z" fill="#99BDC2"/>
<path d="M0.641994 9.13196H0.617188V13.4672H0.641994V9.13196Z" fill="#98BCC1"/>
<path d="M0.669338 9.13196H0.644531V13.4672H0.669338V9.13196Z" fill="#97BAC0"/>
<path d="M0.694729 9.13196H0.669922V13.4672H0.694729V9.13196Z" fill="#95B9BE"/>
<path d="M0.719143 9.13196H0.694336V13.4672H0.719143V9.13196Z" fill="#94B8BD"/>
<path d="M0.744534 9.13196H0.719727V13.4672H0.744534V9.13196Z" fill="#93B7BC"/>
<path d="M0.771877 9.13196H0.74707V13.4672H0.771877V9.13196Z" fill="#92B5BB"/>
<path d="M0.797268 9.13196H0.772461V13.4672H0.797268V9.13196Z" fill="#91B4BA"/>
<path d="M0.821682 9.13196H0.796875V13.4672H0.821682V9.13196Z" fill="#90B3B9"/>
<path d="M0.850002 9.13196H0.825195V13.4672H0.850002V9.13196Z" fill="#8FB2B8"/>
<path d="M0.874416 9.13196H0.849609V13.4672H0.874416V9.13196Z" fill="#8EB0B7"/>
<path d="M0.89883 9.13196H0.874023V13.4672H0.89883V9.13196Z" fill="#8DAFB6"/>
<path d="M0.927151 9.13196H0.902344V13.4672H0.927151V9.13196Z" fill="#8CAEB4"/>
<path d="M0.951565 9.13196H0.926758V13.4672H0.951565V9.13196Z" fill="#8BADB3"/>
<path d="M0.976955 9.13196H0.952148V13.4672H0.976955V9.13196Z" fill="#8AABB2"/>
<path d="M1.00137 9.13196H0.976562V13.4672H1.00137V9.13196Z" fill="#88AAB1"/>
<path d="M1.02969 9.13196H1.00488V13.4672H1.02969V9.13196Z" fill="#87A9B0"/>
<path d="M1.0541 9.13196H1.0293V13.4672H1.0541V9.13196Z" fill="#86A8AF"/>
<path d="M1.07949 9.13196H1.05469V13.4672H1.07949V9.13196Z" fill="#85A7AE"/>
<path d="M1.10684 9.13196H1.08203V13.4672H1.10684V9.13196Z" fill="#84A6AD"/>
<path d="M1.13223 9.13196H1.10742V13.4672H1.13223V9.13196Z" fill="#83A4AC"/>
<path d="M1.15664 9.13196H1.13184V13.4672H1.15664V9.13196Z" fill="#82A3AB"/>
<path d="M1.18496 9.13196H1.16016V13.4672H1.18496V9.13196Z" fill="#81A2AA"/>
<path d="M1.20938 9.13196H1.18457V13.4672H1.20938V9.13196Z" fill="#80A1A9"/>
<path d="M1.23379 9.13196H1.20898V13.4672H1.23379V9.13196Z" fill="#7FA0A8"/>
<path d="M1.25918 9.13196H1.23438V13.4672H1.25918V9.13196Z" fill="#7E9FA7"/>
<path d="M1.28653 9.13196H1.26172V13.4672H1.28653V9.13196Z" fill="#7D9EA6"/>
<path d="M1.31192 9.13196H1.28711V13.4672H1.31192V9.13196Z" fill="#7C9CA5"/>
<path d="M1.33633 9.13196H1.31152V13.4672H1.33633V9.13196Z" fill="#7B9BA4"/>
<path d="M1.36465 9.13196H1.33984V13.4672H1.36465V9.13196Z" fill="#7A9AA3"/>
<path d="M1.38906 9.13196H1.36426V13.4672H1.38906V9.13196Z" fill="#7999A2"/>
<path d="M1.41446 9.13196H1.38965V13.4672H1.41446V9.13196Z" fill="#7898A1"/>
<path d="M1.4418 9.13196H1.41699V13.4672H1.4418V9.13196Z" fill="#7797A0"/>
<path d="M1.46719 9.13196H1.44238V13.4672H1.46719V9.13196Z" fill="#76969F"/>
<path d="M1.4916 9.13196H1.4668V13.4672H1.4916V9.13196Z" fill="#75959E"/>
<path d="M1.51602 9.13196H1.49121V13.4672H1.51602V9.13196Z" fill="#74949D"/>
<path d="M1.54434 9.13196H1.51953V13.4672H1.54434V9.13196Z" fill="#73939C"/>
<path d="M1.56875 9.13196H1.54395V13.4672H1.56875V9.13196Z" fill="#72929B"/>
<path d="M1.59414 9.13196H1.56934V13.4672H1.59414V9.13196Z" fill="#71919A"/>
<path d="M1.62149 9.13196H1.59668V13.4672H1.62149V9.13196Z" fill="#709099"/>
<path d="M1.64688 9.13196H1.62207V13.4672H1.64688V9.13196Z" fill="#6F8E98"/>
<path d="M1.67129 9.13196H1.64648V13.4672H1.67129V9.13196Z" fill="#6F8D97"/>
<path d="M1.69961 9.13196H1.6748V13.4672H1.69961V9.13196Z" fill="#6E8C96"/>
<path d="M1.72403 9.13196H1.69922V13.4672H1.72403V9.13196Z" fill="#6D8B95"/>
<path d="M1.74844 9.13196H1.72363V13.4672H1.74844V9.13196Z" fill="#6C8A94"/>
<path d="M1.77676 9.13196H1.75195V13.4672H1.77676V9.13196Z" fill="#6B8993"/>
<path d="M1.80117 9.13196H1.77637V13.4672H1.80117V9.13196Z" fill="#6A8892"/>
<path d="M1.82656 9.13196H1.80176V13.4672H1.82656V9.13196Z" fill="#698791"/>
<path d="M1.85098 9.13196H1.82617V13.4672H1.85098V9.13196Z" fill="#688690"/>
<path d="M1.8793 9.13196H1.85449V13.4672H1.8793V9.13196Z" fill="#67858F"/>
<path d="M1.90371 9.13196H1.87891V13.4672H1.90371V9.13196Z" fill="#66848E"/>
<path d="M1.9291 9.13196H1.9043V13.4672H1.9291V9.13196Z" fill="#65838D"/>
<path d="M1.95645 9.13196H1.93164V13.4672H1.95645V9.13196Z" fill="#65828C"/>
<path d="M1.98184 9.13196H1.95703V13.4672H1.98184V9.13196Z" fill="#64818B"/>
<path d="M2.00625 9.13196H1.98145V13.4672H2.00625V9.13196Z" fill="#63808A"/>
<path d="M2.03457 9.13196H2.00977V13.4672H2.03457V9.13196Z" fill="#627F8A"/>
<path d="M2.05899 9.13196H2.03418V13.4672H2.05899V9.13196Z" fill="#617E89"/>
<path d="M2.0834 9.13196H2.05859V13.4672H2.0834V9.13196Z" fill="#607D88"/>
<path d="M2.10879 9.13196H2.08398V13.4672H2.10879V9.13196Z" fill="#5F7C87"/>
<path d="M2.13614 9.13196H2.11133V13.4672H2.13614V9.13196Z" fill="#5E7B86"/>
<path d="M2.16153 9.13196H2.13672V13.4672H2.16153V9.13196Z" fill="#5D7A85"/>
<path d="M2.18594 9.13196H2.16113V13.4672H2.18594V9.13196Z" fill="#5D7984"/>
<path d="M2.21426 9.13196H2.18945V13.4672H2.21426V9.13196Z" fill="#5C7983"/>
<path d="M2.23867 9.13196H2.21387V13.4672H2.23867V9.13196Z" fill="#5B7882"/>
<path d="M2.26406 9.13196H2.23926V13.4672H2.26406V9.13196Z" fill="#5A7781"/>
<path d="M2.29141 9.13196H2.2666V13.4672H2.29141V9.13196Z" fill="#597681"/>
<path d="M2.3168 9.13196H2.29199V13.4672H2.3168V9.13196Z" fill="#587580"/>
<path d="M2.34121 9.13196H2.31641V13.4672H2.34121V9.13196Z" fill="#57747F"/>
<path d="M2.36563 9.13196H2.34082V13.4672H2.36563V9.13196Z" fill="#56737E"/>
<path d="M2.39395 9.13196H2.36914V13.4672H2.39395V9.13196Z" fill="#55727D"/>
<path d="M2.41836 9.13196H2.39355V13.4672H2.41836V9.13196Z" fill="#55717C"/>
<path d="M2.44375 9.13196H2.41895V13.4672H2.44375V9.13196Z" fill="#54707B"/>
<path d="M2.4711 9.13196H2.44629V13.4672H2.4711V9.13196Z" fill="#536F7B"/>
<path d="M2.49649 9.13196H2.47168V13.4672H2.49649V9.13196Z" fill="#526E7A"/>
<path d="M2.5209 9.13196H2.49609V13.4672H2.5209V9.13196Z" fill="#516E79"/>
<path d="M2.54922 9.13196H2.52441V13.4672H2.54922V9.13196Z" fill="#506D78"/>
<path d="M2.57364 9.13196H2.54883V13.4672H2.57364V9.13196Z" fill="#4F6C77"/>
<path d="M2.59805 9.13196H2.57324V13.4672H2.59805V9.13196Z" fill="#4F6B76"/>
<path d="M2.62344 9.13196H2.59863V13.4672H2.62344V9.13196Z" fill="#4E6A76"/>
<path d="M2.65078 9.13196H2.62598V13.4672H2.65078V9.13196Z" fill="#4D6975"/>
<path d="M2.67617 9.13196H2.65137V13.4672H2.67617V9.13196Z" fill="#4C6874"/>
<path d="M2.70059 9.13196H2.67578V13.4672H2.70059V9.13196Z" fill="#4B6773"/>
<path d="M2.72891 9.13196H2.7041V13.4672H2.72891V9.13196Z" fill="#4A6772"/>
<path d="M2.75332 9.13196H2.72852V13.4672H2.75332V9.13196Z" fill="#496672"/>
<path d="M2.77871 9.13196H2.75391V13.4672H2.77871V9.13196Z" fill="#496571"/>
<path d="M2.80606 9.13196H2.78125V13.4672H2.80606V9.13196Z" fill="#486470"/>
<path d="M2.83145 9.13196H2.80664V13.4672H2.83145V9.13196Z" fill="#47636F"/>
<path d="M2.85586 9.13196H2.83105V13.4672H2.85586V9.13196Z" fill="#46626E"/>
<path d="M2.88028 9.13196H2.85547V13.4672H2.88028V9.13196Z" fill="#45616E"/>
<path d="M2.9086 9.13196H2.88379V13.4672H2.9086V9.13196Z" fill="#44616D"/>
<path d="M2.93301 9.13196H2.9082V13.4672H2.93301V9.13196Z" fill="#44606C"/>
<path d="M2.9584 9.13196H2.93359V13.4672H2.9584V9.13196Z" fill="#435F6B"/>
<path d="M2.98574 9.13196H2.96094V13.4672H2.98574V9.13196Z" fill="#425E6B"/>
<path d="M3.01114 9.13196H2.98633V13.4672H3.01114V9.13196Z" fill="#415D6A"/>
<path d="M3.03555 9.13196H3.01074V13.4672H3.03555V9.13196Z" fill="#405D69"/>
<path d="M3.06387 9.13196H3.03906V13.4672H3.06387V9.13196Z" fill="#3F5C68"/>
<path d="M3.08828 9.13196H3.06348V13.4672H3.08828V9.13196Z" fill="#3E5B67"/>
<path d="M3.11367 9.13196H3.08887V13.4672H3.11367V9.13196Z" fill="#3E5A67"/>
<path d="M3.13809 9.13196H3.11328V13.4672H3.13809V9.13196Z" fill="#3D5966"/>
<path d="M3.16641 9.13196H3.1416V13.4672H3.16641V9.13196Z" fill="#3C5965"/>
<path d="M3.19082 9.13196H3.16602V13.4672H3.19082V9.13196Z" fill="#3B5865"/>
<path d="M3.21524 9.13196H3.19043V13.4672H3.21524V9.13196Z" fill="#3A5764"/>
<path d="M3.24356 9.13196H3.21875V13.4672H3.24356V9.13196Z" fill="#395663"/>
<path d="M3.26797 9.13196H3.24316V13.4672H3.26797V9.13196Z" fill="#385662"/>
<path d="M3.29336 9.13196H3.26855V13.4672H3.29336V9.13196Z" fill="#385562"/>
<path d="M3.32071 9.13196H3.2959V13.4672H3.32071V9.13196Z" fill="#375461"/>
<path d="M3.3461 9.13196H3.32129V13.4672H3.3461V9.13196Z" fill="#365360"/>
<path d="M3.37051 9.13196H3.3457V13.4672H3.37051V9.13196Z" fill="#355360"/>
<path d="M3.39883 9.13196H3.37402V13.4672H3.39883V9.13196Z" fill="#34525F"/>
<path d="M3.42324 9.13196H3.39844V13.4672H3.42324V9.13196Z" fill="#33515E"/>
<path d="M3.44864 9.13196H3.42383V13.4672H3.44864V9.13196Z" fill="#33505E"/>
<path d="M3.47305 9.13196H3.44824V13.4672H3.47305V9.13196Z" fill="#32505D"/>
<path d="M3.50039 9.13196H3.47559V13.4672H3.50039V9.13196Z" fill="#314F5C"/>
<path d="M3.52578 9.13196H3.50098V13.4672H3.52578V9.13196Z" fill="#304E5C"/>
<path d="M3.5502 9.13196H3.52539V13.4672H3.5502V9.13196Z" fill="#2F4E5B"/>
<path d="M3.57852 9.13196H3.55371V13.4672H3.57852V9.13196Z" fill="#2E4D5A"/>
<path d="M3.60293 9.13196H3.57812V13.4672H3.60293V9.13196Z" fill="#2E4C5A"/>
<path d="M3.62832 9.13196H3.60352V13.4672H3.62832V9.13196Z" fill="#2D4B59"/>
<path d="M3.65567 9.13196H3.63086V13.4672H3.65567V9.13196Z" fill="#2C4B58"/>
<path d="M3.68106 9.13196H3.65625V13.4672H3.68106V9.13196Z" fill="#2B4A58"/>
<path d="M3.70547 9.13196H3.68066V13.4672H3.70547V9.13196Z" fill="#2A4957"/>
<path d="M3.72989 9.13196H3.70508V13.4672H3.72989V9.13196Z" fill="#294956"/>
<path d="M3.75821 9.13196H3.7334V13.4672H3.75821V9.13196Z" fill="#284856"/>
<path d="M3.78262 9.13196H3.75781V13.4672H3.78262V9.13196Z" fill="#284755"/>
<path d="M3.80801 9.13196H3.7832V13.4672H3.80801V9.13196Z" fill="#274754"/>
<path d="M3.83535 9.13196H3.81055V13.4672H3.83535V9.13196Z" fill="#264654"/>
<path d="M3.86074 9.13196H3.83594V13.4672H3.86074V9.13196Z" fill="#254553"/>
<path d="M3.88516 9.13196H3.86035V13.4672H3.88516V9.13196Z" fill="#244552"/>
<path d="M3.91348 9.13196H3.88867V13.4672H3.91348V9.13196Z" fill="#234452"/>
<path d="M3.93789 9.13196H3.91309V13.4672H3.93789V9.13196Z" fill="#224351"/>
<path d="M3.96328 9.13196H3.93848V13.4672H3.96328V9.13196Z" fill="#214350"/>
<path d="M3.9877 9.13196H3.96289V13.4672H3.9877V9.13196Z" fill="#204250"/>
<path d="M4.01602 9.13196H3.99121V13.4672H4.01602V9.13196Z" fill="#1F414F"/>
<path d="M4.04043 9.13196H4.01562V13.4672H4.04043V9.13196Z" fill="#1E414F"/>
<path d="M4.06485 9.13196H4.04004V13.4672H4.06485V9.13196Z" fill="#1D404E"/>
<path d="M4.09317 9.13196H4.06836V13.4672H4.09317V9.13196Z" fill="#1C3F4D"/>
<path d="M4.11758 9.13196H4.09277V13.4672H4.11758V9.13196Z" fill="#1B3F4D"/>
<path d="M4.14297 9.13196H4.11816V13.4672H4.14297V9.13196Z" fill="#1B3E4C"/>
<path d="M4.17031 9.13196H4.14551V13.4672H4.17031V9.13196Z" fill="#1A3D4C"/>
<path d="M4.19571 9.13196H4.1709V13.4672H4.19571V9.13196Z" fill="#193D4B"/>
<path d="M4.22012 9.13196H4.19531V13.4672H4.22012V9.13196Z" fill="#183C4A"/>
<path d="M4.24551 9.13196H4.2207V13.4672H4.24551V9.13196Z" fill="#173B4A"/>
<path d="M4.27285 9.13196H4.24805V13.4672H4.27285V9.13196Z" fill="#163B49"/>
<path d="M4.29824 9.13196H4.27344V13.4672H4.29824V9.13196Z" fill="#153A49"/>
<path d="M4.32266 9.13196H4.29785V13.4672H4.32266V9.13196Z" fill="#133A48"/>
<path d="M4.35098 9.13196H4.32617V13.4672H4.35098V9.13196Z" fill="#123947"/>
<path d="M4.37539 9.13196H4.35059V13.4672H4.37539V9.13196Z" fill="#113847"/>
<path d="M4.39981 9.13196H4.375V13.4672H4.39981V9.13196Z" fill="#103846"/>
<path d="M4.42813 9.13196H4.40332V13.4672H4.42813V9.13196Z" fill="#0F3746"/>
</g>
</g>
<defs>
<clipPath id="clip0_3851_7541">
<rect width="104" height="28" fill="white"/>
</clipPath>
</defs>
</svg>
