<svg width="214" height="176" viewBox="0 0 214 176" fill="none" xmlns="http://www.w3.org/2000/svg">
<path fill-rule="evenodd" clip-rule="evenodd" d="M18.479 119.172C19.0212 119.067 19.5462 119.421 19.6517 119.963C21.6005 129.975 29.844 136.754 44.5846 140.298C59.4128 143.864 69.513 143.671 74.8349 139.865C75.2841 139.544 74.9492 142.296 74.6202 142.507C71.1491 144.732 59.3478 148.054 45.2647 145.052C27.2581 141.214 18.8034 126.073 17.6885 120.345C17.583 119.803 17.9369 119.278 18.479 119.172Z" fill="#0E3746"/>
<path fill-rule="evenodd" clip-rule="evenodd" d="M10.9703 101.108C11.4497 100.834 29.3344 121.331 53.8782 125.971C78.4221 130.611 84.3646 127.66 85.3199 121.331C85.4023 120.785 85.9118 120.409 86.4579 120.492C87.004 120.574 87.3799 121.084 87.2975 121.63C86.0869 129.65 74.7299 131.558 53.5418 127.942C32.6199 124.372 18.2758 115.89 10.599 102.473C10.3247 101.993 10.491 101.382 10.9703 101.108Z" fill="#0E3746"/>
<path fill-rule="evenodd" clip-rule="evenodd" d="M113.985 99.9714C113.314 99.739 112.591 99.2225 112.126 98.6286L111.352 97.6732L114.089 94.9619C118.298 90.8304 121.525 86.5956 124.314 81.5603C125.244 79.8818 127.594 74.2784 127.594 73.7362C127.594 73.5554 127.878 72.8324 128.213 72.0836C128.73 70.999 129.117 70.5859 130.227 69.9662C131.544 69.1915 133.042 68.9333 133.688 69.3722C134.927 70.1985 134.927 72.8066 133.688 77.2996C132.319 82.2316 130.486 85.7692 126.69 90.8562C126.096 91.6309 124.986 93.1544 124.185 94.2131C122.042 97.0535 120.647 98.4221 118.762 99.4808C116.903 100.514 115.819 100.643 113.985 99.9714ZM132.525 97.6473L134.385 98.4736C134.77 98.6516 139.023 100.695 144.131 103.15C152.368 107.107 162.828 112.133 162.892 112.133C162.995 112.133 163.48 111.013 163.589 109.706C163.848 106.892 164.803 103.07 165.913 100.41C166.43 99.2225 166.843 97.7379 166.843 97.6088C166.843 97.5499 166.423 97.3806 165.736 97.1034C164.918 96.7734 163.721 96.2905 162.402 95.659C155.894 92.5346 143.164 86.1565 141.589 85.2011C140.04 84.2973 139.73 84.2199 139.73 84.8138C139.73 85.5884 138.155 89.1777 136.941 91.1143C136.295 92.173 135.03 94.0839 134.126 95.3492L132.525 97.6473ZM162.454 107.486C163.194 107.915 161.911 108.544 161.601 108.648C159.777 108.802 157.629 108.459 155.869 107.434C154.949 106.781 147.703 102.756 142.896 100.086C140.699 98.8649 139.012 97.9273 138.671 97.7248C137.587 97.0792 136.554 96.382 136.373 96.1755C135.831 95.4783 136.347 95.1684 137.871 95.2975C138.787 95.3751 160.854 106.559 162.454 107.486ZM57.4865 175.088C59.4784 174.652 62.5704 173.347 64.5393 172.516C65.0207 172.313 65.4349 172.138 65.7496 172.011C67.351 171.366 72.2309 164.475 73.9868 156.702C75.2521 150.97 75.8976 142.81 75.1746 141.442C74.7387 140.649 77.3287 143.308 79.2574 145.288L79.2579 145.289L79.2622 145.293C79.8449 145.891 80.3669 146.427 80.7264 146.787C91.9848 157.968 108.743 166.954 126.147 171.163C134.824 173.28 140.995 174.029 149.284 174.029C163.202 174.029 174.176 171.292 184.144 165.275C184.617 164.99 185.061 164.727 185.484 164.477C188.958 162.419 191.028 161.194 196.693 154.817C203.048 147.665 208.7 131.061 210.585 125.329C211.412 122.746 213.426 112.476 213.426 109.913C213.426 106.878 212.367 105.446 210.921 103.974C208.365 101.469 204.905 100.565 202.038 101.65L200.696 102.166L200.282 100.798C199.689 98.7319 198.449 97.0793 196.538 95.8398C193.698 93.9548 193.285 93.8257 190.728 93.8257C188.74 93.8257 188.198 93.929 186.932 94.5229L185.461 95.1943L185.151 94.2647C184.557 92.3538 182.565 89.69 181.019 88.9195C179.649 88.2361 177.276 88.1735 175.622 88.4805C172.007 89.1519 169.425 90.8303 168.366 93.1801C168.057 93.9031 167.669 94.4712 167.514 94.4712C167.385 94.4712 162.298 93.0505 156.23 90.365C155.207 89.9106 154.245 89.4844 153.342 89.0842C142.445 84.2543 140.083 83.2074 140.298 81.8959C140.479 80.7855 140.427 80.1658 140.117 79.2104C139.575 77.6094 138.955 77.1705 137.199 77.1705C135.805 77.1705 135.805 77.1705 135.96 76.4733C136.786 72.5225 136.76 70.2501 135.882 68.8041C135.288 67.8487 134.591 67.4614 132.99 67.229C132.061 67.0999 131.622 67.1773 130.589 67.7454C129.892 68.1069 129.298 68.3651 129.246 68.3135C129.194 68.2618 129.375 66.8416 129.659 65.1632C131.777 52.7428 130.141 42.0414 124.744 30.6797C124.717 30.622 124.687 30.5587 124.655 30.4901L124.564 30.2953C122.923 26.7729 116.326 12.6094 97.459 5.46262C96.605 5.13913 95.797 4.82635 95.0203 4.52574C88.5935 2.0381 84.3211 0.384338 74.0126 0.401499C62.4585 0.420735 58.5452 2.05411 50.9277 5.54009C49.869 6.03071 48.9394 6.31475 48.8619 6.21146C48.7845 6.08235 48.2939 5.77249 47.8032 5.51427C47.3126 5.25604 46.2539 4.61049 45.4793 4.09405C43.2586 2.59637 41.89 1.97664 41.1928 2.13158C40.3923 2.33815 40.3923 3.00953 41.1928 3.31939C41.5285 3.4485 41.9158 3.88748 42.0707 4.32645C42.4064 5.25604 42.7938 5.35933 43.0262 4.58467C43.1294 4.30063 43.2844 4.09405 43.3618 4.1457C43.3912 4.16039 43.4895 4.20641 43.6395 4.27663C44.017 4.45331 44.7217 4.7832 45.4793 5.15276C46.538 5.6692 47.7 6.21146 48.0098 6.34057C48.5779 6.54715 48.3971 6.70208 45.9441 8.14811C36.3641 13.7773 28.5658 22.531 24.2019 32.4983C23.5305 33.996 22.9366 34.9256 22.3169 35.442C20.7417 36.7589 17.6431 40.5031 16.9201 41.975C16.5327 42.7755 15.7064 44.0149 15.0609 44.738C14.4412 45.461 13.7698 46.3906 13.5374 46.7779C13.3308 47.1911 13.1242 47.4751 13.0468 47.4235C12.9951 47.346 13.0726 46.0807 13.2533 44.6089C13.6407 41.1745 13.6407 40.2707 13.3308 40.1933C12.866 40.0642 12.1946 41.8717 11.9106 44.1182C11.704 45.4868 11.6524 47.5526 11.7815 49.67L11.9364 53.0268L10.103 50.0573C9.47198 49.0634 8.85056 48.0695 8.40956 47.3641L8.40914 47.3634L8.40868 47.3627L8.4081 47.3618C8.12804 46.9138 7.92096 46.5826 7.83071 46.4422C7.15933 45.461 6.772 43.9891 7.05604 43.4985C7.21098 43.2145 7.18515 43.0854 6.92693 43.0854C6.38467 43.0854 5.32597 44.8154 4.62877 46.8037C4.29308 47.7333 3.9574 48.508 3.85411 48.508C3.46678 48.508 3.64753 39.2637 4.06069 36.2942C4.91281 30.4325 7.15933 23.2024 8.16639 23.2024C8.37297 23.2024 8.55372 23.0991 8.55372 22.9442C8.55372 22.4794 7.88235 22.6601 7.34009 23.254C6.12645 24.5709 4.52548 28.625 3.51842 32.9373C2.82123 35.9068 2.38225 39.7285 2.22732 43.8858C2.09821 47.4751 2.14985 48.069 2.6663 50.0315C3.2602 52.2264 3.725 52.8719 4.52548 52.562C4.80953 52.4588 4.93864 52.0714 4.93864 51.3484C4.93864 50.7803 5.2485 49.0761 5.63583 47.5526L6.3072 44.8154L6.59125 45.9516C6.95276 47.2685 9.07016 51.3484 10.981 54.3179C12.2979 56.3321 12.3237 56.4612 12.7627 59.6115C12.9951 61.3932 13.7181 65.7269 15.3966 72.3934C16.8796 78.2836 25.2166 84.1267 27.2982 85.5857L27.2985 85.5858C27.5727 85.778 27.7383 85.8941 27.7653 85.9241C28.0236 86.2082 28.3851 86.3631 28.5916 86.2856C28.824 86.2082 28.9531 86.3115 28.9531 86.5955C28.9531 86.8537 29.1339 87.1894 29.3405 87.3443C29.5987 87.5251 29.7794 88.2223 29.8311 89.4359C29.9602 91.8632 31.7677 96.5112 33.1621 98.0347C34.0659 99.0159 35.9509 99.4291 38.0425 99.0676C39.4111 98.861 39.7984 98.706 39.6693 98.3962C39.5918 98.1896 40.0824 98.4478 40.7538 98.9643C48.6037 104.955 56.5569 108.544 65.4913 110.094C68.9515 110.687 74.684 111.023 77.8085 110.791C80.5714 110.61 80.5714 110.61 80.4423 111.152C80.2616 111.875 80.494 112.314 84.2898 118.744C87.311 123.831 87.5692 124.167 90.9261 127.601C98.0529 134.96 105.825 140.667 114.631 145.082C122.92 149.214 136.153 152.648 148.251 153.733C160.349 154.817 169.038 143.714 169.012 140.873C168.96 136.974 168.418 134.418 167.101 131.939C165.81 129.538 164.958 128.711 161.085 126.129C156.772 123.263 154.113 120.913 152.357 118.408C151.246 116.833 150.833 115.051 150.833 114.096C150.833 113.476 151.634 112.082 152.822 111.798C153.906 111.514 154.113 111.54 155.326 112.134C156.049 112.469 157.934 113.347 159.484 114.096C161.059 114.819 162.582 115.542 162.892 115.697C163.806 115.951 164.192 117.739 164.401 118.708C164.448 118.925 164.486 119.1 164.519 119.209C164.88 120.552 166.591 122.285 167.695 122.875C169.633 123.912 174.409 124.051 175.726 122.63C176.062 122.269 177.175 121.824 177.404 121.959C177.633 122.094 178.463 123.211 178.463 124.115C178.489 125.664 179.289 127.084 180.993 128.505C184.221 131.19 186.726 131.836 189.256 130.648C190.573 130.028 191.653 129.786 191.653 129.786C191.653 129.786 192.729 131.16 192.794 131.629C193.301 135.298 198.733 136.836 200.179 136.991C200.511 137.024 201.155 136.882 201.811 136.738C202.686 136.546 203.58 136.349 203.768 136.561C204.137 136.977 197.597 147.794 196.693 149.162C188.094 162.073 171.362 169.975 150.885 170.801C137.587 171.343 121.241 167.625 107.065 160.86C98.0013 156.496 89.9706 151.151 81.3719 143.662C79.8742 142.371 78.1441 140.899 77.5244 140.383C76.9047 139.892 75.4328 138.214 74.2967 136.664C72.3858 134.082 71.3013 133.153 71.3013 134.031C71.3013 134.418 72.5408 136.794 73.961 139.143C74.5291 140.073 74.8906 140.719 74.7615 140.615C74.6324 140.512 74.2192 142.371 73.8319 144.747C72.5666 152.364 70.475 159.878 68.3576 164.552C67.1956 167.083 64.9676 168.973 64.2962 169.489C61.8173 171.374 58.1062 172.221 52.9676 172.738C46.4605 173.383 36.8805 171.937 29.5729 169.2C27.6362 168.477 22.6526 166.386 22.3169 166.153C22.2967 166.133 22.1823 165.39 22.0227 164.354L21.9305 163.756L21.8779 163.416C20.9483 157.038 19.6572 132.481 19.6572 121.12C19.6572 116.42 19.6056 115.387 19.2957 115.387C18.6501 115.387 18.3919 116.007 18.1079 118.228C17.4623 123.289 17.5914 149.705 18.2886 155.256L18.4436 156.522L17.5656 156.031C16.2229 155.256 11.1101 150.066 9.32838 147.665C7.82002 145.612 6.92353 142.982 6.2528 141.015C6.0968 140.558 5.95302 140.136 5.81659 139.766C2.07239 129.385 3.38931 117.737 8.55372 107.253C12.9435 98.3187 18.3403 93.3609 26.2418 90.9594C27.5329 90.5721 28.6691 90.1589 28.7982 90.0557C29.2888 89.5909 26.1385 89.8233 24.4085 90.3655C18.7793 92.0956 12.8918 96.821 8.88941 102.863C3.2602 111.333 0.729642 123.831 2.51136 134.495C2.92452 137.026 4.60295 142.5 5.06775 142.888C5.10888 142.929 5.32113 143.374 5.64215 144.047L5.6423 144.048L5.64247 144.048C6.53059 145.911 8.25067 149.52 9.48332 151.151C10.981 153.191 15.4999 157.632 17.3849 159.001L18.5727 159.853L18.7534 161.944C19.0891 165.947 19.2182 166.308 21.0258 167.651C25.5446 171.085 34.4532 174.287 42.5097 175.423C46.2539 175.94 54.3879 175.759 57.4865 175.088ZM144.764 150.841C129.762 149.524 111.635 142.371 98.5172 131.319C92.9913 126.645 85.8128 117.556 82.9723 112.521C82.3784 111.488 81.9395 110.997 81.423 110.868C80.8807 110.713 81.3455 110.558 83.5662 110.197C92.9396 108.596 102.055 104.697 109.414 99.145L110.499 98.3445L110.809 99.0933C111.506 100.772 114.191 102.476 116.179 102.476C116.98 102.476 119.665 101.262 121.292 100.152L122.403 99.4032L123.306 100.307C124.133 101.133 124.288 101.185 125.837 101.185C127.619 101.185 129.762 100.384 130.95 99.2482L131.595 98.6543L133.429 99.868C134.41 100.565 137.147 102.089 139.497 103.302C143.009 105.11 146.727 107.201 150.265 109.37L150.833 109.732L150.29 110.455C149.722 111.23 148.664 112.702 148.664 114.948C148.664 117.479 151.295 122.025 156.333 125.148C160.29 127.601 167.101 132.426 166.842 139.479C166.811 140.331 165.861 142.449 164.596 144.359C163.77 145.573 161.471 147.381 159.38 148.439C155.816 150.221 149.542 151.254 144.764 150.841ZM7.08178 34.9256C7.77898 35.0805 8.24377 35.3129 8.14048 35.4162C7.8048 35.7519 6.02308 35.5969 5.60992 35.1838C4.96437 34.564 5.1193 34.1251 6.02308 33.9443C6.48787 33.8669 7.18507 33.4795 7.5724 33.0922C7.95973 32.7049 8.29542 32.5241 8.29542 32.6532C8.29542 32.9889 7.00431 34.1767 6.35876 34.4349C5.94561 34.6157 6.07472 34.6932 7.08178 34.9256ZM17.359 35.3387C18.1078 34.9255 17.9529 34.6415 17.0749 34.7706C16.197 34.8997 16.1453 34.7964 16.7134 33.9185C16.9458 33.5828 17.0749 33.0922 17.0233 32.834C16.9458 32.4983 16.765 32.6532 16.3519 33.4795C16.042 34.0734 15.6031 34.564 15.3965 34.564C14.7509 34.564 14.6993 35.0805 15.319 35.3129C16.1195 35.6486 16.7392 35.6486 17.359 35.3387ZM8.42461 21.2398C7.80488 21.3431 5.86823 22.1178 4.16398 22.9699C2.4339 23.7962 0.962041 24.4934 0.858753 24.4676C-1.7751 24.1835 1.89164 19.7938 8.55372 15.3008C14.9318 10.9885 19.2441 8.71614 23.2465 7.55415C25.7512 6.83113 28.5658 6.72784 29.3663 7.32175C29.8053 7.65744 29.6503 7.68326 27.7395 7.70908C23.608 7.70908 18.8309 9.82649 11.0585 15.0167C7.03022 17.7022 2.35643 21.5497 2.35643 22.1694C2.35643 22.2985 3.10527 22.0403 4.03486 21.6272C6.02316 20.7234 8.0631 20.2586 8.96688 20.4652C9.92229 20.7234 9.71572 21.0591 8.42461 21.2398ZM18.4177 23.4605C20.845 22.9699 20.9483 22.9441 20.9483 22.6859C20.9483 22.5567 20.0187 22.4276 18.8567 22.376L16.7651 22.2985L18.7018 20.1036C19.7605 18.89 20.9999 17.6764 21.4389 17.3923C22.3943 16.7726 22.446 16.3336 21.6713 16.0754L21.0774 15.8947L21.723 15.6623C22.0845 15.5331 22.7558 15.4815 23.2206 15.559C23.9178 15.6623 24.0728 15.6106 23.9953 15.2491C23.9178 14.8876 23.6338 14.8101 22.3685 14.8359C18.676 14.8876 17.1008 15.8688 19.9929 16.3336C20.7934 16.4627 21.4647 16.6693 21.4647 16.7984C21.4647 16.9017 21.3356 17.005 21.1807 17.005C20.6901 17.005 16.5327 21.214 16.0163 22.2469C15.2158 23.7704 15.6548 24.0028 18.4177 23.4605ZM35.4603 13.4416C34.7115 13.4933 34.5308 13.6224 34.5824 13.9839L34.5904 14.0365C34.6193 14.2275 34.636 14.3372 34.5932 14.3706C34.5354 14.4155 34.3692 14.3213 33.9787 14.0998L33.911 14.0614C33.4204 13.8031 33.3688 13.674 33.6528 13.4675C33.8336 13.3125 34.3242 13.0801 34.7115 13.0027L35.4345 12.8219L34.8923 12.2538C34.6082 11.9181 34.4533 11.6083 34.5308 11.505C34.7373 11.2984 37.2679 11.5824 37.6294 11.8665C37.7843 11.9956 38.0167 11.9698 38.1717 11.8148C38.5332 11.4533 39.0238 11.7374 39.0238 12.3055C39.0238 12.6153 38.9463 12.6412 38.7139 12.4088C38.5073 12.2022 38.3266 12.2022 38.0942 12.3829C37.8876 12.5637 37.7327 12.5637 37.6036 12.3571C37.5261 12.228 37.0355 12.0989 36.519 12.0989C36.0426 12.0989 35.8173 12.0989 35.7713 12.1897C35.7301 12.2711 35.8331 12.4256 36.0284 12.7186C36.4403 13.3622 36.4159 13.3642 35.4691 13.4409L35.4603 13.4416ZM31.5353 6.57298C31.5353 6.23729 31.2255 5.64338 30.8382 5.25605L30.1151 4.53303L33.9884 4.68796C36.1317 4.79125 38.5589 5.02365 39.4111 5.25605C40.2632 5.46263 41.2444 5.61756 41.6059 5.61756C42.1482 5.61756 42.0449 5.51427 41.0379 4.97201C39.282 4.06824 37.0354 3.62926 32.7232 3.3194C27.5588 2.95789 24.9507 3.44851 25.4413 4.73961C25.5188 4.99783 25.932 5.12694 26.5517 5.12694C27.817 5.12694 29.8827 5.87578 30.5799 6.57298C31.3288 7.32181 31.5353 7.32181 31.5353 6.57298ZM18.9344 74.9497C21.0259 77.6352 23.7889 80.6822 25.08 81.7151C25.8547 82.3348 26.526 82.8513 26.5777 82.8513C26.6035 82.8513 26.0354 81.6634 25.3124 80.2174C22.3945 74.4074 20.6903 68.6233 19.8898 61.9612C19.709 60.4894 19.425 59.2499 19.1151 58.7335C18.4954 57.7006 18.4954 56.3578 19.1409 55.0926C19.4766 54.4212 19.6574 53.5691 19.6574 52.6395V51.2192L18.4179 52.5104C17.2043 53.7756 16.0423 54.2921 16.0423 53.5174C16.0423 52.9493 17.9531 50.2122 18.9602 49.3601C19.7607 48.6887 19.864 48.4563 20.1222 46.4422C20.3029 45.2285 20.7161 43.0853 21.0518 41.6651C21.4133 40.2449 21.6199 39.0312 21.5682 38.9796C21.3875 38.7988 15.3193 45.7681 14.493 47.9915C14.3116 48.4796 13.8216 49.3342 13.4343 49.8507L12.7629 50.7127C12.7629 50.7127 12.9714 51.9198 13.2019 53.4368C13.4347 54.9694 13.5439 56.023 13.6412 56.9614C13.7713 58.2167 13.8801 59.2659 14.2347 60.98C14.6479 63.0974 15.0611 64.9308 15.1643 65.0599C15.2418 65.2148 15.5775 66.4026 15.9132 67.7195C16.6362 70.6374 17.8498 73.5295 18.9344 74.9497ZM123.72 99.3774L123.178 98.8352C123.178 98.8352 132.178 87.4003 133.791 83.187C135.021 79.9716 135.746 79.0598 136.723 79.0598C137.269 79.0598 137.716 79.1846 137.922 79.4944C138.284 80.0367 138.632 80.7081 138.167 83.0062C137.393 86.7246 136.205 89.1777 132.641 94.4712C131.815 95.6849 130.756 97.0276 130.291 97.4924C129.207 98.4995 126.767 99.5324 125.347 99.7648C124.443 99.8939 124.185 99.8422 123.72 99.3774Z" fill="#00160A"/>
<path d="M195.221 124.638C198.433 115.885 197.947 114.02 197.39 113.838C197.39 113.838 196.163 114.535 195.621 116.007C194.614 118.77 191.167 126 189.876 127.291C188.352 128.815 188.352 128.815 186.803 128.815C185.253 128.815 180.785 126.481 180.177 124.182C179.203 120.502 183.394 107.718 183.498 106.995L182.8 106.504C182.336 106.943 176.29 125.277 168.34 120.5C167.43 119.953 165.5 117.376 165.345 116.007C164.484 112.03 168.432 98.1253 169.104 95.269C169.705 92.7125 172.833 90.3398 176.681 90.3398C182.594 90.3398 181.8 95.5088 184.448 97.3302C185.622 98.1373 187.551 96.674 188.146 96.563C191.477 95.9432 192.753 96.6648 195.195 98.6029C197.08 100.099 198.475 103.06 200.01 104.103C200.862 104.683 201.767 103.89 202.064 103.741C203.279 103.132 205.885 103.587 206.608 104.103C207.668 104.565 210.266 107.062 210.676 108.514C212.536 115.096 206.663 129.687 204.446 132.424C200.776 136.955 192.008 133.391 195.221 124.638Z" fill="white"/>
<path fill-rule="evenodd" clip-rule="evenodd" d="M46.7702 100.654C53.8455 105.122 61.1409 108.04 69.4556 108.84C76.0144 109.46 84.8577 108.608 91.21 106.542C96.5551 104.812 103.785 100.019 108.614 95.965C117.987 88.1151 123.901 75.8535 126.483 62.8392C126.844 61.0059 127.396 56.3974 127.37 51.8268C127.37 46.5075 125.029 31.9713 117.936 23.5897C103.306 6.3028 79.2584 -1.48446 59.048 5.16925C51.7575 7.56946 43.9951 11.9181 38.1335 17.599C30.7484 24.8034 25.2999 34.6157 23.1309 44.6347C20.8585 55.2217 23.8144 67.8745 28.953 78.255C33.0587 86.5181 39.8241 96.2388 46.7702 100.654ZM115.715 69.4497C110.86 84.0392 98.2073 94.9361 82.301 98.2413C79.8737 98.7319 78.1953 98.9127 74.7867 98.9643C72.3853 99.0418 69.9838 99.016 69.4932 98.9643C58.3639 97.6216 49.8943 93.5159 42.096 85.7176C38.6875 82.2833 37.2415 80.4241 35.1241 76.7573C31.793 70.9474 30.0113 65.0083 29.469 57.8556C27.6099 33.3505 45.143 12.9252 69.8289 10.8078C79.5122 9.98153 90.2542 12.9511 98.4139 18.7352C101.435 20.8784 106.909 26.3011 108.614 28.8316C109.311 29.8387 116.076 39.7285 117.264 45.4094C118.788 52.7945 118.194 62.0388 115.715 69.4497Z" fill="white"/>
<path fill-rule="evenodd" clip-rule="evenodd" d="M127.38 51.8271C127.38 69.1591 119.181 88.1077 108.6 96.2C103.552 100.061 96.9553 104.736 91.2104 106.542C82.7913 109.189 69.4561 108.84 69.4561 108.84C69.4561 108.84 83.0608 107.022 88.1024 104.993C102.56 99.1744 110.452 90.2431 115.325 81.6736C124.945 64.758 127.38 51.406 127.38 51.8271Z" fill="#E7EAEE"/>
<path fill-rule="evenodd" clip-rule="evenodd" d="M69.7519 95.8658C62.8574 94.9879 56.0145 92.5348 50.4886 88.8939C47.2092 86.7506 42.2514 81.7153 39.8499 78.1261C36.4156 72.9616 34.1433 67.4357 33.0329 61.4967C32.2324 57.1844 32.2583 50.5481 33.0587 46.7006C33.885 42.7757 34.9438 39.7803 36.8288 35.9845C39.0236 31.5947 41.3476 28.367 44.8336 24.881C50.7727 18.9419 57.6672 15.1719 65.8786 13.3644C68.5382 12.7963 78.1699 12.3315 78.5056 12.7704C78.583 12.8996 79.0995 13.2352 79.6417 13.5193C80.184 13.8291 81.63 14.9137 82.8178 15.9724C84.5996 17.5217 85.4 18.5029 86.9494 20.9302C88.0081 22.5828 88.8602 24.0805 88.8602 24.2096C88.8602 24.4937 89.6865 25.0101 90.1513 25.0101C90.7968 25.0101 91.2358 23.0734 91.3649 19.6649C91.4424 17.7799 91.5973 16.2306 91.7006 16.2306C92.0621 16.2306 96.0387 18.4255 97.8979 19.6649C101.539 22.0922 105.18 25.5007 107.865 29.0642C109.079 30.6651 109.26 31.0783 109.26 32.0595C109.26 32.9633 109.518 33.6605 110.318 35.0549C112.332 38.5667 113.908 42.9822 114.863 47.8626C115.483 51.142 115.483 57.3393 114.837 60.7736C113.081 70.2245 107.865 79.6237 101.074 85.5886C95.3157 90.6239 89.1959 93.7226 81.9657 95.2461C79.4868 95.7883 72.05 96.1498 69.7519 95.8658ZM51.2893 78.2035C51.5217 77.9453 51.6766 77.558 51.5991 77.3772C51.5759 77.3229 51.2527 77.171 50.7796 76.9486L50.7794 76.9485L50.7793 76.9484C49.6761 76.4298 47.758 75.5281 46.9268 74.5884C43.6216 70.8184 42.4079 68.0038 41.6591 62.1938C40.9361 56.5388 41.5435 52.7158 42.8469 46.5715C43.4828 43.5742 45.1727 41.0984 46.2242 39.5581C46.9391 38.5107 47.3588 37.8959 46.9512 37.8436C45.9441 37.6887 45.7892 37.7662 44.7305 38.7732C42.4581 40.9423 41.4253 42.6724 40.3407 46.0034C38.6623 51.2195 38.338 65.3158 41.6591 71.6705C44.9802 78.0253 50.6954 78.8749 51.2893 78.2035ZM88.0085 56.5131C87.57 60.5245 85.7104 66.3255 83.5413 68.856C82.5343 70.0439 78.8376 72.0838 75.7173 71.6706C72.7033 71.2716 70.3463 69.8631 68.3321 66.8419C66.6021 64.2339 65.7085 61.0682 65.1044 57.0812C64.0612 50.1964 68.6162 42.1819 70.5787 40.1936C72.567 38.1536 73.9872 37.4306 75.7947 37.4048C77.5506 37.4048 78.6868 37.7921 80.4685 39.0574C83.7221 41.3297 88.8607 48.7183 88.0085 56.5131ZM53.1999 35.1582C53.7164 34.5643 53.7939 34.2802 53.6389 33.1699C53.5356 32.137 53.3291 31.7239 52.7868 31.2849C51.8314 30.5102 50.6436 30.5102 49.7656 31.3365C49.1459 31.9304 49.0684 32.137 49.1459 33.5572C49.2233 35.0807 49.275 35.184 50.1271 35.6488C51.2633 36.2685 52.3736 36.0878 53.1999 35.1582ZM69.3125 19.2259C64.6645 22.5569 62.6504 23.9255 60.5588 25.2166C58.9062 26.2495 58.3898 26.2753 58.3898 25.3457C58.3898 24.8551 58.7513 24.3128 59.6809 23.4607L60.972 22.2729L58.4673 21.9372C55.6527 21.5757 52.9155 20.801 52.3216 20.2071C51.3404 19.2001 52.1925 18.9677 54.9813 19.4841C56.2207 19.6907 58.6222 19.9489 60.3264 20.0005L63.4251 20.1297L65.6716 18.5029C70.6036 14.9394 75.7164 12.9253 78.1695 13.545C79.693 13.9065 79.5122 14.3197 77.7822 14.5263C75.7939 14.7587 74.5802 15.43 69.3125 19.2259Z" fill="white"/>
<path d="M75.9492 68.1327C75.9492 68.0036 76.1042 67.8745 76.3107 67.8745C76.5173 67.8745 76.7755 68.0036 76.853 68.1327C76.9305 68.2877 76.7755 68.391 76.4915 68.391C76.1816 68.391 75.9492 68.2877 75.9492 68.1327Z" fill="white"/>
<path d="M77.498 67.9007C77.498 67.6166 78.1436 67.3584 78.8666 67.3584C79.4347 67.3842 79.4347 67.3842 78.9441 67.7457C78.376 68.1847 77.498 68.2622 77.498 67.9007Z" fill="white"/>
<path d="M73.4958 67.2289C73.4184 67.0223 73.3151 66.6608 73.2376 66.4542C73.1601 66.196 73.2893 66.0669 73.6249 66.0669C73.909 66.0669 74.1414 66.2218 74.1414 66.4284C74.1414 66.635 74.2188 66.9707 74.2963 67.2031C74.3996 67.4871 74.3221 67.6162 74.0381 67.6162C73.8057 67.6162 73.5475 67.4355 73.4958 67.2289Z" fill="white"/>
<path d="M74.8644 66.5837C74.7353 65.809 75.0193 65.5508 75.9489 65.5508C76.233 65.5508 76.4654 65.809 76.5686 66.248C76.7752 66.9968 76.4395 67.3583 75.5358 67.3583C75.1226 67.3583 74.9419 67.1776 74.8644 66.5837Z" fill="white"/>
<path d="M72.2309 66.7125C71.7403 66.3252 71.7403 66.3252 72.2825 66.3252C72.6182 66.3252 72.8506 66.4801 72.8506 66.7125C72.8506 67.1773 72.8506 67.1773 72.2309 66.7125Z" fill="white"/>
<path d="M77.4212 66.6866C77.0855 66.351 77.2405 65.3439 77.6536 65.189C78.4024 64.9049 78.7381 65.034 78.8931 65.7054C78.9963 66.0927 79.048 66.4284 78.9963 66.4542C78.7898 66.6866 77.5761 66.8416 77.4212 66.6866Z" fill="white"/>
<path d="M79.7194 66.1446C79.6419 66.0671 79.5645 65.7314 79.5645 65.4216C79.5645 64.9826 79.771 64.8018 80.3908 64.6727C80.933 64.5694 81.2687 64.6211 81.4236 64.8277C81.6819 65.2408 81.6819 65.7573 81.4495 65.8864C80.9847 66.1446 79.9001 66.2995 79.7194 66.1446Z" fill="white"/>
<path d="M71.043 65.3441C71.043 65.0342 71.2754 64.776 71.6111 64.6985C72.2824 64.5178 72.2566 64.492 72.3857 65.1633C72.4374 65.5507 72.3082 65.7056 71.766 65.7573C71.1979 65.8347 71.043 65.7314 71.043 65.3441Z" fill="white"/>
<path d="M73.0061 65.3701C72.6446 64.9828 72.877 64.2598 73.3676 64.2598C73.7033 64.2598 73.884 64.4405 73.884 64.7504C73.884 65.241 73.2901 65.6542 73.0061 65.3701Z" fill="white"/>
<path d="M74.5545 64.5953C74.3479 64.1047 74.7869 63.7432 75.639 63.7432C76.0263 63.7432 76.2071 63.8981 76.2071 64.2338C76.2071 64.5178 75.9747 64.776 75.639 64.8793C74.7869 65.0859 74.7352 65.0859 74.5545 64.5953Z" fill="white"/>
<path d="M82.0179 64.518C82.0954 64.3889 82.2245 64.2598 82.302 64.2598C82.3794 64.2598 82.3536 64.3889 82.2761 64.518C82.1987 64.6729 82.0696 64.7762 81.9921 64.7762C81.9146 64.7762 81.9404 64.6729 82.0179 64.518Z" fill="white"/>
<path d="M76.8783 64.0783C76.6717 63.5619 76.93 63.3037 77.7563 63.1746C78.2211 63.1229 78.4276 63.2262 78.4793 63.5877C78.66 64.4399 77.1882 64.9047 76.8783 64.0783Z" fill="white"/>
<path d="M70.682 63.6396C70.4496 62.7874 70.5012 62.71 71.1726 62.71C71.5341 62.71 71.8182 62.8132 71.8182 62.9424C71.8182 63.0715 71.8956 63.3555 71.9731 63.5621C72.0506 63.8203 71.8956 63.9752 71.4566 64.0527C70.966 64.156 70.7853 64.0527 70.682 63.6396Z" fill="white"/>
<path d="M79.3066 63.3558C79.3066 62.891 79.4874 62.6844 79.978 62.5553C80.701 62.3746 81.1142 62.7361 81.1142 63.5624C81.1142 63.8981 80.9076 64.0014 80.2104 64.0014C79.4099 64.0014 79.3066 63.9239 79.3066 63.3558Z" fill="white"/>
<path d="M69.9075 63.3556C69.83 63.149 69.8817 62.9683 70.0108 62.9683C70.1657 62.9683 70.269 63.149 70.269 63.3556C70.269 63.5622 70.2174 63.7429 70.1657 63.7429C70.1141 63.7429 70.0108 63.5622 69.9075 63.3556Z" fill="white"/>
<path d="M72.5152 63.5622C72.1536 63.2265 72.3602 62.5035 72.825 62.3744C73.1091 62.2969 73.3931 62.3228 73.4706 62.4002C73.7804 62.6843 73.5997 63.4331 73.2124 63.588C72.7217 63.7688 72.7217 63.7688 72.5152 63.5622Z" fill="white"/>
<path d="M81.7334 63.3815C81.4494 62.6327 81.7592 62.0646 82.4822 61.9871C83.0245 61.9097 83.1794 62.013 83.1794 62.4261C83.1794 63.2782 82.8954 63.743 82.379 63.743C82.0949 63.743 81.8109 63.5881 81.7334 63.3815Z" fill="white"/>
<path d="M74.3222 63.0456C74.0123 62.7616 74.1156 62.2452 74.5546 62.0902C75.0452 61.9095 76.0781 62.4259 75.794 62.71C75.4325 63.0198 74.5029 63.2522 74.3222 63.0456Z" fill="white"/>
<path d="M76.5693 62.4002C76.3369 62.0387 77.1632 61.4189 77.8346 61.4189C78.1445 61.4189 78.2736 61.5739 78.2219 61.8579C78.1187 62.3744 76.8017 62.7875 76.5693 62.4002Z" fill="white"/>
<path d="M69.4941 62.2193C69.4941 62.0902 69.4166 61.8062 69.3392 61.5738C69.2617 61.3414 69.2875 61.1606 69.4425 61.1606C69.7782 61.1606 70.0364 62.1419 69.7265 62.3485C69.5974 62.4259 69.4941 62.3743 69.4941 62.2193Z" fill="white"/>
<path d="M70.191 61.6258C70.036 61.0577 70.3459 60.6445 70.9398 60.6445C71.2755 60.6445 71.6112 61.6516 71.4046 61.9873C71.1206 62.4263 70.3201 62.168 70.191 61.6258Z" fill="white"/>
<path d="M71.9981 61.7548C71.6107 61.3675 71.8431 60.4379 72.3596 60.3088C72.7469 60.2055 72.9535 60.3346 73.1601 60.7994C73.315 61.1351 73.3925 61.4708 73.3408 61.5224C73.0826 61.7548 72.153 61.9356 71.9981 61.7548Z" fill="white"/>
<path d="M78.9701 61.7547C78.6345 61.419 78.7894 61.2125 79.5641 60.9284C80.2096 60.7218 80.3904 60.7477 80.5195 61.0575C80.7519 61.6773 79.4608 62.2712 78.9701 61.7547Z" fill="white"/>
<path d="M81.2429 61.1609C80.9847 60.7477 81.3462 60.3862 82.0176 60.3862C82.8181 60.3862 83.0505 61.0576 82.3274 61.2642C81.5528 61.4708 81.4237 61.4449 81.2429 61.1609Z" fill="white"/>
<path d="M83.4375 60.5411C83.4375 60.1538 83.9023 59.7406 84.1089 59.9472C84.2896 60.128 83.9281 60.9026 83.6699 60.9026C83.5408 60.9026 83.4375 60.7477 83.4375 60.5411Z" fill="white"/>
<path d="M69.158 60.2054C69.0547 60.128 68.9772 59.7923 69.0031 59.5082C69.0031 59.0176 69.0289 59.0176 69.2613 59.5857C69.5195 60.2054 69.4678 60.5153 69.158 60.2054Z" fill="white"/>
<path d="M69.6482 59.8182C69.4158 58.9144 69.4416 58.8369 70.113 58.8369C70.8618 58.8369 71.3266 59.7923 70.7585 60.1538C70.1646 60.5153 69.8289 60.4121 69.6482 59.8182Z" fill="white"/>
<path d="M78.5312 60.3341C78.5312 60.2566 78.6604 59.8435 78.8153 59.3787C79.1768 58.3458 79.9773 58.2942 80.158 59.3012C80.2355 59.6886 80.2613 60.0242 80.2355 60.0501C80.1064 60.205 78.5312 60.4374 78.5312 60.3341Z" fill="white"/>
<path d="M71.4815 59.689C71.3782 59.6115 71.3008 59.3016 71.3008 59.0176C71.3008 58.6044 71.3782 58.5786 71.6881 58.8368C71.8947 59.0176 72.0754 59.3274 72.0754 59.5082C72.0754 59.8955 71.7656 59.9988 71.4815 59.689Z" fill="white"/>
<path d="M80.778 59.1726C80.6231 58.3722 80.9588 58.0106 81.7592 58.1139C82.1466 58.1656 82.2757 58.398 82.2757 58.9661C82.2757 59.6116 82.1724 59.7665 81.6043 59.8182C81.0362 59.8957 80.9071 59.7665 80.778 59.1726Z" fill="white"/>
<path d="M83.3087 59.2757C82.973 58.2428 83.0763 57.9329 83.7735 57.8554C84.3932 57.778 84.4707 57.8554 84.4707 58.5268C84.4707 59.0949 84.3157 59.3273 83.9284 59.4306C83.6444 59.5081 83.3603 59.4306 83.3087 59.2757Z" fill="white"/>
<path d="M68.7705 57.8037C68.7705 57.3131 68.8222 57.1065 68.8996 57.3647C68.9513 57.5971 68.9513 58.0103 68.8996 58.2685C68.8222 58.5009 68.7705 58.2943 68.7705 57.8037Z" fill="white"/>
<path d="M69.4163 58.1396C69.0806 57.8297 69.2356 56.8226 69.6487 56.6677C70.2426 56.4353 70.5267 56.7193 70.5267 57.5715C70.5267 58.1137 70.3976 58.3203 70.0619 58.3203C69.8037 58.3203 69.4938 58.2428 69.4163 58.1396Z" fill="white"/>
<path d="M70.9654 57.4423C70.8621 57.055 70.8104 56.6418 70.9137 56.5644C71.1719 56.3061 71.3269 56.7193 71.2494 57.4681L71.1719 58.1912L70.9654 57.4423Z" fill="white"/>
<path d="M79.3066 57.2613C79.3066 56.9772 79.4358 56.8223 79.5649 56.8998C79.7198 56.9772 79.8231 57.2354 79.8231 57.442C79.8231 57.6486 79.7198 57.8035 79.5649 57.8035C79.4358 57.8035 79.3066 57.5711 79.3066 57.2613Z" fill="white"/>
<path d="M80.4678 57.5972C80.1063 57.2099 80.3903 56.5127 80.9842 56.3578C81.733 56.177 81.7589 56.177 81.9913 56.9259C82.1462 57.3907 82.0429 57.494 81.3715 57.5972C80.9584 57.6747 80.5452 57.6489 80.4678 57.5972Z" fill="white"/>
<path d="M82.8441 57.1065C82.5601 56.8483 82.6375 55.9962 82.9216 55.9962C83.0765 55.9962 83.1798 55.8929 83.1798 55.738C83.1798 55.6088 83.0249 55.4797 82.8183 55.4797C82.3793 55.4797 82.0178 54.2145 82.3793 53.8529C82.8441 53.3882 83.3605 53.8788 83.6704 55.1441C83.8512 55.8154 84.0319 56.5901 84.1094 56.8483C84.2127 57.184 84.1094 57.2873 83.6188 57.2873C83.2831 57.2873 82.9216 57.2098 82.8441 57.1065Z" fill="white"/>
<path d="M84.2376 55.7379C84.0568 54.9632 83.592 53.4139 83.2563 52.2777C82.7399 50.6251 82.6882 50.212 82.9723 50.0312C83.153 49.9021 83.3854 49.7988 83.4629 49.7988C83.747 49.7988 84.7798 55.0923 84.6765 56.1252L84.5991 57.1581L84.2376 55.7379Z" fill="white"/>
<path d="M68.5127 55.609C68.5127 55.1958 68.5643 55.0409 68.6418 55.2991C68.6934 55.5315 68.6934 55.893 68.6418 56.0738C68.5643 56.2287 68.5127 56.0479 68.5127 55.609Z" fill="white"/>
<path d="M69.0286 55.5576C69.1319 54.6539 69.8807 54.4473 70.0873 55.2736C70.268 55.945 70.3197 55.8675 69.545 56.1257C69.0027 56.2807 68.9511 56.229 69.0286 55.5576Z" fill="white"/>
<path d="M79.9257 55.3251C79.7191 54.5762 80.1581 54.1373 80.9844 54.2405C81.6041 54.318 81.8365 55.4284 81.3201 55.764C80.6745 56.1772 80.0806 55.9964 79.9257 55.3251Z" fill="white"/>
<path d="M70.5264 55.1186C70.5264 54.6797 70.6555 54.4473 70.9395 54.4473C71.1977 54.4473 71.301 54.628 71.2494 55.0154C71.1203 55.8417 70.5264 55.9191 70.5264 55.1186Z" fill="white"/>
<path d="M68.2287 54.0339C68.2287 53.7498 68.3062 53.6723 68.3836 53.8789C68.4611 54.0597 68.4353 54.2921 68.3578 54.3695C68.2803 54.4728 68.2029 54.3179 68.2287 54.0339Z" fill="white"/>
<path d="M68.7188 53.9563C68.7188 53.569 68.8737 53.4141 69.261 53.4141C69.6225 53.4141 69.7516 53.5432 69.7 53.853C69.5709 54.5244 68.7188 54.6019 68.7188 53.9563Z" fill="white"/>
<path d="M70.1396 53.7237C69.9588 53.2589 69.9588 53.2589 70.7335 53.0524C71.1983 52.8974 71.3016 52.9749 71.3016 53.3622C71.3016 53.9819 70.372 54.2918 70.1396 53.7237Z" fill="white"/>
<path d="M79.4866 53.3621C79.3059 52.7165 79.6416 52.3809 80.5453 52.3809C80.9843 52.3809 81.1134 52.5358 81.1134 53.0264C81.1134 53.4137 80.9585 53.672 80.7519 53.672C80.5453 53.672 80.2096 53.7494 80.0031 53.8269C79.7707 53.9044 79.5899 53.7494 79.4866 53.3621Z" fill="white"/>
<path d="M81.7339 52.7685C81.5273 52.2521 81.8372 51.8647 82.4311 51.8647C82.7926 51.8647 82.9217 52.0455 82.9217 52.5103C82.9217 52.9751 82.7926 53.1558 82.4053 53.1558C82.1212 53.1558 81.8114 52.9751 81.7339 52.7685Z" fill="white"/>
<path d="M68.4609 52.4073C68.4609 51.865 69.0548 51.2453 69.3131 51.5294C69.4164 51.6068 69.4938 51.9683 69.4938 52.304C69.4938 52.7172 69.3389 52.8979 68.9774 52.8979C68.6417 52.8979 68.4609 52.7172 68.4609 52.4073Z" fill="white"/>
<path d="M69.881 52.0971C69.6744 51.4515 69.9068 51.1675 70.7847 51.0384C71.5852 50.9351 71.8434 51.7872 71.1462 52.3037C70.4749 52.7943 70.0617 52.7168 69.881 52.0971Z" fill="white"/>
<path d="M79.2284 51.9424C79.0476 51.7875 78.9701 50.8321 79.1251 50.8321C79.1509 50.8321 79.5382 50.7288 80.003 50.5997C80.7777 50.3673 80.8293 50.3931 80.8035 51.0903C80.7777 51.6067 80.6227 51.865 80.2354 51.9682C79.5382 52.149 79.4349 52.149 79.2284 51.9424Z" fill="white"/>
<path d="M78.2734 51.3484C78.2734 51.1676 78.3509 51.0901 78.4542 51.1676C78.5317 51.2709 78.5317 51.4258 78.4542 51.5291C78.3509 51.6066 78.2734 51.5291 78.2734 51.3484Z" fill="white"/>
<path d="M81.1653 50.9352C81.2428 50.4962 82.0433 49.8507 82.224 50.0573C82.3015 50.1347 82.4306 50.4446 82.508 50.7803C82.6888 51.2967 82.6113 51.3484 81.8883 51.3484C81.2686 51.3484 81.0878 51.2451 81.1653 50.9352Z" fill="white"/>
<path d="M68.7188 50.9095C68.7188 50.7804 68.8479 50.5221 68.977 50.3156C69.1835 50.0057 69.2352 50.0315 69.2352 50.5221C69.2352 50.832 69.1319 51.0902 68.977 51.0902C68.8479 51.0902 68.7188 51.0128 68.7188 50.9095Z" fill="white"/>
<path d="M69.4941 50.3413C69.4941 49.6182 70.0364 49.3858 70.4496 49.9281C70.7078 50.3154 70.7078 50.4445 70.4496 50.6253C69.9073 50.961 69.4941 50.8577 69.4941 50.3413Z" fill="white"/>
<path d="M77.3441 50.0057C76.8793 49.4893 76.8793 49.4634 77.3183 49.6184C77.5765 49.7216 77.9122 49.7991 78.0413 49.7991C78.1704 49.7991 78.2737 49.9799 78.2737 50.1864C78.2737 50.7287 77.9122 50.6771 77.3441 50.0057Z" fill="white"/>
<path d="M71.7917 49.9798C70.6813 49.1276 70.5264 47.2168 71.5593 47.2168C72.2565 47.2168 72.902 48.3013 72.7987 49.3084C72.7213 50.238 72.4114 50.4446 71.7917 49.9798Z" fill="white"/>
<path d="M78.8668 50.1348C78.9701 50.0573 79.125 50.0573 79.2283 50.1348C79.3058 50.238 79.2283 50.3155 79.0476 50.3155C78.8668 50.3155 78.7894 50.238 78.8668 50.1348Z" fill="white"/>
<path d="M82.7663 49.1275C82.8438 48.8951 82.9213 48.6627 82.9213 48.6111C82.9213 48.5595 83.0504 48.5078 83.1795 48.5078C83.3344 48.5078 83.4377 48.7402 83.4377 49.0243C83.4377 49.3341 83.257 49.5407 83.0246 49.5407C82.7405 49.5407 82.663 49.4116 82.7663 49.1275Z" fill="white"/>
<path d="M69.2354 49.0502C69.2354 48.4563 69.7776 47.4751 70.0875 47.4751C70.6297 47.4751 70.2424 49.1277 69.6743 49.231C69.4419 49.2826 69.2354 49.2052 69.2354 49.0502Z" fill="white"/>
<path d="M75.0452 48.7664L74.2705 48.5856L74.9677 48.4049C75.6907 48.1983 76.2072 48.3532 76.2072 48.7922C76.2072 49.0504 76.1813 49.0504 75.0452 48.7664Z" fill="white"/>
<path d="M74.1416 47.5266C74.1416 46.4679 74.7355 46.3129 75.2778 47.2425C75.6393 47.8623 75.6651 47.9914 75.3294 47.9914C75.1228 47.9914 74.7872 48.0688 74.5548 48.1463C74.2449 48.2754 74.1416 48.1205 74.1416 47.5266Z" fill="white"/>
<path d="M78.6345 47.8884C77.4725 47.3719 76.7236 46.0033 76.7236 44.3766C76.7236 43.2146 76.8269 42.9305 77.5241 42.285C77.9631 41.8718 78.4021 41.5361 78.5312 41.5361C79.0993 41.5361 81.1908 43.5244 81.888 44.7639L82.6885 46.1841L81.8364 47.0879C80.8552 48.1208 79.7706 48.4048 78.6345 47.8884Z" fill="white"/>
<path d="M73.2376 47.2172C73.1601 47.0881 73.2117 46.959 73.3409 46.959C73.4958 46.959 73.6249 47.0881 73.6249 47.2172C73.6249 47.3721 73.5733 47.4754 73.5216 47.4754C73.4441 47.4754 73.315 47.3721 73.2376 47.2172Z" fill="white"/>
<path d="M69.8556 46.8038C69.933 46.5714 70.0105 46.339 70.0105 46.2874C70.0105 46.2357 70.2429 46.1841 70.527 46.1841C71.1725 46.1841 71.1983 46.5972 70.5528 46.9587C69.8556 47.3203 69.6748 47.2944 69.8556 46.8038Z" fill="white"/>
<path d="M71.8947 46.4938C71.3008 46.4163 71.1201 46.0806 71.5074 45.8483C71.6107 45.7708 72.0755 45.6417 72.5403 45.5384C73.2375 45.3835 73.3666 45.4351 73.3666 45.8741C73.3666 46.4163 72.8243 46.6487 71.8947 46.4938Z" fill="white"/>
<path d="M73.8838 45.6157C73.8838 45.3058 73.9096 45.1251 73.9613 45.1767C73.9871 45.2284 74.1937 45.4866 74.3744 45.7448C74.6843 46.1063 74.6585 46.1838 74.2969 46.1838C74.0387 46.1838 73.8838 45.9772 73.8838 45.6157Z" fill="white"/>
<path d="M70.2686 45.435C70.2686 45.28 70.3977 45.0993 70.5268 45.0218C70.6817 44.9443 70.785 45.0476 70.785 45.2542C70.785 45.4866 70.6817 45.6674 70.5268 45.6674C70.3977 45.6674 70.2686 45.5641 70.2686 45.435Z" fill="white"/>
<path d="M71.2242 45.0477C71.0176 44.5313 72.851 43.9632 73.1608 44.4538C73.3932 44.867 73.1608 45.0477 72.1796 45.2543C71.5857 45.3834 71.3275 45.3318 71.2242 45.0477Z" fill="white"/>
<path d="M73.6515 44.2218C73.6515 43.9378 73.729 43.8603 73.8065 44.0669C73.8839 44.2477 73.8581 44.4801 73.7807 44.5575C73.7032 44.6608 73.6257 44.5059 73.6515 44.2218Z" fill="white"/>
<path d="M71.4561 43.8082C71.7659 43.2401 72.6697 42.3105 72.9021 42.3105C73.1603 42.3105 73.1861 43.5242 72.9279 43.6791C72.7988 43.7308 72.3856 43.8599 71.9983 43.9632C71.4302 44.0923 71.3011 44.0664 71.4561 43.8082Z" fill="white"/>
<path d="M73.5224 43.2145C73.2383 42.4399 73.3674 42.1042 73.9872 42.0009C74.6327 41.8718 74.6327 41.8718 74.2196 42.6723C73.7031 43.7051 73.7289 43.7051 73.5224 43.2145Z" fill="white"/>
<path d="M73.3672 41.6649C73.3672 41.6133 73.8836 41.2518 74.5292 40.8903C75.3038 40.4255 75.8461 40.2706 76.2334 40.3738C76.6982 40.5288 76.5691 40.6321 75.433 41.1743C74.1677 41.7424 73.3672 41.949 73.3672 41.6649Z" fill="white"/>
<path d="M87.6981 18.7865C87.0009 17.7794 85.5291 16.1526 84.4704 15.1714C83.4117 14.1901 82.7145 13.3896 82.921 13.3896C83.4891 13.3896 87.8272 14.5775 88.9117 15.0423C89.8155 15.4296 89.8413 15.4812 89.6089 16.2817C89.4798 16.7465 89.3765 17.9085 89.3765 18.8639C89.3765 19.8452 89.2991 20.6198 89.1958 20.6198C89.0667 20.6198 88.4211 19.7935 87.6981 18.7865Z" fill="white"/>
<path d="M35.1505 97.002C34.0918 96.4598 33.8594 96.1499 32.5167 93.4902C30.58 89.7202 30.5284 88.8423 32.3618 90.9855C33.0848 91.8376 34.7632 93.5935 36.0801 94.8846C38.3267 97.0537 38.4299 97.2086 37.6811 97.1053C37.1388 97.0279 36.9323 97.0795 37.0614 97.2861C37.3712 97.7509 36.39 97.6218 35.1505 97.002Z" fill="white"/>
</svg>
